<svg xmlns="http://www.w3.org/2000/svg" width="287.587" height="351"><path fill="#d38b00" d="M154.857 212.954l3.514 18.572 6.071 24.347a85.858 85.858 0 0110.17 24.439c43.29 12.945 91.669-17.057 103.607-53.342 3.425-10.411 2.356-20.891 8.011-28.9-3.613 2.513-10.355 6.374-13.66 7.114a55.931 55.931 0 015.021-9.785c-7.383 4.87-15.394 6.44-24.19 2.2-28.552-13.766-70.462-10.715-86.706 11.466z" data-name="パス 333"/><path fill="#d38b00" d="M155.386 148.906c49.165 5.5 100.843-11.623 125.975-42.411-4.241 0-17.479-.808-26.546-3.77-23.09-7.539-72.412-14.45-109.481 24.347-3.142-5.655-8.011-8.325-12.252-9.9s-10.839-6.283-13.195-10.839a14.735 14.735 0 00-.471 6.44 24.981 24.981 0 01-9.032-11.7 23.861 23.861 0 00-1.256 8.8c-2.906-3.691-6.6-8.954-7.775-12.959a29.919 29.919 0 00-1.335 12.331A33.191 33.191 0 0189.179 94.48a30.659 30.659 0 00-1.413 16.179 51.522 51.522 0 00-11-8.089 41.315 41.315 0 011.728 9.347 63.74 63.74 0 00-7.3 3.691c-2.043-42.256-9.614-66.413-27.802-84.983-7.539-7.7-12.408-10.839-18.534-29.373-22.3 30.629-9.425 104.769 29.844 129.744-3.927 5.812-7.383 21.048-8.954 30.159s-4.241 12.566-6.283 15.707-2.919 10.268 2.2 18.22c8.8 13.666 35.342 32.515 62.83 28.274 41.238-6.359 56.81-44.343 50.891-74.45z" data-name="パス 334"/><path fill="#fff1ac" d="M258.53 257.44c.42-2.93 1.229-8.181 2.7-11.323a85.3 85.3 0 00-12.985 6.7c1.047-3.978 3.35-7.748 6.282-12.983a77.991 77.991 0 01-13.194 2.093 115.43 115.43 0 0019.477-24.084c-8.585.208-18.22-.211-27.436-2.725 4.606-2.093 9.216-5.026 13.614-7.328-6.491-1.048-9.844-2.1-17.8-3.77 2.93-1.257 7.328-3.562 11.938-5.866-4.61-1.673-12.566-5.655-16.965-9.214 8.895 1.551 18.385 3.242 25.924 7.4s18.848 5.979 26.907-.65a58.366 58.366 0 00-4.419 9.49 72.789 72.789 0 0013.519-6.761c-2.6 5.72-4.03 11.049-5.33 18.719a74.825 74.825 0 01-22.232 40.302z" data-name="パス 335"/><path fill="#35200c" d="M63.759 111.468c-1.4-35.411-8.066-58.8-26.6-76.339-5.866-5.549-10.574-11.099-12.566-17.486-7.749 29.477.575 81.626 31.048 104.873a76.9 76.9 0 01-1.937-9.791 30.317 30.317 0 006.6 4.713 141.657 141.657 0 01-1.674-14.346c1.463 2.408 2.93 5.129 5.129 8.376z" data-name="パス 336"/><path fill="#35200c" d="M148.523 133.078c21.007-22.9 56.873-32.454 84.528-27.332 20.5 3.8 27.966 5.441 33.407 6.074-23.536 25.308-83.9 35.305-111.1 31.382a26.6 26.6 0 007.467-3.543 40.123 40.123 0 00-8.6-1.771c2.531-1.9 5.82-4.05 8.731-6.454a56.1 56.1 0 00-14.433 1.644z" data-name="パス 337"/><path fill="#d38b00" d="M48.074 255.02c-10.123-1.812-29.622-1.811-36.762 3.622-3.624-2.557-9.059-.427-10.124 4.155s4.637 12.532 13.96 15.985c8.631 3.2 23.763 4.9 30.689 5.327-5.753 2.344-5.434 11.722 4.263 17.263s28.877 9.271 51.042 0c4.688 9.91 19.073 21.417 30.582 20.991 2.023 6.607 14.171 20.035 23.122 16.624 2.771.214 4.368-.425 5.114-2.557 2.239.426 5.754-.32.853-10.017a10.329 10.329 0 004.582.427c3.2 11.4 15.665 27.492 22.7 22.377 2.344.746 4.474-1.278 4.9-2.45 2.131 1.065 4.266-.96 3.942-5.221-.958-12.679-5.86-31.434-17.795-41.984-2.13-11.614-6.818-32.178-14.7-43.687z" data-name="パス 338"/><path fill="#fff1ac" d="M50.45 205.724c-7.134 2.61-20.27 10.7-22.358 25.227 1.915-.87 5.135-2.608 7.744-2.087-3.046 5.306-5.829 11.829-2.785 22.7a31.16 31.16 0 014.263-4.175 30.289 30.289 0 002.175 6.7c2.436.088 5.915.524 8.351.872.434 3.3 1.391 7.655 4.436 10.525a17.166 17.166 0 002.611-4.261c.957 6.7 4.349 13.657 8.438 15.918a22.263 22.263 0 001.74-5.132 65.113 65.113 0 004.456 7.109c3.306-.782 12.506-3.2 15.289-3.455a33.057 33.057 0 014.7-2.175 14.679 14.679 0 01-1.914 4.611c6.872-1.132 17.746-5.74 20.964-13.57l.957 3.131 3.74-4.089c2.089 6.525 9.569 13.136 15.137 14.353a49.626 49.626 0 01.262-6.35c4.349 5.046 11.482 11.308 18.355 12.352a53.893 53.893 0 01.348-13.048c1.74-.262 4.785.608 7.22 2.174 3.131-3.653 3.133-8.352 2.785-13.222a16.081 16.081 0 007.306 1.132 22.757 22.757 0 00-1.739-10.873 24.988 24.988 0 006.35 2.784c-.087-5.829-1.741-14.874-5.395-20.094a27.272 27.272 0 0112.788 1.652c-2.436-8.612-7.047-16.267-16.7-20.094 1.306-1.3 4.351-2.523 8.091-2.957-2.957-6.09-10.178-13.919-24.009-11.222-6.612 12.439-27.464 24.144-47.1 23.672s-32.538-6.842-46.506-18.108z" data-name="パス 339"/><path fill="#922f00" d="M68.321 189.435c.441 2.544 1.665 8.854 3.817 12.719 1.566-3.668 6.9-10.763 13.748-10.323-2.2-1.859-6.555-5.321-11.008-3.62a20.322 20.322 0 01-6.557 1.224z" data-name="パス 340"/><path fill="#ed8599" d="M93.709 196.393a21.042 21.042 0 01-7.823-4.561c-4.115-.1-10.556 1.735-13.8 10.793 1.2 2.2 4.346 6.6 7.592 6.649s11.36-4.136 14.031-12.881z" data-name="パス 341"/><path fill="#dcd096" d="M58.239 211.728c7.337 17.952 40.274 25.913 58.85 9.054-20.292 6.872-41.991 1.717-58.85-9.054z" data-name="パス 342"/><path fill="#dcd096" d="M42.276 235.944c-1.64.386-2.988 1.445-4.436 3.47a28.436 28.436 0 012.025-16.39 19.783 19.783 0 00-6.46 1.542 55.659 55.659 0 012.6-9.257c-4.27 4.26-7.07 11.429-8.025 15.662a22.223 22.223 0 017.784-2.458c-3.142 4.644-5.6 15.977-2.391 22.669a33.359 33.359 0 014.234-3.892 14.79 14.79 0 001.912 7.1 53.4 53.4 0 018.194.546c0-2.458.2-6.827.546-10.173a22.219 22.219 0 00-6.213 7.032 39.056 39.056 0 01.23-15.851z" data-name="パス 343"/><path fill="#dcd096" d="M83.238 276.19c3.8-2.159 4.5-1.856 6.414-2.566a18.026 18.026 0 01-2.278 4.79c10.21-2.827 17.985-6.832 21.284-13.587l.864 2.671c5.576-4.87 6.99-9.66 7.7-15.08a15.618 15.618 0 004.005 4.791c3.613-6.6 2.356-17.985.84-23.12-.363 7.515-2.181 10.665-3.757 14.06a13.14 13.14 0 00-3.759-6.726c0 5.969-2.748 13.665-4.948 16.022.079-2.435-.707-4.948-1.649-8.325-2.2 7.3-8.561 15.158-15.158 19.713a10.325 10.325 0 00.393-6.047c-5.1 4.4-14.843 10.21-20.342 11.466-3.77-4.4-7.382-12.251-8.717-18.692a13.055 13.055 0 01-2.592 4.79 35.172 35.172 0 01-2.674-17.121c-1.413 1.963-4.476 4.163-6.44 5.733a42.442 42.442 0 01-.314-13.744 12.206 12.206 0 00-5.5 3.691c-.314-3.691.392-8.089 2.355-13.43-5.519 5.881-9.038 15.014-6.779 25.994a27.836 27.836 0 016.212-6.84c-.878 10.98-.187 16.692 3.765 21.335a17.5 17.5 0 002.573-4.519c1.443 8.221 4.831 12.99 8.471 15.562a33.109 33.109 0 001.945-4.894 28.782 28.782 0 004.051 7c2.734-.537 11.104-2.733 14.035-2.927z" data-name="パス 344"/><path fill="#dcd096" d="M120.726 257.34a20.284 20.284 0 002.932 7.748 40.436 40.436 0 011.992-7.011c2.095 4.712 7.437 9.633 12.044 11.1a16.077 16.077 0 012.3-7.644 17.569 17.569 0 018.378 3.561 29 29 0 00.419-13.928 31.236 31.236 0 007.958 2.931 42.084 42.084 0 00-2.094-12.46c1.885.629 5.549 1.362 6.806 2.513-.522-4.294-1.885-12.043-6.283-18.745 4.451.314 8.274.838 11.52 2.409-.157-4.294-1.414-8.064-5.969-13.194 7.435 2.931 13.718 10.263 15.6 19.373-3.77-1.152-8.379-2.093-12.357-1.256 2.933 5.34 5.34 13.507 5.34 19.685a23.662 23.662 0 01-6.7-2.513 18.827 18.827 0 011.989 10.89 28.2 28.2 0 01-7.434-1.047c.942 4.4.417 9.424-2.619 13.089-1.78-1.047-4.607-2.3-6.806-1.989-.838 3.038-.944 9.215-.734 12.984-5.446-1.151-11.727-4.712-18.43-12.251a32.512 32.512 0 00.1 6.388c-4.084-.524-11.309-5.761-15.393-14.242 1.675-2.828 3.771-7.646 3.98-11.623a18.14 18.14 0 003.461 5.232z" data-name="パス 345"/><path fill="#ac7200" d="M168.893 253.02c12.118 17.852 68.217 16.277 92.821.727-23.03 27.559-67.058 35.322-87.164 26.316-1.675-6.282-5.341-16.962-9.739-23.769a18.483 18.483 0 00-2.2-6.388 33.37 33.37 0 006.282 3.114z" data-name="パス 346"/><path fill="#ac7200" d="M147.323 272c1.431 16.441 10.473 36.233 24.714 42.1 3.662 1.508 5.026-1.518 8.953.838 5.958 3.575 12.583 11.237 15.969 25.656-.038 2.871-.42 6.6-3.77 6.283a4.4 4.4 0 01-5.026 2.093c-1.885 1.677-4.818 1.782-8.8-.837s-9.843-10.995-13.927-21.258c-10.366.21-25.13-11.308-35.08-29.739a86.393 86.393 0 01-18.012-1.256c-11.1 7.434-29.948 11.623-39.059 11.414s-31.52-4.293-31.311-18.325a2.471 2.471 0 004.5-.105c1.675 2.513 5.969 2.619 7.644.105 7.33 7.12 37.488 2.512 38.64-12.253 5.235-1.256 13.666-6.178 15.891-11.885l.864 2.671a21.361 21.361 0 003.77-3.77c3.141 6.6 8.692 12.358 15.393 14.242a28.672 28.672 0 010-6.7c3.874 4.816 10.366 11.1 18.325 12.566a40.635 40.635 0 01.322-11.84z" data-name="パス 347"/><path fill="#ac7200" d="M2.291 260.376c-.314 5.761 5.445 7.644 8.9 4.084.542 2.53 3.89 3.657 6.143 2.776a1.855 1.855 0 011.878 0c9.566 5.8 28.648 7.291 38.891 4.553a15.06 15.06 0 005.34 5.34 27.876 27.876 0 001.709-5.013 63.713 63.713 0 004.051 7.42c-2.513.943-7.854 2.411-9.739 3.562-2.723-1.362-7.54-.315-9.215.837a5.377 5.377 0 00-4.922.314c-9.53-.942-21.362-2.3-31.52-6.177-9.811-3.74-15.286-12.775-11.516-17.696z" data-name="パス 348"/><path fill="#ac7200" d="M130.648 297.028a122.283 122.283 0 01-18.535-1.1 107.867 107.867 0 01-10.916 5.5c5.655 11.624 21.912 21.99 30.708 20.891 1.885 7.7 16.022 20.891 22.855 16.572 2.2.785 5.183-.629 5.419-2.592 2.278 1.256 5.34-1.1 1.021-9.817-9.347-2.278-24.113-15.478-30.552-29.454z" data-name="パス 349"/><path fill="#ce725f" d="M8.154 274.932c0-2.409 3.789-3.287 7.645-1.466 3.771 1.78 6.178 3.665 4.5 6.911a47.32 47.32 0 01-12.145-5.445z" data-name="パス 350"/><path fill="#ce725f" d="M52.555 302.472c-.524-3.246 4.606-3.664 7.33-2.722s7.121 2.513 5.655 6.6c-3.035-.527-9.844-2.203-12.985-3.878z" data-name="パス 351"/><path fill="#ce7486" d="M74.39 198.156a13.76 13.76 0 0114.861 6.067 17.406 17.406 0 004.5-7.7 20.828 20.828 0 01-8.045-4.773c-2.658-.275-8.453 1.976-11.316 6.406z" data-name="パス 352"/><path fill="#0d131a" d="M154.497 148.906c3.068 23.6-3.131 44.079-17.834 58.117-13.292 12.689-31.154 17.852-49.585 14.521-27.185-4.918-46.878-22.908-47.849-37.755-.232-3.549 1.429-6.144 3.127-8.746 3.359-5.145 4.352-12.519 5.487-18.145 1.99-9.868 3.455-19.773 9.2-28.155.984-1.435.047-2.16-1.124-.876-6.715 7.373-8.285 17.95-10.547 28.6-1.016 4.782-2.387 12.82-5.242 17.357-1.69 2.684-3.894 6.169-3.586 10.16 1.277 16.52 21.772 35.156 50.044 40.27a59.66 59.66 0 0051.731-15.393c15.969-15.185 22.1-35.919 18.483-60z" data-name="パス 353"/><path fill="#0d131a" d="M78.479 110.514a40.536 40.536 0 00-10.053 6.028c-1.369 1.151-.71 2.143.793 1.183a57.788 57.788 0 019.71-5.071z" data-name="パス 354"/><path fill="#0d131a" d="M146.434 126.051c-2.228-4.423-8.273-7.671-13.35-10.04s-9.661-5.432-12.508-10.262c-.548-.932-1.1-.958-1.591.138a14.084 14.084 0 00-.7 5.028c-2.779-2.253-5.02-5.6-7-9.831-.509-1.089-1.246-1.238-1.7-.027a20.64 20.64 0 00-1.374 6.362 43.517 43.517 0 01-6.185-10.877c-.417-1.031-1.328-1.212-1.767.157a28.565 28.565 0 00-1.406 10.4c-3.662-3.006-6.407-7.228-8.8-12.955-.538-1.275-1.189-1.362-1.806.1a30.358 30.358 0 00-1.65 14.372 64.142 64.142 0 00-9.179-7.109c-1.511-1-1.984-.157-1.635 1.1a88.77 88.77 0 012.542 11.767c.319 2.075 1.54 1.953 1.411-.2a50.334 50.334 0 00-1.323-9.371 71.479 71.479 0 018.635 6.476c1.251 1.1 1.666.91 1.453-.786a30.388 30.388 0 01.915-13.13c2.681 5.8 5.822 9.73 9.9 12.6 1.154.813 1.6.55 1.492-.786a25.674 25.674 0 01.69-9.317 45.278 45.278 0 006.909 10.475c1.048 1.22 1.494.588 1.413-.412a15.2 15.2 0 01.786-5.938 25.238 25.238 0 008.238 9.585c1.129.753 1.389.413 1.251-.683a14.166 14.166 0 01.173-4.373c2.688 4.1 6.833 7 11.524 9.334 5.246 2.607 10.81 5.946 12.761 10.315z" data-name="パス 355"/><path fill="#0d131a" d="M72.563 140.788a15.95 15.95 0 011.584 6.527c.007 1.63 1.077 1.659 1.424.066a8.883 8.883 0 00-1.768-7.294c-.857-1.028-1.83-.499-1.24.701z" data-name="パス 356"/><path fill="#0d131a" d="M76.462 180.723c.253-.91 4.569.226 4.516.765-.076.766-1.882 1.394-2.649 1.318s-2.059-1.399-1.867-2.083z" data-name="パス 357"/><path fill="#0d131a" d="M116.5 149.208a11.418 11.418 0 00-5.869 6.755c-.455 1.394.544 1.886 1.283.618a23.948 23.948 0 015.44-6.234c1.067-.905.435-1.728-.854-1.139z" data-name="パス 358"/><path fill="#0d131a" d="M62.914 187.116c2.116 3.69 5.335 3.739 10.068 2.335 5.666-1.677 7.568-.684 13.267 3.934 6.239 5.058 10.392 4.685 13.239 2.381 1.313-1.064.515-1.949-.932-1.077-3.014 1.811-6.156 1.5-11.156-2.666-6.222-5.178-7.451-6.393-14.85-4.2-4.414 1.306-6.48 1.178-8.418-1.448-.889-1.203-1.962-.557-1.218.741z" data-name="パス 359"/><path fill="#0d131a" d="M67.51 189.542c1.956 11.747 5.647 18.816 10.647 20.351 4.325 1.328 13.291-3.924 16.5-13.06l-1.865-.55c-3.037 8.644-10.961 13.12-14.187 12.1-3.991-1.256-7.332-8.195-9.091-19.007z" data-name="パス 360"/><path fill="#0d131a" d="M72.671 203.017c2.219-6.059 7.47-10.652 13.954-10.524l-1.675-1.447c-5.788.152-10.839 4.01-13.1 10.179z" data-name="パス 361"/><path fill="#0d131a" d="M58.444 217.151c-12.146 5.187-21.021 17.753-17.409 34.5.3 1.384 1.047 1.728 2 .255a27.763 27.763 0 014.311-5.429c-.961 5.285-.489 15.138 4.091 20.085.5.541.858.552 1.4 0 2.332-2.33 3.742-6.213 4.256-9.828.279-1.959-.959-2.242-1.392-.309a20.109 20.109 0 01-3.524 7.867c-4.141-5.539-3.9-15.505-2.974-19.536.266-1.174-.267-1.574-1.322-.867a19.908 19.908 0 00-5.4 5.564c-1.7-13.568 5.93-24.759 16.584-31.024 1.566-.916 1.144-2.032-.621-1.278z" data-name="パス 362"/><path fill="#0d131a" d="M81.457 276.398c4.084-2.492 5.275-3.055 7.861-3.809 1.251-.366 1.58-.1 1.227 1.161a18.049 18.049 0 01-1.161 2.879c8.273-1.67 16.995-7.979 18.827-13.9l.681 3.351c-2.573 5.856-13.4 12.2-21.493 12.957-1.325.124-1.491-.245-.826-1.273a14.652 14.652 0 001.405-2.657 15.448 15.448 0 00-2.96 1.183z" data-name="パス 363"/><path fill="#0d131a" d="M68.526 280.127a41.2 41.2 0 01-3.317-5.937 18.633 18.633 0 01-1.076 3.421c-.334.62-.643.709-1.408.282-4.7-2.594-7.844-9.459-8.514-15.2l1.379-3.207c.21 6.493 3.205 13.274 7.275 16.084a25.076 25.076 0 001.417-3.95c.305-1.056 1.13-.995 1.531-.039a42.759 42.759 0 004.768 8.1z" data-name="パス 364"/><path fill="#0d131a" d="M116.432 252.222a19.457 19.457 0 01-6.489 13.413 20.719 20.719 0 01-.993-5.748c0-1.891-1.244-1.882-1.426 0a20.285 20.285 0 001.068 8.092c.343.9.731.9 1.489.275a22.393 22.393 0 007.664-13.284 13.443 13.443 0 002.654 3.457c.582.5.818.4 1.3-.275 5.314-7.514 4.058-26.363-4.419-37.974l-2.631.864c7.109 8.195 10.076 26.654 6.028 34.792a14.623 14.623 0 01-2.592-3.77c-.829-1.602-1.529-1.098-1.653.158z" data-name="パス 365"/><path fill="#0d131a" d="M158.109 260.009c1.2 5.184-.076 10.937-2.723 13.824a.911.911 0 01-1.361.1 13.979 13.979 0 00-5.864-2.355c-.748 2.551-.451 8.99-.053 12.462.105.913-.386 1.05-1.047.942-5.787-.92-12.959-5.393-17.75-11.283.015 1.492.236 2.984.367 4.738.053.725-.268 1.044-1.1.786a27.431 27.431 0 01-16.179-14.608l1.362-2.146c2.39 6.188 7.9 12.042 13.823 13.98a29.834 29.834 0 01.21-5.183c.142-1.28.863-1.386 1.675-.419 5.419 6.466 10.724 10.41 16.414 11.649a39.883 39.883 0 01.76-11.912c.124-.475.274-.725 1.151-.681a16.2 16.2 0 016.44 1.834c2.387-3.036 2.943-7.78 2.174-12.259z" data-name="パス 366"/><path fill="#0d131a" d="M161.482 248.995a21.308 21.308 0 012.18 10.963 16.277 16.277 0 01-7.927-1.787c-1.437-.725-2.057.238-.768 1.2a15.519 15.519 0 009.8 2.671.9.9 0 001.007-.919 20.3 20.3 0 00-3.076-12.873c-1.135-1.685-2.011-.846-1.216.745z" data-name="パス 367"/><path fill="#0d131a" d="M143.606 201.408c12.044-3.193 20.495 4.561 22.737 9.248a15.507 15.507 0 00-6.715 2.926c-.948.7-.71 1.247.236 1.571 8.247 2.814 13.37 11.321 15.2 17.793a30.11 30.11 0 00-11.249-1.078c-1.17.131-1.229.494-.732 1.309 3.459 5.668 4.995 13.689 5.131 18.326a17.3 17.3 0 01-5.776-2.767l.806 2.36a18.645 18.645 0 005.809 2.756c.974.2 1.2-.026 1.2-.962 0-4.373-1.167-13.475-5.251-19.562 4.005-.235 7.562.817 11.265 1.939 1.257.381 1.395-.088 1.166-1.251-1.23-6.257-5.864-16.31-16.074-19.844a20.607 20.607 0 016.7-1.865c.9-.119 1.032-.5.786-1.2-2.245-6.336-12.336-14.778-24.17-11.9z" data-name="パス 368"/><path fill="#0d131a" d="M174.498 281.687c20.753 6.819 45.016 3.53 66.286-9.164 22.986-13.718 37.339-33.6 40.912-54.446 1.223-7.14 2.117-13.005 5.321-19.222 1.106-2.141.587-2.743-1.414-1.336a73.487 73.487 0 01-11.519 6.224 55.225 55.225 0 013.822-7.559c1.272-2.189.664-2.626-1.531-1.06-8.757 6.243-17.847 4.1-27.656-.446-28.664-13.272-69.406-6.581-82.7 13.6l1.38 2.247c11.685-18.793 51.7-27.167 80.4-13.876 11.226 5.2 20.686 5.51 26.969 1.5a27.692 27.692 0 00-3.3 7.422c-.279 1.068.2 1.249 1.138.863a80.574 80.574 0 0011.1-5.348c-2.365 5.149-3.319 10.377-4.38 16.559-3.5 20.436-18.3 39.709-39.846 52.365-21.284 12.5-45.267 15.324-65.814 8.273z" data-name="パス 369"/><path fill="#0d131a" d="M40.596 253.927a14.534 14.534 0 01-2.441-6.483c-.135-.953-.445-1.268-1.465-.629a12.739 12.739 0 00-2.933 2.671c-1.728-5.812-1.78-12.3 2.671-20.316.565-1.02.268-1.571-.943-1.466a24.133 24.133 0 00-5.578 1.313c2.154-11.366 13.9-19.955 22.385-22.518l-2.042-1.571c-8.825 3.166-20.839 11.833-23.113 25.907-.227 1.406.36 1.69 1.671.927a16.736 16.736 0 015.728-2.15 25.686 25.686 0 00-2.141 22.02c.418 1.242.9 1.371 1.675.261a13.594 13.594 0 012.733-3.156 13.44 13.44 0 001.822 5.2z" data-name="パス 370"/><path fill="#0d131a" d="M47.79 282.969c-8.4-.629-18.378-2.121-24.268-3.1-12.739-2.123-21.386-9.76-21.4-15.354-.011-5.076 4.78-7.159 8.712-5.028a.715.715 0 00.771-.057c7.818-5.924 29.429-4.447 36.615-3.163v-2.344c-7.267-1.3-28.731-2.208-37.138 3.73-3.9-1.812-11.1-.666-11.081 6.9.019 7.056 10.79 15.2 23.13 17.357 6.518 1.139 13.744 2.317 21.284 3.181z" data-name="パス 371"/><path fill="#0d131a" d="M10.65 263.615c-.97 1.661-.458 4.742 1.181 6.364.98.97 1.827.41 1.175-.808-.985-1.844-1.324-3.41-.643-4.574.714-1.216 2.313-1.811 4.551-1.652 1.516.108 1.611-1.079.129-1.418-2.481-.57-5.307.23-6.393 2.088z" data-name="パス 372"/><path fill="#0d131a" d="M20.969 280.658a3.359 3.359 0 00.365-4.372c-2.24-3.329-8.654-5.751-12.361-4.189a2.393 2.393 0 00-1.442 2.7l1.763.595a1.328 1.328 0 01.435-1.695c3.286-1.351 8.682 1.108 10.071 3.526.5.868.443 1.713-.709 2.655z" data-name="パス 373"/><path fill="#0d131a" d="M61.535 283.244a83.884 83.884 0 0126.978-6.7l.275-2.3c-10.008.643-20.419 4.031-27.841 7.206-6.758 2.89-8.861 6.407-7.117 10.712.62 1.532 1.683 1.243 1.375-.376-.795-4.132.93-6.053 6.33-8.542z" data-name="パス 374"/><path fill="#0d131a" d="M60.631 282.302c-4.791-1.767-11.27-.118-13.862 3.3a6.561 6.561 0 00-.211 7.344c.751 1.281 1.656.761 1.256-.67-.692-2.473-.308-4.232.6-5.417 2.226-2.9 6.333-3.86 9.974-3.221z" data-name="パス 375"/><path fill="#0d131a" d="M51.099 283.348c-4.326-1.871-10.14.057-10.06 7.71.1 9.948 18.6 18.207 36.618 16.9 17.707-1.28 41.71-10.831 46.827-22.584.772-1.773-.255-2.257-1.284-.618-6.975 11.116-28.792 19.8-45.759 21.024-18.622 1.346-34.2-7.379-34.371-14.666-.124-5.279 3.512-7.63 6.6-6.539z" data-name="パス 376"/><path fill="#0d131a" d="M66.457 306.581a4.162 4.162 0 00-.714-4.58c-2.481-2.921-8.553-4.5-12.015-3.029a3.4 3.4 0 00-2.142 2.931l1.7.615a1.683 1.683 0 011.11-1.954c2.686-1.141 8.059.283 10.042 2.619a2.259 2.259 0 01.149 3.053z" data-name="パス 377"/><path fill="#0d131a" d="M110.452 297.118c8.912 1.061 20.273 1.637 30.253-.452 2.257-.472 2.061-1.712-.221-1.409a104.82 104.82 0 01-27.224-.146z" data-name="パス 378"/><path fill="#0d131a" d="M99.936 301.724c5.6 10.415 22.7 26.482 37.164 20.235 1.689-.729 1.185-1.916-.55-1.313-12.5 4.341-29.152-9.645-34.706-19.849z" data-name="パス 379"/><path fill="#0d131a" d="M129.096 296.949c7.52 14.843 23.122 30.432 34.419 30.944a9.219 9.219 0 009.1-5.161c.768-1.69-.033-2.187-1.205-.761-1.963 2.388-4.281 4.031-7.617 3.88-10.482-.474-25.132-15.079-32.4-29.059z" data-name="パス 380"/><path fill="#0d131a" d="M164.612 258.367c6.416 10.434 11.525 31.341 14.866 47.373.518 2.5 1.718 2.242 1.394-.289-2.162-16.906-7.974-40.624-16.692-52.129z" data-name="パス 381"/><path fill="#0d131a" d="M67.871 143.487c-4.754-1.094-11.5 6.195-14.136 16.334-2.735 10.517-.03 16.4 3.613 17.435 4.349 1.247 10.055-2.162 12.88-13.194 2.741-10.735 1.178-19.762-2.357-20.575z" data-name="パス 382"/><path fill="#0d131a" d="M125.506 155.32c-6.008-1.456-12.4 5.759-15.224 16.125-2.53 9.28-.943 18.221 4.4 19.949 6.68 2.163 12.7-4.079 15.55-14.137 2.983-10.527.536-20.663-4.726-21.937z" data-name="パス 383"/><path fill="#0d131a" d="M154.462 338.394c-1.161.782-2.707.846-4.73.279-6.446-1.805-14.822-9.958-17.153-16.357l-2.04.152c3.249 8.332 11.682 16.067 18.76 18.051 2.762.773 5.616.216 7.029-1.434z" data-name="パス 384"/><path fill="#0d131a" d="M159.362 335.905a2.76 2.76 0 01-2.663 2.1 5.6 5.6 0 01-5.349-2.871c-.8-1.438-1.871-.913-1.286.616a6.671 6.671 0 006.763 4.125 4.491 4.491 0 004.3-3.354z" data-name="パス 385"/><path fill="#0d131a" d="M159.432 326.244c2.552 3.822 3.557 8.309 2.278 8.993-1.5.8-4.491-.825-6.027-4.312-.693-1.575-1.8-1.168-1.352.452 1.37 4.921 6.1 6.87 8.282 5.706 2.093-1.118 2.159-4.908-.786-10.563z" data-name="パス 386"/><path fill="#0d131a" d="M187.483 348.652a5.888 5.888 0 01-5 .014c-6.476-2.441-12.922-12.784-16.219-22.128l-1.885.392c3.279 9.433 10.216 20.806 17.475 23.542 2.468.931 5.89.693 7.815-1.217z" data-name="パス 387"/><path fill="#0d131a" d="M192.299 346.192a3.428 3.428 0 01-3.562 1.937c-2.273-.352-4.4-2.356-5.9-6.136-.595-1.5-1.64-1.093-1.337.491.85 4.44 4.1 7.106 6.922 7.53a5.741 5.741 0 005.6-2.722z" data-name="パス 388"/><path fill="#0d131a" d="M178.949 300.09c10.916 10.053 17.824 34.725 16.767 43.51-.244 2.032-1.519 2.707-2.572 2.121-1.849-1.03-3.043-2.435-3.986-6.1-.463-1.8-1.618-1.634-1.409.215.388 3.414 2.194 6.516 4.491 7.556 1.583.719 5.033.719 5.478-3.4 1.1-10.21-7.3-39.033-19.4-46.757z" data-name="パス 389"/><path fill="#0d131a" d="M71.744 115.33c-.4-42.989-8.247-67.424-30.748-88.61-7.509-7.07-12.527-16.513-15.183-25.9-.294-1.041-1.047-1.075-1.644-.217C12.448 17.43 9.596 44.094 15.53 70.462c5.988 26.606 19.85 49.224 38.542 61.5l1.041-1.669C37.176 117.819 24.1 96.029 18.2 69.819c-5.273-23.423-3.553-49.794 6.55-66.485a51.03 51.03 0 0014.735 25.133c20.579 19.392 29.615 47.293 30.335 88z" data-name="パス 390"/><path fill="#0d131a" d="M59.386 105.736a30.451 30.451 0 006.231 9.12c1.323 1.246 2 .56.808-.808a57.355 57.355 0 01-7.116-11.662c-.667-1.426-1.591-1.078-1.637.434a56.814 56.814 0 001.678 13.256 19.2 19.2 0 01-5.193-4.444c-.762-.97-1.695-.96-1.5.775a37.042 37.042 0 003.477 13.234c.8 1.568 1.548.875 1.1-.5a47.355 47.355 0 01-2.23-9.918 18.463 18.463 0 005.483 3.654c.917.376 1.234 0 1.036-.8a81.074 81.074 0 01-2.137-12.341z" data-name="パス 391"/><path fill="#0d131a" d="M64.499 112.778c-.215-39.033-10.19-65.658-30.748-82.425-3.632-2.964-6.968-8.814-8.521-12.979-.531-1.427-1.264-.978-1.492.039-10.5 46.829 8.816 88.924 32.377 106.6l-.825-2.591c-26.506-24.033-36.874-66.443-30.511-101.4a33.21 33.21 0 007.637 11.692c19.536 17.455 29.118 41.409 30.571 78.5z" data-name="パス 392"/><path fill="#0d131a" d="M140.582 131.731c-1.261 1.763-.23 2.535 1.139.858 29.373-35.99 75.89-38.683 108.725-29.448a122.091 122.091 0 0028.884 4.261c-28.912 30.508-74.621 45.221-130.995 40.115-2.067-.186-2.208 1.139-.15 1.417 56.734 7.667 105.06-8.511 134.052-41.876.658-.758.5-1.506-.64-1.506-8.641 0-20.248-1.963-30.353-4.807-33.267-9.355-83.134-7.444-110.662 30.986z" data-name="パス 393"/><path fill="#0d131a" d="M150.66 145.427c3.339-.658 10.145-2.83 13.155-4.742 1.064-.675.97-1.239-.052-1.622a28.406 28.406 0 00-7.5-1.706c2.214-1.708 5.336-3.813 8.05-5.507 1.182-.741.849-1.529-.441-1.52-5.633.04-13.67.9-19.587 3.716-1.563.744-1.031 1.688.6 1.115a60.071 60.071 0 0115.538-2.881 72.466 72.466 0 00-7.235 5.268c-1.138 1.017-.571 1.441.523 1.441a23.143 23.143 0 017.295 1.115 65.955 65.955 0 01-10.7 4.147c-1.317.37-1.065 1.455.354 1.176z" data-name="パス 394"/><path fill="#0d131a" d="M153.501 143.825c44.61 5.864 97.177-12.46 113.858-31.3.648-.731.624-1.326-.575-1.407-4.522-.311-14.833-2.758-20.1-3.959-40.284-9.2-74.52-.64-100.018 26.585l2.872-.885c26.408-24.594 56.856-32.345 96.733-23.8 4.755 1.02 14.571 3 18.775 3.434-18.56 17.5-66.52 33.315-108.305 30.338z" data-name="パス 395"/><path fill="#543823" d="M31.265 70.756c2.65 5.93 7.4 13.395 12.007 17.067a33.345 33.345 0 01-3.169-14.283c1.447 4.123 7.069 13.194 12.414 17.127.613-4.6-.79-13.672-4.4-20.9 2.564 1.9 8.025 8.794 8.989 11.542-.264-7.257-.689-14.123-4.875-21.817-5.374-9.877-20.141-19.5-26.1-30.565-.411 1.619-3.04 16.594-1.622 28.783 1.665 14.16 4.636 24.453 11.265 26.954a31.92 31.92 0 01-4.509-13.908z" data-name="パス 396"/><path fill="#543823" d="M254.667 114.851c-22.949-1.338-36.913-11.938-54.641-7.372-6.246 1.609-12.668 5.27-14.58 8.6 3.886-2.026 9.988-2.5 12.425-2.4-5.378 2.257-13.42 8.093-15.3 10.443 6.207-1.592 14.954-2.692 17.9-2.039-6.2 4.6-13.838 7.592-18.948 8.064 7.241 2.527 20.292 2.573 26.1.092a21.231 21.231 0 01-13.58 6.535c6.321 2.952 15.453 1.361 22.307-.669 13.914-4.131 31.052-12.717 38.317-21.254z" data-name="パス 397"/><path fill="#5c2b0d" d="M65.94 170.691c-2.505 5.018-6 5.84-8.089 5.183-2.491-.782-4.114-3.83-3.77-9.11.123-1.881 3.512-5.285 7.693-3.973s5.241 5.75 4.166 7.9z" data-name="パス 398"/><path fill="#0d131a" d="M65.521 149.796c1.937.594 2.594 5.892.62 12.6s-4.926 10.234-6.849 9.645c-2.45-.752-3.008-6.239-1.432-11.6 2.45-8.321 5.9-11.183 7.661-10.645z" data-name="パス 399"/><path fill="#5c2b0d" d="M124.766 185.063c-1.975 4.061-6.251 6-9.089 5.14-3.6-1.087-5.237-5.47-4.743-9.459.232-1.871 4.235-5.071 8.43-3.8s6.453 5.958 5.402 8.119z" data-name="パス 400"/><path fill="#0d131a" d="M123.558 162.119c2.282.642 3.308 6.4 1.343 13.689s-5.225 11.125-7.49 10.488c-2.887-.813-3.807-6.773-2.238-12.6 2.44-9.049 6.313-12.163 8.385-11.577z" data-name="パス 401"/><path fill="#fff" d="M67.277 146.287c-1.406-.458-3.561 1.627-4.4 4.509-.908 3.136.4 5.7 1.694 6.062 1.429.4 3.242-1.6 4.03-4.97.669-2.878-.026-5.186-1.324-5.601z" data-name="パス 402"/><path fill="#fff" d="M124.313 157.949c-1.58-.373-3.946 1.695-4.8 4.854-1.038 3.8.117 6.786 1.861 7.108 1.583.292 3.885-1.245 4.781-4.276 1.258-4.296-.325-7.333-1.842-7.686z" data-name="パス 403"/></svg>