<svg version="1.0" xmlns="http://www.w3.org/2000/svg"
  viewBox="0 0 1199.406545 1158.753600"
 preserveAspectRatio="xMidYMid meet">
<metadata>
For more coloring pages, please visit ColoringAll.com
</metadata>
<g transform="translate(-1.000000,1158.899637) scale(0.100000,-0.100000)"
fill="#000000" stroke="none">
<path d="M3215 11579 c-223 -17 -501 -73 -717 -146 -389 -129 -772 -395 -967
-673 -144 -205 -241 -497 -241 -724 0 -109 25 -272 46 -304 15 -23 16 -23 35
-6 10 9 40 45 65 80 134 182 307 218 1099 232 1161 21 1902 -53 2695 -270 389
-106 655 -217 821 -342 104 -78 359 -303 359 -317 0 -16 -24 -10 -201 52 -969
340 -1603 427 -2379 328 -559 -71 -999 -211 -1359 -434 -100 -62 -343 -235
-383 -273 -63 -58 -68 -59 437 53 598 133 738 153 1110 162 318 7 595 -11 990
-68 218 -31 451 -80 862 -183 208 -52 484 -120 613 -151 129 -30 253 -63 275
-73 51 -22 150 -122 194 -196 75 -126 61 -212 -74 -442 -31 -52 -63 -98 -71
-101 -8 -3 -35 9 -59 26 -91 65 -151 86 -250 86 -81 0 -95 -3 -143 -30 -115
-63 -210 -228 -258 -450 -21 -96 -21 -322 1 -450 30 -178 103 -374 212 -568
78 -139 142 -218 428 -527 221 -239 290 -320 421 -496 296 -399 531 -618 1003
-933 99 -66 182 -124 185 -130 7 -11 -11 -17 -82 -26 -39 -5 -57 -13 -72 -32
-30 -39 -50 -118 -50 -202 l-1 -76 -172 -82 c-261 -124 -279 -128 -532 -127
-245 2 -295 12 -484 95 -165 72 -611 294 -773 383 l-136 76 -27 73 c-163 433
-288 712 -437 972 -144 252 -150 271 -163 482 l-7 113 75 127 c250 427 319
673 321 1143 1 232 -7 291 -40 304 -40 15 -106 -62 -179 -209 -100 -202 -154
-380 -210 -690 -36 -202 -28 -197 -85 -45 -15 41 -55 144 -89 228 -35 88 -61
168 -61 188 0 20 20 114 44 208 87 336 96 415 96 874 0 312 -2 357 -19 424
-23 90 -57 158 -106 212 l-35 39 -25 -23 c-52 -49 -124 -278 -167 -530 -27
-157 -28 -440 -4 -631 13 -105 64 -335 82 -374 14 -27 -68 74 -156 195 -138
191 -207 296 -290 445 -132 236 -252 407 -420 593 -158 176 -309 299 -452 367
-82 40 -122 44 -138 16 -43 -80 49 -298 222 -529 92 -123 290 -327 389 -401
80 -61 247 -150 366 -196 40 -15 87 -42 104 -59 34 -32 272 -386 330 -490 18
-33 26 -56 18 -51 -7 5 -68 45 -134 90 -144 99 -263 169 -405 237 -266 128
-618 238 -765 238 -122 0 -126 -38 -17 -151 153 -161 380 -332 533 -403 91
-42 282 -109 409 -142 74 -20 140 -28 298 -37 l204 -12 59 -155 c62 -160 104
-301 138 -454 l19 -88 -31 28 c-18 16 -70 65 -117 109 -277 261 -549 425 -895
541 -218 72 -332 78 -371 19 -23 -35 -5 -80 60 -153 166 -186 438 -386 725
-531 219 -111 374 -158 554 -168 l107 -6 0 -87 c0 -48 3 -129 6 -181 l7 -94
-99 96 c-170 163 -283 235 -451 285 -131 39 -339 44 -563 14 -288 -39 -704
-39 -845 1 -53 15 -84 51 -183 211 -46 73 -122 188 -169 253 -47 66 -94 137
-104 158 -11 21 -28 95 -39 170 -36 235 -78 394 -167 627 -124 326 -291 612
-433 744 -129 119 -144 83 -79 -184 92 -375 223 -717 367 -958 34 -57 62 -106
62 -109 0 -8 -40 19 -185 125 -71 52 -153 108 -181 123 l-51 29 -8 82 c-23
274 -144 517 -421 848 -102 122 -323 350 -340 350 -34 0 -21 -102 41 -317 77
-272 173 -478 306 -657 44 -59 78 -110 75 -113 -5 -6 -245 117 -353 181 -35
20 -69 49 -77 64 -8 15 -28 77 -45 139 -17 62 -45 147 -62 190 -106 269 -359
638 -547 799 -116 99 -226 146 -260 112 -18 -18 -14 -142 7 -233 26 -106 96
-271 181 -425 93 -170 158 -260 254 -355 92 -90 154 -129 536 -335 263 -142
299 -164 234 -150 -77 18 -331 32 -449 26 -138 -8 -375 -43 -619 -92 -208 -42
-269 -59 -287 -80 -12 -15 -10 -20 14 -37 38 -29 120 -61 274 -108 168 -51
295 -75 458 -89 297 -24 417 -11 720 77 128 38 214 57 265 60 l75 5 85 -58
c141 -95 314 -228 303 -231 -6 -2 -60 7 -119 21 -186 42 -260 50 -474 50 -213
0 -349 -13 -660 -60 -262 -40 -330 -64 -330 -116 0 -39 81 -108 185 -158 279
-135 560 -184 915 -162 255 17 304 28 647 153 l91 34 22 -20 c52 -46 370 -499
370 -527 0 -15 -64 -4 -320 57 -288 68 -290 69 -290 57 0 -13 198 -114 340
-175 256 -109 443 -165 615 -186 50 -6 187 -16 305 -22 118 -6 220 -14 228
-18 22 -13 -312 -323 -455 -422 l-41 -29 -46 33 c-25 17 -71 50 -103 73 -67
47 -178 93 -383 157 -337 106 -831 237 -965 255 -67 9 -120 0 -128 -22 -17
-44 60 -175 151 -257 123 -110 276 -194 469 -259 155 -52 262 -67 557 -80 132
-5 241 -12 243 -14 14 -14 -508 -266 -551 -266 -18 0 -48 20 -98 67 -98 89
-158 134 -249 182 -272 147 -837 286 -974 239 -25 -8 -41 -20 -43 -32 -5 -26
179 -206 274 -268 202 -132 500 -246 732 -279 45 -6 84 -15 87 -19 5 -8 -146
-66 -376 -145 l-125 -44 -150 10 c-270 17 -289 25 -589 239 -252 179 -308 200
-556 200 -273 0 -339 -30 -280 -126 33 -55 262 -276 366 -354 228 -172 458
-248 710 -237 197 9 318 55 465 176 49 41 108 80 140 92 98 38 384 136 418
144 l34 7 -18 -34 c-9 -18 -30 -52 -45 -75 -16 -23 -70 -120 -120 -215 -50
-95 -100 -183 -112 -196 -48 -52 -535 -363 -727 -465 -222 -118 -349 -157
-545 -164 -175 -7 -272 7 -488 73 -100 31 -190 58 -199 60 -10 3 -18 1 -18 -4
0 -13 244 -136 398 -202 167 -71 275 -92 467 -92 164 -1 247 12 395 62 141 47
288 115 445 209 100 59 152 85 157 77 4 -6 8 -43 8 -83 0 -62 3 -75 26 -102
14 -17 34 -31 43 -31 45 0 145 106 263 278 38 57 72 101 75 98 6 -6 -118 -377
-177 -529 -50 -128 -60 -137 -222 -206 -62 -27 -184 -80 -270 -120 -86 -39
-167 -71 -180 -71 -12 0 -67 16 -123 35 -133 45 -225 59 -355 51 -174 -10
-317 -53 -382 -114 -54 -51 -26 -102 78 -142 54 -20 71 -22 194 -17 74 3 191
15 258 27 68 12 126 19 128 17 8 -8 -100 -89 -151 -113 -27 -13 -64 -24 -81
-24 -116 0 -340 -68 -464 -140 -77 -45 -180 -136 -211 -186 l-22 -36 22 -21
c16 -17 36 -22 92 -25 98 -6 178 12 288 64 51 24 96 44 98 44 9 0 -126 -167
-207 -258 -198 -219 -240 -284 -302 -465 -40 -118 -45 -239 -12 -302 30 -57
55 -58 109 -1 86 89 129 210 190 540 25 134 40 187 58 215 41 62 240 301 322
386 l76 80 -5 -125 c-10 -241 -54 -464 -113 -572 -45 -83 -63 -56 -63 97 0 63
10 123 45 265 25 101 44 191 43 199 -4 18 -54 -97 -93 -214 -39 -116 -55 -199
-55 -293 0 -134 37 -185 109 -148 82 43 141 244 171 581 25 288 25 287 62 318
38 33 208 150 208 143 0 -2 -16 -28 -36 -57 -50 -74 -89 -154 -121 -246 -26
-74 -27 -87 -28 -276 0 -185 1 -199 19 -213 11 -8 24 -14 29 -14 19 0 67 64
110 147 81 158 137 371 158 606 7 69 15 130 18 135 8 13 348 182 433 216 36
14 74 26 83 26 33 0 -61 -149 -320 -505 -52 -71 -95 -133 -95 -137 0 -31 108
60 290 242 149 149 235 254 337 413 41 64 79 117 83 117 22 0 44 -335 31 -454
-6 -49 -12 -90 -13 -91 -210 -146 -517 -463 -583 -602 -35 -75 -31 -97 18
-101 123 -10 413 222 503 402 48 98 52 85 25 -97 -21 -147 -49 -227 -77 -227
-28 0 -211 -96 -319 -168 -104 -69 -323 -274 -364 -342 -42 -69 -18 -118 62
-127 108 -12 288 73 477 224 l34 28 -24 -40 c-110 -185 -132 -212 -244 -297
-43 -34 -111 -93 -151 -133 -127 -128 -165 -201 -165 -319 0 -130 70 -142 169
-29 59 66 104 143 161 277 70 162 109 239 195 376 80 127 139 235 172 315 l20
50 8 -50 c26 -182 92 -440 132 -519 24 -47 94 -116 117 -116 66 0 92 67 82
215 -18 255 -94 468 -221 613 -30 35 -55 69 -54 75 0 7 13 75 28 152 l28 140
12 -45 c68 -261 108 -363 176 -455 52 -70 111 -117 140 -113 34 5 55 63 55
153 0 152 -67 391 -164 590 -55 112 -153 271 -162 262 -3 -2 14 -47 36 -98 82
-187 159 -386 180 -464 26 -100 50 -254 50 -323 0 -45 -3 -53 -17 -50 -23 4
-80 82 -131 176 -78 146 -111 310 -131 652 -6 96 -18 286 -26 422 l-15 246 99
249 c55 136 117 304 137 373 20 69 42 130 48 136 13 13 162 66 266 94 60 16
77 17 87 7 7 -7 17 -59 23 -117 22 -226 53 -356 112 -472 30 -62 58 -75 78
-39 28 53 74 289 119 604 18 130 -7 120 279 115 l247 -4 100 -33 c134 -45 291
-114 515 -226 297 -150 467 -259 716 -460 362 -293 662 -532 684 -546 14 -9
22 -20 18 -24 -4 -4 -58 -13 -120 -21 -141 -17 -151 -19 -268 -56 -115 -36
-258 -106 -368 -180 l-82 -55 -142 29 c-300 59 -534 60 -752 3 -220 -57 -564
-184 -763 -281 -114 -56 -223 -142 -223 -175 0 -47 93 -75 303 -91 174 -13
426 0 602 32 174 31 435 111 619 189 54 23 100 40 103 37 3 -3 -28 -65 -70
-138 -41 -73 -85 -153 -97 -178 -13 -25 -28 -48 -34 -52 -6 -4 -37 -8 -68 -8
-392 -1 -1082 -252 -1339 -488 -130 -119 -101 -184 93 -204 172 -19 290 14
595 164 160 78 411 220 549 309 50 32 93 59 96 59 3 0 -21 -82 -53 -182 -32
-101 -74 -237 -95 -302 l-36 -119 -107 -112 c-142 -148 -227 -264 -305 -415
-75 -145 -123 -279 -162 -446 -45 -196 -39 -503 12 -545 53 -44 193 107 303
328 133 266 213 546 271 950 40 279 84 443 199 733 34 86 37 75 16 -71 -36
-262 -28 -638 21 -879 55 -275 124 -420 268 -567 125 -128 147 -101 154 187 5
196 -7 396 -39 651 -32 264 -66 407 -175 742 -41 125 -74 245 -74 266 0 31 13
59 61 132 76 115 137 196 208 273 l54 59 -7 -54 c-37 -312 -46 -732 -20 -908
30 -204 95 -421 152 -504 92 -132 178 -150 229 -47 47 96 58 192 58 505 0 260
-3 303 -24 420 -30 168 -58 278 -131 505 -32 102 -60 194 -62 204 -5 33 106
95 297 164 65 24 84 26 293 30 l222 4 153 -90 c389 -230 584 -291 886 -279
279 11 385 56 706 297 119 90 262 207 409 334 l56 49 65 -7 c71 -7 116 6 149
43 16 18 30 21 91 21 57 0 74 -3 79 -16 10 -27 6 -221 -9 -429 -40 -549 -40
-1071 0 -1284 35 -182 115 -378 216 -528 95 -141 202 -237 347 -313 37 -20 80
-53 102 -79 22 -25 68 -80 103 -121 95 -113 168 -163 289 -201 84 -26 112 -31
167 -26 179 13 292 98 406 307 26 47 55 94 65 105 11 11 63 45 116 75 114 64
224 163 273 244 72 120 106 255 121 477 17 242 -6 503 -71 819 -86 416 -212
829 -343 1128 -42 95 -76 178 -76 183 0 15 26 11 108 -17 178 -59 532 -210
937 -399 295 -137 340 -155 390 -155 52 0 123 43 164 100 45 62 54 126 55 395
1 259 -8 337 -51 460 -76 213 -159 266 -553 354 -102 22 -201 45 -220 51 -32
9 -47 29 -192 267 -299 493 -424 727 -593 1113 -137 313 -246 547 -312 667
-221 404 -641 897 -986 1159 -130 99 -167 133 -167 158 0 10 19 60 43 110 l42
91 -1 130 c-3 322 -155 921 -331 1307 -139 305 -313 540 -485 654 -244 162
-635 243 -868 179 -110 -30 -90 -40 -340 166 -338 278 -1024 594 -1625 749
-283 73 -679 142 -1000 175 -318 32 -893 44 -1150 24z m1220 -148 c671 -62
1161 -174 1630 -373 180 -76 573 -271 695 -344 151 -91 400 -275 400 -296 0
-5 -37 -56 -82 -112 -46 -57 -103 -138 -127 -180 -103 -181 -174 -410 -193
-628 l-11 -126 -76 63 c-224 189 -498 280 -988 330 -190 19 -264 35 -643 135
-572 151 -861 203 -1400 250 -135 12 -248 25 -252 29 -4 3 4 47 18 96 34 121
44 327 20 430 -36 151 -137 304 -282 429 -100 85 -167 119 -320 162 -171 48
-163 44 -135 55 54 21 285 58 571 93 70 8 1059 -3 1175 -13z m-1733 -187 c233
-39 395 -126 523 -281 67 -82 140 -226 156 -311 23 -122 -8 -403 -49 -444 -21
-21 -94 -28 -297 -28 -561 -1 -1275 -84 -1459 -171 -25 -12 -78 -51 -117 -87
l-72 -67 7 85 c22 259 131 580 251 739 139 183 409 396 666 527 137 69 180 74
391 38z m4915 -835 c417 -46 739 -310 994 -815 105 -209 179 -426 249 -725 82
-355 107 -577 76 -684 -21 -69 -72 -175 -86 -175 -5 0 -51 18 -102 41 -51 23
-133 56 -182 75 -48 19 -92 37 -97 39 -4 3 7 30 26 60 102 158 131 419 75 665
-63 278 -192 664 -281 843 -147 293 -478 511 -809 534 -74 5 -192 -6 -352 -32
-40 -6 -35 7 24 60 128 115 230 140 465 114z m-136 -204 c253 -44 493 -186
624 -369 128 -180 296 -591 407 -992 29 -107 32 -132 31 -244 -2 -189 -55
-360 -124 -396 -16 -8 -87 -18 -171 -24 -79 -6 -156 -13 -173 -16 -49 -10 -99
-40 -159 -94 -65 -60 -119 -161 -138 -255 -15 -78 -14 -347 1 -450 30 -197
126 -510 245 -799 36 -88 66 -172 66 -189 0 -16 -9 -75 -20 -130 -78 -391
-436 -671 -821 -643 -153 11 -281 57 -429 153 -205 133 -347 339 -434 627 -62
203 -68 260 -64 600 l3 301 49 125 c27 69 95 223 153 344 122 257 153 342 153
423 0 73 -21 120 -99 222 -34 44 -61 82 -61 84 0 2 42 7 93 10 211 14 326 89
346 226 6 39 10 45 26 42 11 -1 96 -5 188 -8 l168 -5 24 -48 c49 -97 61 -65
19 52 -40 111 -95 181 -126 162 -10 -6 -7 -45 7 -76 6 -16 -1 -18 -91 -18
-110 0 -170 19 -198 63 -9 13 -32 70 -51 126 -19 56 -53 143 -77 194 l-43 92
2 106 c5 221 55 401 176 641 51 100 53 103 102 121 62 23 216 55 271 56 23 1
79 -6 125 -14z m-1616 -509 c257 -46 567 -162 703 -264 110 -82 238 -287 282
-450 l19 -74 -27 6 c-57 13 -190 88 -262 146 -41 34 -145 126 -230 205 -248
229 -311 275 -517 377 -68 34 -123 63 -123 64 0 9 80 3 155 -10z m-795 -330
c210 -25 424 -63 597 -107 255 -64 700 -221 737 -259 15 -16 -29 -52 -157
-128 -148 -88 -271 -144 -325 -149 -32 -3 -83 5 -162 27 -718 193 -1189 281
-1652 311 -223 14 -616 6 -783 -16 -163 -22 -508 -91 -810 -163 -137 -33 -266
-63 -285 -67 l-35 -7 24 17 c34 26 355 184 516 255 329 146 717 241 1160 284
88 9 178 18 200 20 106 11 846 -3 975 -18z m1626 -474 l176 -67 -4 -61 c-5
-80 -38 -126 -116 -162 -75 -34 -181 -33 -357 2 -145 29 -314 71 -323 80 -7 8
15 24 113 82 89 53 153 97 234 162 41 33 59 42 77 38 13 -4 103 -37 200 -74z
m-6387 -26 c204 -132 548 -594 657 -881 31 -85 75 -247 69 -254 -7 -7 -84 31
-185 92 -210 126 -425 419 -557 760 -57 149 -91 327 -62 327 6 0 41 -20 78
-44z m2982 -111 c164 -82 450 -343 619 -565 102 -134 290 -437 290 -468 0 -25
-170 55 -307 143 -94 62 -276 234 -370 350 -145 179 -290 428 -308 528 -9 46
5 48 76 12z m1490 -140 c54 -121 78 -425 60 -743 -13 -246 -31 -392 -71 -594
-40 -196 -57 -233 -79 -165 -95 299 -132 671 -97 972 20 168 45 295 87 430 52
167 65 180 100 100z m-3580 -222 c168 -173 361 -419 459 -585 94 -159 155
-337 148 -434 l-3 -44 -65 41 c-201 127 -403 424 -514 759 -54 162 -97 320
-87 320 3 0 32 -26 62 -57z m726 -205 c268 -326 505 -895 577 -1383 l6 -40
-39 43 c-84 91 -287 456 -375 674 -126 309 -266 778 -232 778 2 0 30 -33 63
-72z m6384 -129 c308 -31 690 -260 1074 -644 274 -273 595 -687 595 -766 0
-13 -13 -47 -30 -76 -24 -41 -38 -54 -75 -68 -121 -47 -283 27 -535 245 -99
86 -140 117 -140 106 0 -3 39 -51 86 -108 47 -57 92 -116 101 -132 14 -26 13
-31 -4 -55 -39 -52 -98 -84 -164 -89 -167 -12 -264 52 -543 361 -48 54 -91 96
-94 93 -3 -3 33 -63 80 -134 109 -163 121 -187 105 -200 -29 -23 -99 -36 -198
-37 -102 0 -107 1 -184 39 -169 84 -377 344 -444 557 -41 129 -55 236 -55 409
1 176 14 262 55 343 57 114 111 149 255 166 7 0 58 -4 115 -10z m-2025 -310
c67 -34 69 -36 67 -70 -1 -20 -27 -102 -57 -182 -94 -246 -108 -312 -113 -527
-4 -141 -1 -212 11 -300 32 -214 98 -434 201 -660 83 -182 83 -184 19 -115
-166 177 -368 456 -468 645 -130 247 -151 333 -150 610 0 181 2 201 26 280 59
192 121 294 200 335 46 23 63 26 124 23 58 -3 84 -10 140 -39z m-2831 -178
c238 -59 544 -178 740 -289 117 -66 385 -242 406 -268 13 -16 8 -17 -86 -10
-219 14 -427 66 -628 156 -195 87 -367 204 -526 356 -83 81 -85 83 -56 84 17
0 84 -13 150 -29z m1912 -365 c-12 -420 -84 -703 -264 -1034 -37 -67 -60 -99
-66 -93 -14 14 -12 303 2 426 18 149 49 330 73 420 42 160 167 445 221 503 19
20 22 21 30 6 6 -10 7 -103 4 -228z m-4023 199 c134 -23 407 -119 389 -136 -4
-4 -120 -38 -258 -75 l-249 -67 -281 6 c-232 5 -296 9 -375 26 -169 37 -459
126 -448 137 5 5 539 113 613 124 89 13 506 3 609 -15z m555 -476 c62 -6 147
-19 190 -30 88 -22 241 -93 289 -134 l34 -28 -72 -33 c-203 -94 -457 -144
-735 -144 -300 0 -549 55 -776 171 -105 54 -140 82 -122 100 20 20 309 70 558
98 115 12 501 13 634 0z m1923 -60 c222 -75 510 -212 672 -321 117 -79 387
-320 438 -390 34 -48 16 -54 -114 -36 -275 39 -600 194 -927 442 -175 133
-331 282 -331 315 0 6 12 17 28 26 37 21 87 14 234 -36z m4392 -225 c58 -58
120 -109 147 -122 102 -49 317 -50 426 -2 l46 20 93 -55 c209 -125 320 -126
483 -6 l70 52 80 -41 c104 -52 175 -70 277 -70 l82 0 61 67 c58 64 61 66 75
48 42 -56 376 -805 384 -857 6 -48 -13 -71 -74 -88 -46 -13 -129 -9 -196 10
-66 19 -156 90 -270 213 -173 187 -281 295 -267 267 6 -14 47 -74 89 -135 111
-157 124 -184 111 -233 -14 -50 -63 -117 -104 -142 -45 -28 -180 -28 -268 0
-107 33 -180 90 -396 306 -112 111 -203 197 -203 190 0 -7 23 -46 52 -87 143
-206 160 -250 112 -288 -85 -67 -211 -44 -385 70 -169 111 -229 188 -364 464
-97 199 -146 313 -208 485 -68 187 -68 198 -6 110 29 -41 98 -120 153 -176z
m-2 -479 c281 -484 512 -822 795 -1166 62 -76 113 -141 113 -144 0 -3 -17 -5
-37 -5 -71 -1 -114 -17 -158 -60 l-43 -42 -61 22 c-57 21 -62 22 -86 6 -31
-20 -62 -70 -99 -159 -59 -141 -75 -148 -212 -101 -127 44 -220 50 -296 21
-50 -20 -65 -37 -92 -109 l-18 -46 -37 21 c-71 40 -348 226 -436 292 -386 291
-656 615 -910 1090 l-48 90 49 -46 c146 -136 277 -222 407 -265 76 -26 93 -28
243 -27 175 0 234 10 332 54 91 41 175 104 270 203 132 138 178 220 224 403
l21 86 19 -24 c11 -13 38 -55 60 -94z m-5431 -66 l304 -91 325 5 c240 4 374
11 515 27 292 34 405 20 600 -75 199 -96 340 -232 510 -490 118 -180 166 -265
281 -497 150 -305 284 -669 284 -773 0 -52 -16 -65 -79 -65 -76 0 -132 40
-200 141 -51 76 -70 128 -137 373 -102 375 -180 570 -300 754 -151 231 -293
362 -469 433 -178 71 -274 84 -770 104 -410 17 -539 27 -665 55 -112 24 -548
187 -509 190 4 0 143 -41 310 -91z m-887 -258 c496 -129 897 -243 1060 -302
89 -32 243 -125 238 -144 -1 -5 -15 -14 -30 -18 -45 -14 -599 1 -699 19 -187
32 -433 137 -576 245 -70 53 -175 166 -202 219 -14 28 -14 30 2 30 9 0 103
-22 207 -49z m2239 13 c146 -24 279 -77 405 -163 79 -54 206 -190 281 -302 79
-118 190 -342 230 -462 40 -121 101 -371 91 -375 -4 -2 -70 25 -146 59 -294
130 -531 213 -746 260 -104 23 -378 38 -695 39 l-192 0 -6 38 c-14 84 -54 269
-64 296 -6 16 -14 26 -17 23 -6 -6 11 -277 22 -343 4 -31 4 -32 -60 -48 -36
-9 -77 -16 -91 -16 -22 0 -25 4 -25 33 0 43 44 200 88 317 32 84 44 103 102
160 36 36 121 111 190 167 69 56 183 156 254 223 l130 121 80 -6 c45 -4 121
-13 169 -21z m4596 -218 c29 -15 85 -34 123 -42 103 -22 162 -6 236 61 l37 33
71 -52 c89 -65 210 -129 288 -151 79 -23 205 -17 262 13 51 26 110 91 136 148
10 24 22 44 27 44 4 0 20 -14 37 -31 49 -51 143 -108 216 -130 90 -28 202 -24
269 9 56 27 70 27 90 -1 18 -26 375 -657 504 -892 105 -191 165 -313 165 -335
0 -44 -50 -51 -132 -20 -77 29 -194 127 -437 365 -226 222 -369 377 -522 564
-91 111 -136 153 -109 100 43 -82 374 -487 595 -729 207 -226 285 -317 285
-330 0 -5 -16 -25 -35 -46 l-35 -37 -112 5 c-137 7 -189 25 -314 107 -169 112
-345 270 -701 629 -194 196 -353 350 -353 342 0 -46 279 -360 629 -709 l285
-284 -64 6 c-138 13 -319 88 -465 192 -289 207 -629 548 -875 880 -104 139
-270 379 -270 389 0 4 26 -11 58 -32 31 -22 81 -51 111 -66z m-7348 -176 c429
-77 833 -238 1021 -408 59 -53 43 -62 -112 -62 -232 0 -393 43 -655 175 -232
116 -425 251 -425 296 0 25 25 25 171 -1z m1743 -315 c-25 -77 -56 -178 -68
-225 l-23 -85 -144 -51 c-79 -27 -202 -75 -274 -106 l-130 -56 -3 72 c-2 39
-1 116 3 171 l7 101 146 67 c81 37 233 109 337 161 105 51 191 93 192 92 1 -1
-18 -65 -43 -141z m-2529 -15 c92 -13 170 -53 303 -152 231 -174 346 -242 432
-258 45 -8 294 -29 350 -30 24 0 -145 -107 -205 -129 -90 -34 -176 -44 -338
-39 -131 5 -164 9 -237 33 -174 56 -322 147 -513 312 -114 100 -229 221 -224
237 9 28 55 36 207 36 85 0 187 -5 225 -10z m1852 -237 c-8 -77 -56 -316 -65
-325 -14 -14 -264 -139 -269 -135 -6 7 104 224 168 332 52 89 135 185 159 185
10 0 11 -13 7 -57z m1539 -83 c246 -20 514 -78 711 -156 145 -56 396 -176 438
-209 18 -13 49 -56 70 -97 106 -203 198 -288 311 -288 68 0 110 24 145 84 16
28 31 56 33 61 2 6 18 2 37 -9 293 -160 628 -325 841 -412 213 -88 424 -124
607 -104 128 14 193 35 418 135 95 42 176 74 181 71 5 -3 14 -31 21 -63 7 -32
21 -86 32 -120 26 -81 59 -108 211 -174 65 -29 118 -56 118 -61 0 -13 -21 -31
-219 -180 -329 -248 -508 -357 -651 -395 -79 -21 -368 -23 -495 -3 -319 50
-560 192 -1270 751 -614 483 -653 509 -1058 710 -421 209 -597 259 -902 259
-223 0 -399 -29 -680 -112 -256 -75 -242 -73 -315 -54 -38 10 -77 15 -93 11
-27 -7 -72 -53 -119 -123 -33 -50 -79 -81 -393 -267 -496 -294 -650 -372 -803
-411 -134 -34 -300 -48 -426 -35 -103 10 -323 67 -374 96 l-27 16 30 -6 c17
-4 71 -15 120 -26 100 -21 212 -24 355 -9 236 25 381 94 880 415 129 83 280
179 335 212 454 274 845 430 1215 487 115 17 528 21 716 6z m5222 -46 c30 -20
28 -30 -19 -81 -64 -70 -89 -133 -89 -229 0 -221 121 -440 272 -490 40 -13 73
-16 155 -11 56 2 103 2 103 -2 0 -17 -48 -81 -101 -134 -59 -58 -61 -59 -106
-54 -50 5 -281 114 -350 166 -77 56 -161 255 -170 401 -8 130 38 367 82 424
28 36 171 43 223 10z m-340 -69 c3 -2 -5 -53 -16 -112 -12 -60 -24 -131 -28
-158 -8 -67 18 -216 60 -337 19 -54 32 -98 30 -98 -11 0 -71 34 -111 63 -50
35 -99 123 -137 245 -31 101 -32 126 -5 189 12 26 30 72 40 102 10 30 31 70
45 89 25 33 29 34 72 28 25 -3 48 -8 50 -11z m496 -77 c87 -83 86 -82 60 -219
-19 -99 -12 -144 42 -280 19 -48 34 -89 34 -93 0 -18 -79 -3 -132 26 -68 36
-102 72 -134 143 -57 125 -78 324 -40 395 28 54 66 100 80 100 8 0 48 -33 90
-72z m2071 -143 c258 -78 330 -125 389 -248 48 -99 66 -196 73 -377 10 -280
-43 -460 -137 -460 -43 0 -153 45 -410 170 -651 315 -956 407 -1505 455 -99 8
-195 18 -213 21 -40 8 -69 43 -114 139 -26 58 -33 85 -36 157 -5 95 2 138 21
138 6 0 53 -30 102 -66 183 -133 284 -189 395 -220 51 -14 97 -18 215 -17
l150 2 75 -34 c42 -19 105 -42 141 -51 123 -32 250 2 324 88 l39 45 75 -25
c106 -33 167 -38 211 -15 80 41 89 136 27 268 l-37 78 47 -6 c27 -3 102 -22
168 -42z m-8159 -47 c-15 -178 -74 -528 -95 -565 -8 -16 -12 -13 -26 20 -38
92 -85 360 -85 491 0 88 14 111 77 121 21 4 43 8 48 10 6 2 27 4 49 4 l39 1
-7 -82z m5089 47 c33 -9 62 -18 65 -21 3 -4 -5 -13 -18 -23 -110 -77 -126
-107 -119 -215 9 -144 81 -286 187 -370 58 -46 124 -60 262 -54 l107 4 -5 -25
c-31 -141 -58 -175 -149 -186 -82 -11 -155 2 -237 41 -168 81 -380 249 -420
334 -16 33 -16 42 2 145 24 138 56 275 75 321 26 62 125 81 250 49z m203 -122
c11 -27 27 -73 37 -103 28 -90 85 -189 130 -228 23 -20 71 -48 106 -62 35 -15
63 -31 63 -36 -3 -16 -126 -52 -202 -60 -96 -9 -143 9 -217 84 -71 70 -102
131 -117 226 -16 107 -7 131 71 184 84 56 103 55 129 -5z m-6040 21 c29 -20
28 -36 -13 -189 -68 -258 -228 -636 -366 -862 -54 -89 -213 -285 -317 -393
l-83 -85 74 100 c119 159 194 280 267 430 86 177 136 305 244 628 94 280 137
387 158 387 8 0 24 -7 36 -16z m5448 -148 c3 -8 -2 -52 -10 -98 -21 -109 -20
-154 3 -203 35 -76 242 -251 398 -337 40 -22 76 -44 79 -50 4 -6 -5 -22 -19
-36 -25 -24 -27 -25 -74 -12 -151 41 -398 153 -431 195 -37 47 -82 286 -82
436 0 79 0 79 33 99 38 23 95 26 103 6z m-5765 -153 c-70 -132 -240 -328 -263
-305 -15 15 -11 127 6 167 9 20 35 49 61 67 68 49 218 139 223 134 2 -3 -10
-31 -27 -63z m7668 -124 l94 -12 -7 -81 c-8 -106 -29 -176 -77 -258 -49 -83
-150 -187 -210 -216 -57 -28 -160 -41 -317 -42 l-122 0 -83 41 c-96 48 -232
136 -266 172 l-23 25 17 104 c10 57 23 118 31 136 12 29 17 32 56 32 42 0 90
-18 287 -105 46 -21 107 -44 135 -51 49 -13 53 -13 104 12 56 27 120 102 164
189 33 66 48 78 88 71 19 -3 77 -11 129 -17z m301 -50 c84 -19 88 -21 103 -57
8 -20 40 -91 70 -157 64 -141 131 -329 192 -540 92 -318 186 -746 204 -925 17
-175 23 -458 12 -582 -24 -257 -130 -430 -333 -538 -32 -18 -62 -30 -65 -27
-3 3 1 56 7 117 46 414 -72 1070 -340 1885 -110 335 -126 343 -40 19 192 -730
320 -1368 320 -1599 0 -198 -55 -485 -117 -613 -42 -85 -135 -192 -194 -222
-83 -43 -253 -34 -362 18 -120 58 -237 174 -293 290 -91 191 -176 792 -209
1467 -16 354 -28 531 -34 543 -21 38 -27 -407 -11 -818 15 -388 36 -586 97
-912 20 -109 34 -201 30 -205 -13 -12 -96 39 -153 94 -150 147 -299 446 -348
698 -26 133 -36 249 -43 495 -9 345 23 1115 48 1162 12 21 79 43 111 35 13 -4
59 -33 103 -66 44 -34 133 -88 198 -122 l118 -61 187 4 187 3 65 35 c72 39
177 132 221 197 38 54 60 119 88 253 12 58 24 115 27 128 6 29 37 29 154 1z
m-9013 -710 c100 -14 238 -65 224 -83 -25 -30 -199 -60 -445 -77 -199 -14
-296 -7 -322 22 -16 18 -16 20 1 39 70 78 340 127 542 99z m272 -229 c-13 -93
-74 -334 -115 -453 -39 -111 -91 -217 -107 -217 -14 0 -1 288 17 378 18 87 90
239 154 324 53 71 64 64 51 -32z m3156 -20 c122 -10 360 -47 382 -59 39 -21
-117 -134 -261 -190 -219 -86 -607 -194 -756 -211 -102 -12 -503 -12 -613 -1
-135 14 -127 39 42 125 374 191 781 322 1071 345 8 0 69 -4 135 -9z m653 -177
c56 -182 95 -338 113 -448 13 -79 25 -818 14 -900 -7 -57 -40 -118 -67 -123
-26 -5 -84 62 -121 140 -83 176 -112 310 -128 596 -13 217 -1 522 27 710 16
103 18 109 57 150 23 23 44 42 48 42 3 0 29 -75 57 -167z m-2957 -10 c-50 -93
-124 -184 -239 -294 -128 -122 -262 -209 -262 -169 0 53 340 427 480 529 43
31 45 32 48 12 2 -11 -11 -47 -27 -78z m-1281 59 c0 -4 -26 -33 -57 -64 -99
-96 -262 -189 -393 -223 -67 -17 -156 -20 -165 -5 -18 30 103 128 245 200 90
45 124 56 238 80 97 21 132 24 132 12z m1374 -671 c59 -116 91 -208 110 -321
16 -92 25 -314 14 -325 -20 -21 -79 60 -122 167 -48 121 -87 325 -102 528 l-6
95 31 -29 c17 -16 51 -68 75 -115z m2376 -111 c76 -253 146 -615 170 -870 15
-163 24 -554 15 -625 l-7 -60 -45 50 c-190 213 -277 498 -290 951 -8 261 22
691 54 789 9 30 53 -70 103 -235z m-2540 206 c0 -23 -36 -101 -76 -163 -105
-164 -296 -301 -489 -349 -82 -21 -95 -13 -67 42 24 48 190 210 292 286 71 53
314 198 332 198 4 0 8 -6 8 -14z m2335 -16 c0 -31 -248 -177 -620 -365 -352
-178 -432 -204 -632 -205 -90 0 -133 11 -133 35 0 25 76 100 158 155 107 71
346 189 486 238 331 118 741 196 741 142z m-3989 -67 c-18 -190 -147 -551
-209 -584 -32 -18 -39 6 -33 116 5 114 29 202 86 315 45 88 136 220 152 220 7
0 9 -21 4 -67z m1314 -631 c0 -77 -251 -453 -294 -439 -6 2 -12 25 -14 52 -6
88 85 226 232 355 62 54 76 60 76 32z m2430 -144 c0 -18 -9 -88 -20 -156 -50
-308 -146 -615 -266 -855 -78 -154 -186 -299 -212 -283 -16 10 -19 74 -11 222
18 315 109 589 284 849 71 106 197 255 216 255 5 0 9 -15 9 -32z M7304 10072
c-159 -55 -309 -227 -345 -392 -7 -33 -10 -96 -6 -156 4 -87 9 -111 37 -168
58 -122 202 -250 333 -296 72 -25 253 -28 342 -4 123 31 230 124 293 253 l37
76 0 156 0 155 -39 80 c-46 93 -171 226 -247 262 -106 51 -306 68 -405 34z
m250 -78 c139 -36 255 -127 314 -248 26 -54 34 -87 43 -174 14 -137 8 -195
-29 -269 -35 -69 -127 -159 -199 -194 -40 -20 -63 -24 -143 -24 -114 1 -181
16 -274 62 -79 40 -172 126 -205 191 -19 37 -21 58 -21 203 l0 163 41 62 c65
101 176 196 268 229 49 19 131 18 205 -1z M7389 9917 c-60 -30 -106 -69 -147
-125 -43 -61 -50 -92 -62 -266 -6 -81 -15 -157 -20 -167 -12 -22 -3 -25 116
-34 100 -7 211 -34 303 -75 38 -16 74 -30 80 -30 6 0 11 12 11 28 0 15 12 43
29 62 64 79 101 187 101 300 0 91 -25 150 -98 231 -86 96 -210 126 -313 76z
m194 -68 c72 -20 143 -109 166 -208 20 -92 -30 -250 -103 -320 l-35 -34 -60
27 c-55 24 -182 56 -285 72 l-38 5 4 132 c4 118 7 138 32 194 47 104 103 142
211 143 39 0 87 -5 108 -11z M7442 9801 c-138 -48 -198 -185 -136 -310 70
-140 253 -159 345 -37 37 48 56 93 44 104 -3 3 -31 9 -63 13 -46 6 -62 14 -84
39 -34 37 -37 91 -8 135 47 71 8 93 -98 56z M3272 4743 c-39 -5 -38 -24 3 -34
15 -5 150 -13 299 -19 626 -24 831 -40 910 -69 39 -15 56 -13 26 3 -87 48
-303 87 -585 105 -177 12 -606 21 -653 14z M2555 4526 c-24 -17 -18 -25 27
-36 18 -4 41 -11 51 -15 13 -5 17 -2 17 13 0 38 -61 63 -95 38z M5160 4300 c0
-29 43 -141 75 -196 43 -73 114 -144 170 -170 80 -38 119 -27 52 15 -102 63
-160 130 -237 274 -28 53 -54 97 -56 97 -2 0 -4 -9 -4 -20z M5771 3970 c-18
-23 -57 -54 -87 -71 -61 -35 -71 -59 -24 -59 68 0 150 74 150 135 0 19 -1 35
-3 35 -2 0 -18 -18 -36 -40z M5686 3721 c-3 -4 30 -28 72 -54 87 -51 177 -126
408 -338 187 -172 222 -199 339 -254 240 -114 500 -144 730 -85 128 33 436
162 421 177 -2 3 -67 -16 -143 -40 -207 -68 -293 -81 -523 -81 -168 1 -206 4
-274 22 -174 48 -323 144 -571 367 -216 194 -329 272 -422 289 -18 3 -34 2
-37 -3z M6100 3701 c0 -17 159 -160 235 -211 89 -60 222 -125 340 -167 77 -27
86 -28 270 -27 161 0 202 4 265 21 82 23 176 61 168 68 -2 3 -51 -5 -109 -16
-134 -27 -335 -36 -437 -19 -107 17 -221 54 -327 108 -93 46 -139 75 -300 187
-94 66 -105 72 -105 56z M10426 194 c-10 -47 -15 -88 -12 -91 5 -6 9 7 30 110
7 37 10 67 6 67 -4 0 -15 -39 -24 -86z M10740 270 c0 -5 5 -10 10 -10 6 0 10
5 10 10 0 6 -4 10 -10 10 -5 0 -10 -4 -10 -10z M11286 194 c-10 -47 -15 -88
-12 -91 5 -6 9 7 30 110 7 37 10 67 6 67 -4 0 -15 -39 -24 -86z M11366 269
c-3 -8 -10 -41 -16 -74 -6 -33 -14 -68 -16 -77 -3 -10 -1 -18 3 -18 10 0 46
171 38 178 -2 3 -7 -1 -9 -9z M10129 241 c-38 -38 -41 -101 -7 -125 29 -20 79
-20 104 0 18 14 18 15 1 10 -53 -17 -69 -17 -92 -2 -69 45 21 166 94 126 12
-6 21 -7 21 -1 0 12 -25 21 -62 21 -19 0 -39 -10 -59 -29z M11130 189 c-28
-45 -49 -83 -47 -85 2 -3 12 7 21 21 14 21 24 25 66 25 43 0 50 -3 50 -19 0
-11 5 -23 10 -26 6 -3 10 -3 10 1 0 20 -44 164 -51 164 -4 0 -30 -37 -59 -81z
m75 4 l7 -33 -42 0 c-42 0 -42 0 -28 23 8 12 21 32 29 44 15 25 22 18 34 -34z
M10280 210 c-22 -22 -27 -79 -8 -98 19 -19 66 -14 88 8 22 22 27 79 8 98 -19
19 -66 14 -88 -8z m71 0 c25 -14 25 -54 -1 -80 -23 -23 -33 -24 -61 -10 -25
14 -25 54 1 80 23 23 33 24 61 10z M10490 210 c-22 -22 -27 -79 -8 -98 19 -19
66 -14 88 8 22 22 27 79 8 98 -19 19 -66 14 -88 -8z m71 0 c25 -14 25 -54 -1
-80 -23 -23 -33 -24 -61 -10 -25 14 -25 54 1 80 23 23 33 24 61 10z M10636
204 c-3 -16 -8 -47 -11 -69 -8 -51 10 -26 19 27 5 27 15 42 34 53 18 10 22 14
10 15 -9 0 -20 -5 -24 -11 -5 -8 -9 -8 -14 1 -5 8 -10 3 -14 -16z M10737 223
c-2 -4 -7 -26 -11 -48 -4 -22 -9 -48 -12 -57 -3 -10 -1 -18 4 -18 4 0 14 28
20 62 11 58 10 81 -1 61z M10795 220 c-1 -3 -5 -23 -9 -45 -4 -22 -9 -48 -12
-57 -3 -10 -1 -18 4 -18 5 0 13 20 17 45 7 53 44 87 74 68 17 -11 19 -28 8
-80 -4 -18 -3 -33 2 -33 16 0 24 99 11 115 -12 14 -87 18 -95 5z M10960 210
c-22 -22 -27 -79 -8 -98 7 -7 24 -12 38 -12 14 0 31 5 38 12 9 9 12 8 12 -5 0
-9 -12 -24 -26 -34 -21 -13 -32 -15 -55 -6 -16 6 -29 8 -29 3 0 -24 81 -27
102 -2 18 19 50 162 37 162 -5 0 -9 -5 -9 -10 0 -7 -6 -7 -19 0 -30 16 -59 12
-81 -10z m71 0 c29 -16 25 -65 -6 -86 -56 -37 -103 28 -55 76 23 23 33 24 61
10z M11461 211 c-23 -23 -28 -80 -9 -99 19 -19 88 -13 88 9 0 5 -11 4 -24 -2
-54 -25 -89 38 -46 81 23 23 33 24 62 9 16 -9 19 -8 16 3 -8 22 -64 22 -87 -1z
M11590 210 c-22 -22 -27 -79 -8 -98 19 -19 66 -14 88 8 22 22 27 79 8 98 -19
19 -66 14 -88 -8z m71 0 c25 -14 25 -54 -1 -80 -23 -23 -33 -24 -61 -10 -25
14 -25 54 1 80 23 23 33 24 61 10z M11736 201 c-3 -14 -8 -44 -11 -66 -8 -51
10 -26 19 27 8 41 35 63 66 53 22 -7 24 -21 11 -77 -5 -22 -5 -38 0 -38 5 0 9
6 9 13 0 68 51 125 85 97 15 -13 15 -35 -1 -92 -3 -10 -1 -18 4 -18 6 0 13 23
17 50 9 63 -5 84 -49 76 -17 -4 -35 -6 -41 -6 -101 8 -104 7 -109 -19z M11380
110 c0 -5 5 -10 10 -10 6 0 10 5 10 10 0 6 -4 10 -10 10 -5 0 -10 -4 -10 -10z"/>
</g>
</svg>
