<?xml version="1.0"?><svg  viewBox="0 0 200 200" width="140mm" height="140mm" xmlns="http://www.w3.org/2000/svg"  version="1.2" viewport-fill="#fff">
  <polyline points="81.134,143.234,75.532,140.000"  style="fill:none;stroke:#000;stroke-width:0.1953;opacity:1"/>
  <polyline points="77.032,140.000,82.290,143.036"  style="fill:none;stroke:#000;stroke-width:0.1953;opacity:1"/>
  <polyline points="83.447,142.838,78.532,140.000"  style="fill:none;stroke:#000;stroke-width:0.1953;opacity:1"/>
  <polyline points="78.005,140.000,90.000,115.010"  style="fill:none;stroke:#000;stroke-width:0.1953;opacity:1"/>
  <polyline points="86.000,115.010,74.032,140.000,79.977,143.432"  style="fill:none;stroke:#000;stroke-width:0.1953;opacity:1"/>
  <polyline points="78.821,143.631,72.532,140.000"  style="fill:none;stroke:#000;stroke-width:0.1953;opacity:1"/>
  <polyline points="71.032,140.000,77.664,143.829"  style="fill:none;stroke:#000;stroke-width:0.1953;opacity:1"/>
  <polyline points="76.507,144.027,69.532,140.000"  style="fill:none;stroke:#000;stroke-width:0.1953;opacity:1"/>
  <polyline points="70.005,140.000,82.000,115.010"  style="fill:none;stroke:#000;stroke-width:0.1953;opacity:1"/>
  <polyline points="78.000,115.010,66.005,140.000"  style="fill:none;stroke:#000;stroke-width:0.1953;opacity:1"/>
  <polyline points="66.532,140.000,74.194,144.424"  style="fill:none;stroke:#000;stroke-width:0.1953;opacity:1"/>
  <polyline points="75.351,144.226,68.005,140.000,79.995,115.000,71.998,98.338"  style="fill:none;stroke:#000;stroke-width:0.1953;opacity:1"/>
  <polyline points="73.998,94.172,84.000,115.010,72.000,140.010,83.995,165.000"  style="fill:none;stroke:#000;stroke-width:0.1953;opacity:1"/>
  <polyline points="84.333,165.000,90.509,168.565"  style="fill:none;stroke:#000;stroke-width:0.1953;opacity:1"/>
  <polyline points="88.800,168.445,82.833,165.000"  style="fill:none;stroke:#000;stroke-width:0.1953;opacity:1"/>
  <polyline points="81.333,165.000,87.091,168.324"  style="fill:none;stroke:#000;stroke-width:0.1953;opacity:1"/>
  <polyline points="85.382,168.203,79.833,165.000"  style="fill:none;stroke:#000;stroke-width:0.1953;opacity:1"/>
  <polyline points="79.995,165.000,68.000,140.010"  style="fill:none;stroke:#000;stroke-width:0.1953;opacity:1"/>
  <polyline points="65.032,140.000,73.038,144.622"  style="fill:none;stroke:#000;stroke-width:0.1953;opacity:1"/>
  <polyline points="71.881,144.820,63.532,140.000"  style="fill:none;stroke:#000;stroke-width:0.1953;opacity:1"/>
  <polyline points="60.768,140.136,69.568,145.217"  style="fill:none;stroke:#000;stroke-width:0.1953;opacity:1"/>
  <polyline points="68.411,145.415,60.491,140.842"  style="fill:none;stroke:#000;stroke-width:0.1953;opacity:1"/>
  <polyline points="60.214,141.549,67.255,145.613"  style="fill:none;stroke:#000;stroke-width:0.1953;opacity:1"/>
  <polyline points="66.098,145.812,59.937,142.255"  style="fill:none;stroke:#000;stroke-width:0.1953;opacity:1"/>
  <polyline points="59.661,142.961,64.942,146.010"  style="fill:none;stroke:#000;stroke-width:0.1953;opacity:1"/>
  <polyline points="63.785,146.208,59.384,143.667"  style="fill:none;stroke:#000;stroke-width:0.1953;opacity:1"/>
  <polyline points="59.107,144.374,62.628,146.407"  style="fill:none;stroke:#000;stroke-width:0.1953;opacity:1"/>
  <polyline points="61.472,146.605,58.831,145.080"  style="fill:none;stroke:#000;stroke-width:0.1953;opacity:1"/>
  <polyline points="58.554,145.786,60.315,146.803"  style="fill:none;stroke:#000;stroke-width:0.1953;opacity:1"/>
  <polyline points="59.159,147.001,58.277,146.492"  style="fill:none;stroke:#000;stroke-width:0.1953;opacity:1"/>
  <polyline points="58.005,140.000,70.000,115.010"  style="fill:none;stroke:#000;stroke-width:0.1953;opacity:1"/>
  <polyline points="66.000,115.010,54.005,140.000"  style="fill:none;stroke:#000;stroke-width:0.1953;opacity:1"/>
  <polyline points="49.998,144.172,59.995,165.000"  style="fill:none;stroke:#000;stroke-width:0.1953;opacity:1"/>
  <polyline points="60.333,165.000,63.166,166.635"  style="fill:none;stroke:#000;stroke-width:0.1953;opacity:1"/>
  <polyline points="63.333,165.000,66.583,166.876"  style="fill:none;stroke:#000;stroke-width:0.1953;opacity:1"/>
  <polyline points="68.292,166.997,64.833,165.000"  style="fill:none;stroke:#000;stroke-width:0.1953;opacity:1"/>
  <polyline points="63.995,165.000,52.005,140.000,64.000,115.010"  style="fill:none;stroke:#000;stroke-width:0.1953;opacity:1"/>
  <polyline points="65.998,110.838,67.995,115.000,56.005,140.000,67.995,165.000"  style="fill:none;stroke:#000;stroke-width:0.1953;opacity:1"/>
  <polyline points="67.833,165.000,71.710,167.238"  style="fill:none;stroke:#000;stroke-width:0.1953;opacity:1"/>
  <polyline points="73.419,167.359,69.333,165.000"  style="fill:none;stroke:#000;stroke-width:0.1953;opacity:1"/>
  <polyline points="70.833,165.000,75.128,167.480"  style="fill:none;stroke:#000;stroke-width:0.1953;opacity:1"/>
  <polyline points="76.837,167.600,72.333,165.000"  style="fill:none;stroke:#000;stroke-width:0.1953;opacity:1"/>
  <polyline points="71.995,165.000,60.005,140.000,72.000,115.010,67.998,106.672"  style="fill:none;stroke:#000;stroke-width:0.1953;opacity:1"/>
  <polyline points="69.998,102.505,75.995,115.000,64.005,140.000,75.995,165.000"  style="fill:none;stroke:#000;stroke-width:0.1953;opacity:1"/>
  <polyline points="75.333,165.000,80.255,167.842"  style="fill:none;stroke:#000;stroke-width:0.1953;opacity:1"/>
  <polyline points="78.546,167.721,73.833,165.000"  style="fill:none;stroke:#000;stroke-width:0.1953;opacity:1"/>
  <polyline points="76.833,165.000,81.964,167.962"  style="fill:none;stroke:#000;stroke-width:0.1953;opacity:1"/>
  <polyline points="83.673,168.083,78.333,165.000"  style="fill:none;stroke:#000;stroke-width:0.1953;opacity:1"/>
  <polyline points="85.833,165.000,92.218,168.686"  style="fill:none;stroke:#000;stroke-width:0.1953;opacity:1"/>
  <polyline points="93.926,168.807,87.333,165.000"  style="fill:none;stroke:#000;stroke-width:0.1953;opacity:1"/>
  <polyline points="87.995,165.000,76.005,140.000,87.995,115.000,76.005,90.000,88.000,65.010"  style="fill:none;stroke:#000;stroke-width:0.1953;opacity:1"/>
  <polyline points="90.000,65.010,78.005,90.000"  style="fill:none;stroke:#000;stroke-width:0.1953;opacity:1"/>
  <polyline points="80.137,90.697,83.753,92.785"  style="fill:none;stroke:#000;stroke-width:0.1953;opacity:1"/>
  <polyline points="84.910,92.587,80.429,90.000"  style="fill:none;stroke:#000;stroke-width:0.1953;opacity:1"/>
  <polyline points="81.929,90.000,86.067,92.389"  style="fill:none;stroke:#000;stroke-width:0.1953;opacity:1"/>
  <polyline points="87.223,92.190,83.429,90.000"  style="fill:none;stroke:#000;stroke-width:0.1953;opacity:1"/>
  <polyline points="82.005,90.000,94.000,65.010"  style="fill:none;stroke:#000;stroke-width:0.1953;opacity:1"/>
  <polyline points="98.000,65.010,86.005,90.000"  style="fill:none;stroke:#000;stroke-width:0.1953;opacity:1"/>
  <polyline points="86.429,90.000,89.536,91.794"  style="fill:none;stroke:#000;stroke-width:0.1953;opacity:1"/>
  <polyline points="88.380,91.992,84.929,90.000"  style="fill:none;stroke:#000;stroke-width:0.1953;opacity:1"/>
  <polyline points="87.929,90.000,90.693,91.595"  style="fill:none;stroke:#000;stroke-width:0.1953;opacity:1"/>
  <polyline points="91.850,91.397,89.429,90.000"  style="fill:none;stroke:#000;stroke-width:0.1953;opacity:1"/>
  <polyline points="90.005,90.000,102.000,65.010"  style="fill:none;stroke:#000;stroke-width:0.1953;opacity:1"/>
  <polyline points="102.117,65.282,101.628,65.000"  style="fill:none;stroke:#000;stroke-width:0.1953;opacity:1"/>
  <polyline points="100.167,65.022,100.128,65.000"  style="fill:none;stroke:#000;stroke-width:0.1953;opacity:1"/>
  <polyline points="103.128,65.000,104.068,65.542"  style="fill:none;stroke:#000;stroke-width:0.1953;opacity:1"/>
  <polyline points="104.628,65.000,106.018,65.802"  style="fill:none;stroke:#000;stroke-width:0.1953;opacity:1"/>
  <polyline points="106.000,65.010,94.005,90.000"  style="fill:none;stroke:#000;stroke-width:0.1953;opacity:1"/>
  <polyline points="93.929,90.000,95.319,90.802"  style="fill:none;stroke:#000;stroke-width:0.1953;opacity:1"/>
  <polyline points="95.429,90.000,96.476,90.604"  style="fill:none;stroke:#000;stroke-width:0.1953;opacity:1"/>
  <polyline points="96.929,90.000,97.632,90.406"  style="fill:none;stroke:#000;stroke-width:0.1953;opacity:1"/>
  <polyline points="98.005,90.000,110.000,65.010"  style="fill:none;stroke:#000;stroke-width:0.1953;opacity:1"/>
  <polyline points="110.628,65.000,113.399,66.600"  style="fill:none;stroke:#000;stroke-width:0.1953;opacity:1"/>
  <polyline points="113.002,67.088,102.005,90.000"  style="fill:none;stroke:#000;stroke-width:0.1953;opacity:1"/>
  <polyline points="98.789,90.208,98.429,90.000"  style="fill:none;stroke:#000;stroke-width:0.1953;opacity:1"/>
  <polyline points="94.163,91.001,92.429,90.000"  style="fill:none;stroke:#000;stroke-width:0.1953;opacity:1"/>
  <polyline points="93.006,91.199,90.929,90.000"  style="fill:none;stroke:#000;stroke-width:0.1953;opacity:1"/>
  <polyline points="82.597,92.983,79.861,91.404"  style="fill:none;stroke:#000;stroke-width:0.1953;opacity:1"/>
  <polyline points="79.584,92.110,81.440,93.182"  style="fill:none;stroke:#000;stroke-width:0.1953;opacity:1"/>
  <polyline points="80.284,93.380,79.307,92.816"  style="fill:none;stroke:#000;stroke-width:0.1953;opacity:1"/>
  <polyline points="79.030,93.522,79.127,93.578"  style="fill:none;stroke:#000;stroke-width:0.1953;opacity:1"/>
  <polyline points="74.000,115.010,62.032,140.000,70.725,145.019"  style="fill:none;stroke:#000;stroke-width:0.1953;opacity:1"/>
  <polyline points="80.032,140.000,84.604,142.639"  style="fill:none;stroke:#000;stroke-width:0.1953;opacity:1"/>
  <polyline points="85.760,142.441,81.532,140.000"  style="fill:none;stroke:#000;stroke-width:0.1953;opacity:1"/>
  <polyline points="82.005,140.000,94.000,115.010"  style="fill:none;stroke:#000;stroke-width:0.1953;opacity:1"/>
  <polyline points="98.000,115.010,86.005,140.000,89.230,141.846"  style="fill:none;stroke:#000;stroke-width:0.1953;opacity:1"/>
  <polyline points="88.073,142.045,84.532,140.000"  style="fill:none;stroke:#000;stroke-width:0.1953;opacity:1"/>
  <polyline points="83.032,140.000,86.917,142.243"  style="fill:none;stroke:#000;stroke-width:0.1953;opacity:1"/>
  <polyline points="87.532,140.000,90.387,141.648"  style="fill:none;stroke:#000;stroke-width:0.1953;opacity:1"/>
  <polyline points="91.543,141.450,89.032,140.000"  style="fill:none;stroke:#000;stroke-width:0.1953;opacity:1"/>
  <polyline points="90.005,140.000,102.000,115.010"  style="fill:none;stroke:#000;stroke-width:0.1953;opacity:1"/>
  <polyline points="101.600,115.213,101.231,115.000"  style="fill:none;stroke:#000;stroke-width:0.1953;opacity:1"/>
  <polyline points="102.731,115.000,103.551,115.473"  style="fill:none;stroke:#000;stroke-width:0.1953;opacity:1"/>
  <polyline points="104.231,115.000,105.501,115.733"  style="fill:none;stroke:#000;stroke-width:0.1953;opacity:1"/>
  <polyline points="105.731,115.000,107.452,115.994"  style="fill:none;stroke:#000;stroke-width:0.1953;opacity:1"/>
  <polyline points="107.231,115.000,109.402,116.254"  style="fill:none;stroke:#000;stroke-width:0.1953;opacity:1"/>
  <polyline points="110.000,115.010,98.032,140.000,98.483,140.260"  style="fill:none;stroke:#000;stroke-width:0.1953;opacity:1"/>
  <polyline points="99.532,140.000,99.639,140.062"  style="fill:none;stroke:#000;stroke-width:0.1953;opacity:1"/>
  <polyline points="97.326,140.458,96.532,140.000"  style="fill:none;stroke:#000;stroke-width:0.1953;opacity:1"/>
  <polyline points="96.169,140.657,95.032,140.000"  style="fill:none;stroke:#000;stroke-width:0.1953;opacity:1"/>
  <polyline points="95.013,140.855,93.532,140.000"  style="fill:none;stroke:#000;stroke-width:0.1953;opacity:1"/>
  <polyline points="94.005,140.000,106.000,115.010"  style="fill:none;stroke:#000;stroke-width:0.1953;opacity:1"/>
  <polyline points="108.731,115.000,111.353,116.514"  style="fill:none;stroke:#000;stroke-width:0.1953;opacity:1"/>
  <polyline points="111.731,115.000,115.253,117.034"  style="fill:none;stroke:#000;stroke-width:0.1953;opacity:1"/>
  <polyline points="113.303,116.774,110.231,115.000"  style="fill:none;stroke:#000;stroke-width:0.1953;opacity:1"/>
  <polyline points="113.231,115.000,117.204,117.294"  style="fill:none;stroke:#000;stroke-width:0.1953;opacity:1"/>
  <polyline points="119.154,117.554,114.731,115.000"  style="fill:none;stroke:#000;stroke-width:0.1953;opacity:1"/>
  <polyline points="114.000,115.010,102.005,140.000"  style="fill:none;stroke:#000;stroke-width:0.1953;opacity:1"/>
  <polyline points="106.005,140.000,118.000,115.010"  style="fill:none;stroke:#000;stroke-width:0.1953;opacity:1"/>
  <polyline points="117.731,115.000,123.055,118.074"  style="fill:none;stroke:#000;stroke-width:0.1953;opacity:1"/>
  <polyline points="121.105,117.814,116.231,115.000"  style="fill:none;stroke:#000;stroke-width:0.1953;opacity:1"/>
  <polyline points="119.231,115.000,125.006,118.334"  style="fill:none;stroke:#000;stroke-width:0.1953;opacity:1"/>
  <polyline points="126.956,118.594,120.731,115.000"  style="fill:none;stroke:#000;stroke-width:0.1953;opacity:1"/>
  <polyline points="122.000,115.010,110.005,140.000"  style="fill:none;stroke:#000;stroke-width:0.1953;opacity:1"/>
  <polyline points="114.005,140.000,126.000,115.010"  style="fill:none;stroke:#000;stroke-width:0.1953;opacity:1"/>
  <polyline points="126.731,115.000,134.758,119.634"  style="fill:none;stroke:#000;stroke-width:0.1953;opacity:1"/>
  <polyline points="132.807,119.374,125.231,115.000"  style="fill:none;stroke:#000;stroke-width:0.1953;opacity:1"/>
  <polyline points="123.731,115.000,130.857,119.114"  style="fill:none;stroke:#000;stroke-width:0.1953;opacity:1"/>
  <polyline points="128.906,118.854,122.231,115.000"  style="fill:none;stroke:#000;stroke-width:0.1953;opacity:1"/>
  <polyline points="128.231,115.000,136.708,119.894"  style="fill:none;stroke:#000;stroke-width:0.1953;opacity:1"/>
  <polyline points="138.002,119.172,128.005,140.000,139.995,165.000"  style="fill:none;stroke:#000;stroke-width:0.1953;opacity:1"/>
  <polyline points="139.833,165.000,153.739,173.029"  style="fill:none;stroke:#000;stroke-width:0.1953;opacity:1"/>
  <polyline points="155.448,173.149,141.333,165.000"  style="fill:none;stroke:#000;stroke-width:0.1953;opacity:1"/>
  <polyline points="142.833,165.000,157.157,173.270"  style="fill:none;stroke:#000;stroke-width:0.1953;opacity:1"/>
  <polyline points="158.866,173.391,144.333,165.000"  style="fill:none;stroke:#000;stroke-width:0.1953;opacity:1"/>
  <polyline points="143.995,165.000,132.005,140.000,140.002,123.338"  style="fill:none;stroke:#000;stroke-width:0.1953;opacity:1"/>
  <polyline points="139.002,121.255,130.005,140.000"  style="fill:none;stroke:#000;stroke-width:0.1953;opacity:1"/>
  <polyline points="134.005,140.000,141.002,125.422"  style="fill:none;stroke:#000;stroke-width:0.1953;opacity:1"/>
  <polyline points="142.002,127.505,136.005,140.000,147.995,165.000"  style="fill:none;stroke:#000;stroke-width:0.1953;opacity:1"/>
  <polyline points="147.333,165.000,162.284,173.632"  style="fill:none;stroke:#000;stroke-width:0.1953;opacity:1"/>
  <polyline points="160.575,173.511,145.833,165.000"  style="fill:none;stroke:#000;stroke-width:0.1953;opacity:1"/>
  <polyline points="148.833,165.000,163.993,173.752"  style="fill:none;stroke:#000;stroke-width:0.1953;opacity:1"/>
  <polyline points="165.702,173.873,150.333,165.000"  style="fill:none;stroke:#000;stroke-width:0.1953;opacity:1"/>
  <polyline points="151.833,165.000,167.411,173.994"  style="fill:none;stroke:#000;stroke-width:0.1953;opacity:1"/>
  <polyline points="166.917,172.843,153.333,165.000"  style="fill:none;stroke:#000;stroke-width:0.1953;opacity:1"/>
  <polyline points="151.995,165.000,140.000,140.010,144.002,131.672"  style="fill:none;stroke:#000;stroke-width:0.1953;opacity:1"/>
  <polyline points="145.002,133.755,142.005,140.000"  style="fill:none;stroke:#000;stroke-width:0.1953;opacity:1"/>
  <polyline points="138.005,140.000,143.002,129.588"  style="fill:none;stroke:#000;stroke-width:0.1953;opacity:1"/>
  <polyline points="146.002,135.838,144.005,140.000,155.995,165.000"  style="fill:none;stroke:#000;stroke-width:0.1953;opacity:1"/>
  <polyline points="156.333,165.000,165.687,170.400"  style="fill:none;stroke:#000;stroke-width:0.1953;opacity:1"/>
  <polyline points="166.302,171.621,154.833,165.000"  style="fill:none;stroke:#000;stroke-width:0.1953;opacity:1"/>
  <polyline points="157.833,165.000,165.071,169.179"  style="fill:none;stroke:#000;stroke-width:0.1953;opacity:1"/>
  <polyline points="164.456,167.958,159.333,165.000"  style="fill:none;stroke:#000;stroke-width:0.1953;opacity:1"/>
  <polyline points="159.995,165.000,148.000,140.010"  style="fill:none;stroke:#000;stroke-width:0.1953;opacity:1"/>
  <polyline points="146.005,140.000,147.002,137.922"  style="fill:none;stroke:#000;stroke-width:0.1953;opacity:1"/>
  <polyline points="152.294,147.080,154.614,148.419"  style="fill:none;stroke:#000;stroke-width:0.1953;opacity:1"/>
  <polyline points="155.229,149.640,151.630,147.562"  style="fill:none;stroke:#000;stroke-width:0.1953;opacity:1"/>
  <polyline points="152.205,148.760,155.844,150.861"  style="fill:none;stroke:#000;stroke-width:0.1953;opacity:1"/>
  <polyline points="156.459,152.082,152.780,149.958"  style="fill:none;stroke:#000;stroke-width:0.1953;opacity:1"/>
  <polyline points="153.355,151.156,157.075,153.304"  style="fill:none;stroke:#000;stroke-width:0.1953;opacity:1"/>
  <polyline points="157.690,154.525,153.930,152.354"  style="fill:none;stroke:#000;stroke-width:0.1953;opacity:1"/>
  <polyline points="154.505,153.552,158.305,155.746"  style="fill:none;stroke:#000;stroke-width:0.1953;opacity:1"/>
  <polyline points="158.920,156.967,155.080,154.750"  style="fill:none;stroke:#000;stroke-width:0.1953;opacity:1"/>
  <polyline points="155.655,155.948,159.535,158.188"  style="fill:none;stroke:#000;stroke-width:0.1953;opacity:1"/>
  <polyline points="160.150,159.410,156.230,157.146"  style="fill:none;stroke:#000;stroke-width:0.1953;opacity:1"/>
  <polyline points="156.805,158.344,160.765,160.631"  style="fill:none;stroke:#000;stroke-width:0.1953;opacity:1"/>
  <polyline points="161.381,161.852,157.380,159.542"  style="fill:none;stroke:#000;stroke-width:0.1953;opacity:1"/>
  <polyline points="157.955,160.740,161.996,163.073"  style="fill:none;stroke:#000;stroke-width:0.1953;opacity:1"/>
  <polyline points="162.611,164.294,158.530,161.938"  style="fill:none;stroke:#000;stroke-width:0.1953;opacity:1"/>
  <polyline points="159.105,163.136,163.226,165.515"  style="fill:none;stroke:#000;stroke-width:0.1953;opacity:1"/>
  <polyline points="163.841,166.737,159.681,164.334"  style="fill:none;stroke:#000;stroke-width:0.1953;opacity:1"/>
  <polyline points="152.030,172.908,138.333,165.000"  style="fill:none;stroke:#000;stroke-width:0.1953;opacity:1"/>
  <polyline points="136.833,165.000,150.321,172.787"  style="fill:none;stroke:#000;stroke-width:0.1953;opacity:1"/>
  <polyline points="148.613,172.667,135.333,165.000"  style="fill:none;stroke:#000;stroke-width:0.1953;opacity:1"/>
  <polyline points="135.995,165.000,124.000,140.010,136.000,115.010,124.000,90.010"  style="fill:none;stroke:#000;stroke-width:0.1953;opacity:1"/>
  <polyline points="122.005,90.000,123.002,87.922"  style="fill:none;stroke:#000;stroke-width:0.1953;opacity:1"/>
  <polyline points="122.002,85.838,120.005,90.000,131.995,115.000,120.005,140.000,131.995,165.000"  style="fill:none;stroke:#000;stroke-width:0.1953;opacity:1"/>
  <polyline points="132.333,165.000,145.195,172.426"  style="fill:none;stroke:#000;stroke-width:0.1953;opacity:1"/>
  <polyline points="143.486,172.305,130.833,165.000"  style="fill:none;stroke:#000;stroke-width:0.1953;opacity:1"/>
  <polyline points="129.333,165.000,141.777,172.184"  style="fill:none;stroke:#000;stroke-width:0.1953;opacity:1"/>
  <polyline points="140.068,172.064,127.833,165.000"  style="fill:none;stroke:#000;stroke-width:0.1953;opacity:1"/>
  <polyline points="127.995,165.000,116.000,140.010,128.000,115.010,116.005,90.000,120.002,81.672"  style="fill:none;stroke:#000;stroke-width:0.1953;opacity:1"/>
  <polyline points="121.002,83.755,118.005,90.000"  style="fill:none;stroke:#000;stroke-width:0.1953;opacity:1"/>
  <polyline points="114.005,90.000,119.002,79.588"  style="fill:none;stroke:#000;stroke-width:0.1953;opacity:1"/>
  <polyline points="118.002,77.505,112.005,90.000,124.000,115.010,112.000,140.010,123.995,165.000"  style="fill:none;stroke:#000;stroke-width:0.1953;opacity:1"/>
  <polyline points="123.333,165.000,134.941,171.702"  style="fill:none;stroke:#000;stroke-width:0.1953;opacity:1"/>
  <polyline points="133.232,171.581,121.833,165.000"  style="fill:none;stroke:#000;stroke-width:0.1953;opacity:1"/>
  <polyline points="120.333,165.000,131.523,171.460"  style="fill:none;stroke:#000;stroke-width:0.1953;opacity:1"/>
  <polyline points="129.814,171.340,118.833,165.000"  style="fill:none;stroke:#000;stroke-width:0.1953;opacity:1"/>
  <polyline points="119.995,165.000,108.000,140.010,120.000,115.010,108.000,90.010,116.002,73.338"  style="fill:none;stroke:#000;stroke-width:0.1953;opacity:1"/>
  <polyline points="115.002,71.255,106.005,90.000"  style="fill:none;stroke:#000;stroke-width:0.1953;opacity:1"/>
  <polyline points="110.005,90.000,117.002,75.422"  style="fill:none;stroke:#000;stroke-width:0.1953;opacity:1"/>
  <polyline points="114.002,69.172,104.005,90.000,115.995,115.000,104.005,140.000,115.995,165.000"  style="fill:none;stroke:#000;stroke-width:0.1953;opacity:1"/>
  <polyline points="115.833,165.000,126.396,171.099"  style="fill:none;stroke:#000;stroke-width:0.1953;opacity:1"/>
  <polyline points="128.105,171.219,117.333,165.000"  style="fill:none;stroke:#000;stroke-width:0.1953;opacity:1"/>
  <polyline points="114.333,165.000,124.687,170.978"  style="fill:none;stroke:#000;stroke-width:0.1953;opacity:1"/>
  <polyline points="122.978,170.857,112.833,165.000"  style="fill:none;stroke:#000;stroke-width:0.1953;opacity:1"/>
  <polyline points="111.995,165.000,100.000,140.010,112.000,115.010,100.000,90.010,111.995,65.000,100.000,40.010"  style="fill:none;stroke:#000;stroke-width:0.1953;opacity:1"/>
  <polyline points="100.450,40.937,100.481,40.955"  style="fill:none;stroke:#000;stroke-width:0.1953;opacity:1"/>
  <polyline points="101.025,42.135,101.096,42.176"  style="fill:none;stroke:#000;stroke-width:0.1953;opacity:1"/>
  <polyline points="101.600,43.333,101.711,43.397"  style="fill:none;stroke:#000;stroke-width:0.1953;opacity:1"/>
  <polyline points="102.175,44.531,102.327,44.619"  style="fill:none;stroke:#000;stroke-width:0.1953;opacity:1"/>
  <polyline points="102.750,45.729,102.942,45.840"  style="fill:none;stroke:#000;stroke-width:0.1953;opacity:1"/>
  <polyline points="103.325,46.927,103.557,47.061"  style="fill:none;stroke:#000;stroke-width:0.1953;opacity:1"/>
  <polyline points="103.900,48.125,104.172,48.282"  style="fill:none;stroke:#000;stroke-width:0.1953;opacity:1"/>
  <polyline points="104.475,49.323,104.787,49.503"  style="fill:none;stroke:#000;stroke-width:0.1953;opacity:1"/>
  <polyline points="105.050,50.521,105.402,50.724"  style="fill:none;stroke:#000;stroke-width:0.1953;opacity:1"/>
  <polyline points="105.625,51.719,106.017,51.946"  style="fill:none;stroke:#000;stroke-width:0.1953;opacity:1"/>
  <polyline points="106.200,52.917,106.633,53.167"  style="fill:none;stroke:#000;stroke-width:0.1953;opacity:1"/>
  <polyline points="106.775,54.115,107.248,54.388"  style="fill:none;stroke:#000;stroke-width:0.1953;opacity:1"/>
  <polyline points="107.350,55.313,107.863,55.609"  style="fill:none;stroke:#000;stroke-width:0.1953;opacity:1"/>
  <polyline points="107.925,56.511,108.478,56.830"  style="fill:none;stroke:#000;stroke-width:0.1953;opacity:1"/>
  <polyline points="108.501,57.709,109.093,58.052"  style="fill:none;stroke:#000;stroke-width:0.1953;opacity:1"/>
  <polyline points="109.076,58.907,109.708,59.273"  style="fill:none;stroke:#000;stroke-width:0.1953;opacity:1"/>
  <polyline points="109.651,60.105,110.323,60.494"  style="fill:none;stroke:#000;stroke-width:0.1953;opacity:1"/>
  <polyline points="110.226,61.303,110.939,61.715"  style="fill:none;stroke:#000;stroke-width:0.1953;opacity:1"/>
  <polyline points="110.801,62.502,111.554,62.936"  style="fill:none;stroke:#000;stroke-width:0.1953;opacity:1"/>
  <polyline points="111.376,63.700,112.169,64.157"  style="fill:none;stroke:#000;stroke-width:0.1953;opacity:1"/>
  <polyline points="111.951,64.898,112.784,65.379"  style="fill:none;stroke:#000;stroke-width:0.1953;opacity:1"/>
  <polyline points="111.869,66.583,109.128,65.000"  style="fill:none;stroke:#000;stroke-width:0.1953;opacity:1"/>
  <polyline points="107.628,65.000,109.919,66.323"  style="fill:none;stroke:#000;stroke-width:0.1953;opacity:1"/>
  <polyline points="107.968,66.062,106.128,65.000"  style="fill:none;stroke:#000;stroke-width:0.1953;opacity:1"/>
  <polyline points="91.998,56.672,95.995,65.000,84.000,90.010,96.000,115.010,84.000,140.010,95.995,165.000"  style="fill:none;stroke:#000;stroke-width:0.1953;opacity:1"/>
  <polyline points="96.333,165.000,104.180,169.530"  style="fill:none;stroke:#000;stroke-width:0.1953;opacity:1"/>
  <polyline points="102.471,169.410,94.833,165.000"  style="fill:none;stroke:#000;stroke-width:0.1953;opacity:1"/>
  <polyline points="93.333,165.000,100.762,169.289"  style="fill:none;stroke:#000;stroke-width:0.1953;opacity:1"/>
  <polyline points="99.053,169.168,91.833,165.000"  style="fill:none;stroke:#000;stroke-width:0.1953;opacity:1"/>
  <polyline points="91.995,165.000,80.005,140.000,91.995,115.000,80.005,90.000,91.995,65.000,89.998,60.838"  style="fill:none;stroke:#000;stroke-width:0.1953;opacity:1"/>
  <polyline points="93.998,52.505,99.995,65.000,88.005,90.000,100.000,115.010,88.000,140.010,99.995,165.000"  style="fill:none;stroke:#000;stroke-width:0.1953;opacity:1"/>
  <polyline points="99.333,165.000,107.598,169.772"  style="fill:none;stroke:#000;stroke-width:0.1953;opacity:1"/>
  <polyline points="105.889,169.651,97.833,165.000"  style="fill:none;stroke:#000;stroke-width:0.1953;opacity:1"/>
  <polyline points="100.833,165.000,109.307,169.892"  style="fill:none;stroke:#000;stroke-width:0.1953;opacity:1"/>
  <polyline points="111.016,170.013,102.333,165.000"  style="fill:none;stroke:#000;stroke-width:0.1953;opacity:1"/>
  <polyline points="103.833,165.000,112.725,170.134"  style="fill:none;stroke:#000;stroke-width:0.1953;opacity:1"/>
  <polyline points="114.434,170.254,105.333,165.000"  style="fill:none;stroke:#000;stroke-width:0.1953;opacity:1"/>
  <polyline points="103.995,165.000,92.000,140.010"  style="fill:none;stroke:#000;stroke-width:0.1953;opacity:1"/>
  <polyline points="92.700,141.251,90.532,140.000"  style="fill:none;stroke:#000;stroke-width:0.1953;opacity:1"/>
  <polyline points="93.856,141.053,92.032,140.000,104.000,115.010,92.000,90.010,104.000,65.010,95.998,48.338"  style="fill:none;stroke:#000;stroke-width:0.1953;opacity:1"/>
  <polyline points="97.998,44.172,107.995,65.000,96.005,90.000,107.995,115.000,96.005,140.000,107.995,165.000"  style="fill:none;stroke:#000;stroke-width:0.1953;opacity:1"/>
  <polyline points="108.333,165.000,117.852,170.495"  style="fill:none;stroke:#000;stroke-width:0.1953;opacity:1"/>
  <polyline points="116.143,170.375,106.833,165.000"  style="fill:none;stroke:#000;stroke-width:0.1953;opacity:1"/>
  <polyline points="109.833,165.000,119.561,170.616"  style="fill:none;stroke:#000;stroke-width:0.1953;opacity:1"/>
  <polyline points="121.270,170.737,111.333,165.000"  style="fill:none;stroke:#000;stroke-width:0.1953;opacity:1"/>
  <polyline points="124.833,165.000,136.650,171.822"  style="fill:none;stroke:#000;stroke-width:0.1953;opacity:1"/>
  <polyline points="138.359,171.943,126.333,165.000"  style="fill:none;stroke:#000;stroke-width:0.1953;opacity:1"/>
  <polyline points="133.833,165.000,146.904,172.546"  style="fill:none;stroke:#000;stroke-width:0.1953;opacity:1"/>
  <polyline points="126.005,140.000,137.002,117.088"  style="fill:none;stroke:#000;stroke-width:0.1953;opacity:1"/>
  <polyline points="138.620,116.668,135.731,115.000"  style="fill:none;stroke:#000;stroke-width:0.1953;opacity:1"/>
  <polyline points="135.528,114.017,138.005,115.447"  style="fill:none;stroke:#000;stroke-width:0.1953;opacity:1"/>
  <polyline points="137.390,114.226,134.953,112.819"  style="fill:none;stroke:#000;stroke-width:0.1953;opacity:1"/>
  <polyline points="134.378,111.621,136.775,113.005"  style="fill:none;stroke:#000;stroke-width:0.1953;opacity:1"/>
  <polyline points="136.160,111.783,133.803,110.423"  style="fill:none;stroke:#000;stroke-width:0.1953;opacity:1"/>
  <polyline points="133.228,109.225,135.544,110.562"  style="fill:none;stroke:#000;stroke-width:0.1953;opacity:1"/>
  <polyline points="134.929,109.341,132.653,108.027"  style="fill:none;stroke:#000;stroke-width:0.1953;opacity:1"/>
  <polyline points="132.078,106.829,134.314,108.120"  style="fill:none;stroke:#000;stroke-width:0.1953;opacity:1"/>
  <polyline points="133.699,106.899,131.503,105.631"  style="fill:none;stroke:#000;stroke-width:0.1953;opacity:1"/>
  <polyline points="130.928,104.433,133.084,105.678"  style="fill:none;stroke:#000;stroke-width:0.1953;opacity:1"/>
  <polyline points="132.469,104.456,130.353,103.235"  style="fill:none;stroke:#000;stroke-width:0.1953;opacity:1"/>
  <polyline points="129.778,102.037,131.854,103.235"  style="fill:none;stroke:#000;stroke-width:0.1953;opacity:1"/>
  <polyline points="131.238,102.014,129.203,100.839"  style="fill:none;stroke:#000;stroke-width:0.1953;opacity:1"/>
  <polyline points="128.627,99.641,130.623,100.793"  style="fill:none;stroke:#000;stroke-width:0.1953;opacity:1"/>
  <polyline points="130.008,99.572,128.052,98.443"  style="fill:none;stroke:#000;stroke-width:0.1953;opacity:1"/>
  <polyline points="127.477,97.245,129.393,98.350"  style="fill:none;stroke:#000;stroke-width:0.1953;opacity:1"/>
  <polyline points="128.778,97.129,126.902,96.046"  style="fill:none;stroke:#000;stroke-width:0.1953;opacity:1"/>
  <polyline points="128.163,95.908,126.327,94.848"  style="fill:none;stroke:#000;stroke-width:0.1953;opacity:1"/>
  <polyline points="127.548,94.687,125.752,93.650"  style="fill:none;stroke:#000;stroke-width:0.1953;opacity:1"/>
  <polyline points="129.731,115.000,138.659,120.154"  style="fill:none;stroke:#000;stroke-width:0.1953;opacity:1"/>
  <polyline points="139.850,119.111,132.731,115.000"  style="fill:none;stroke:#000;stroke-width:0.1953;opacity:1"/>
  <polyline points="134.000,115.010,122.005,140.000"  style="fill:none;stroke:#000;stroke-width:0.1953;opacity:1"/>
  <polyline points="118.005,140.000,130.000,115.010"  style="fill:none;stroke:#000;stroke-width:0.1953;opacity:1"/>
  <polyline points="131.231,115.000,140.466,120.332"  style="fill:none;stroke:#000;stroke-width:0.1953;opacity:1"/>
  <polyline points="139.235,117.889,134.231,115.000"  style="fill:none;stroke:#000;stroke-width:0.1953;opacity:1"/>
  <polyline points="97.344,169.048,90.333,165.000"  style="fill:none;stroke:#000;stroke-width:0.1953;opacity:1"/>
  <polyline points="88.833,165.000,95.635,168.927"  style="fill:none;stroke:#000;stroke-width:0.1953;opacity:1"/>
  <polyline points="70.001,167.118,66.333,165.000"  style="fill:none;stroke:#000;stroke-width:0.1953;opacity:1"/>
  <polyline points="64.875,166.756,61.833,165.000"  style="fill:none;stroke:#000;stroke-width:0.1953;opacity:1"/>
  <polyline points="61.457,166.515,58.833,165.000"  style="fill:none;stroke:#000;stroke-width:0.1953;opacity:1"/>
  <polyline points="57.333,165.000,59.748,166.394"  style="fill:none;stroke:#000;stroke-width:0.1953;opacity:1"/>
  <polyline points="58.039,166.273,55.833,165.000"  style="fill:none;stroke:#000;stroke-width:0.1953;opacity:1"/>
  <polyline points="55.995,165.000,47.998,148.338"  style="fill:none;stroke:#000;stroke-width:0.1953;opacity:1"/>
  <polyline points="45.998,152.505,51.995,165.000"  style="fill:none;stroke:#000;stroke-width:0.1953;opacity:1"/>
  <polyline points="51.333,165.000,52.912,165.911"  style="fill:none;stroke:#000;stroke-width:0.1953;opacity:1"/>
  <polyline points="52.833,165.000,54.621,166.032"  style="fill:none;stroke:#000;stroke-width:0.1953;opacity:1"/>
  <polyline points="54.333,165.000,56.330,166.153"  style="fill:none;stroke:#000;stroke-width:0.1953;opacity:1"/>
  <polyline points="51.203,165.791,49.833,165.000"  style="fill:none;stroke:#000;stroke-width:0.1953;opacity:1"/>
  <polyline points="49.494,165.670,48.333,165.000"  style="fill:none;stroke:#000;stroke-width:0.1953;opacity:1"/>
  <polyline points="47.995,165.000,43.998,156.672"  style="fill:none;stroke:#000;stroke-width:0.1953;opacity:1"/>
  <polyline points="41.998,160.838,43.995,165.000"  style="fill:none;stroke:#000;stroke-width:0.1953;opacity:1"/>
  <polyline points="43.833,165.000,44.367,165.308"  style="fill:none;stroke:#000;stroke-width:0.1953;opacity:1"/>
  <polyline points="45.333,165.000,46.076,165.429"  style="fill:none;stroke:#000;stroke-width:0.1953;opacity:1"/>
  <polyline points="46.833,165.000,47.785,165.550"  style="fill:none;stroke:#000;stroke-width:0.1953;opacity:1"/>
  <polyline points="42.658,165.188,42.333,165.000"  style="fill:none;stroke:#000;stroke-width:0.1953;opacity:1"/>
  <polyline points="40.949,165.067,40.833,165.000"  style="fill:none;stroke:#000;stroke-width:0.1953;opacity:1"/>
  <polyline points="100.000,29.000,101.763,32.573,105.706,33.146,102.853,35.927,103.527,39.854,100.000,38.000,96.473,39.854,97.147,35.927,94.294,33.146,98.237,32.573,100.000,29.000"  style="fill:none;stroke:#000;stroke-width:0.1953;opacity:1"/>
</svg>