<?xml version="1.0" encoding="UTF-8" standalone="no"?>
<svg
   xmlns:dc="http://purl.org/dc/elements/1.1/"
   xmlns:cc="http://creativecommons.org/ns#"
   xmlns:rdf="http://www.w3.org/1999/02/22-rdf-syntax-ns#"
   xmlns:svg="http://www.w3.org/2000/svg"
   xmlns="http://www.w3.org/2000/svg"
   xmlns:sodipodi="http://sodipodi.sourceforge.net/DTD/sodipodi-0.dtd"
   xmlns:inkscape="http://www.inkscape.org/namespaces/inkscape"
   version="1.1"
   width="93.11972"
   height="136.06091"
   overflow="visible"
   viewBox="0 0 93.11972 136.06091"
   enable-background="new 0.0 0.0 1003.0 557.0"
   id="svg11398"
   inkscape:version="0.48.0 r9654"
   sodipodi:docname="Weedle - Dream World.svg"
   style="overflow:visible">
  <metadata
     id="metadata11570">
    <rdf:RDF>
      <cc:Work
         rdf:about="">
        <dc:format>image/svg+xml</dc:format>
        <dc:type
           rdf:resource="http://purl.org/dc/dcmitype/StillImage" />
        <dc:title />
      </cc:Work>
    </rdf:RDF>
  </metadata>
  <sodipodi:namedview
     pagecolor="#ffffff"
     bordercolor="#666666"
     borderopacity="1"
     objecttolerance="10"
     gridtolerance="10"
     guidetolerance="10"
     inkscape:pageopacity="0"
     inkscape:pageshadow="2"
     inkscape:window-width="1366"
     inkscape:window-height="712"
     id="namedview11568"
     showgrid="false"
     fit-margin-top="0"
     fit-margin-left="0"
     fit-margin-right="0"
     fit-margin-bottom="0"
     inkscape:zoom="0.47856431"
     inkscape:cx="501.56694"
     inkscape:cy="-142.39334"
     inkscape:window-x="-4"
     inkscape:window-y="-4"
     inkscape:window-maximized="1"
     inkscape:current-layer="svg11398" />
  <defs
     id="defs11400" />
        <path
           d="m 85.2,82.95 c -2.3,-0.2 -4.31666,-1.15 -6.05,-2.85 -1.03333,-1 -1.6,-2.5 -1.7,-4.5 L 77.1,71.05 C 76.9,70.35 76.41667,69.566666 75.65,68.7 L 73.4,66.5 c -0.76667,-0.73333 -1.100005,-1.26666 -1,-1.6 0.06667,-0.333334 0.65,-0.51667 1.75,-0.55 7.06667,-0.266664 12.21667,1.16667 15.45,4.3 2.066664,2 3.11667,4.38333 3.15,7.15 0.03333,2.533336 -0.71667,4.43334 -2.25,5.7 -1.4,1.13333 -3.16667,1.61666 -5.3,1.45 z"
           id="path11410"
           inkscape:connector-curvature="0"
           style="fill:#0d131a;stroke-linecap:round;stroke-linejoin:round" />
        <path
           d="m 91.2,75.4 c 0.133336,2.06667 -0.38333,3.63333 -1.55,4.7 -1.23333,1.13334 -2.73333,1.65001 -4.5,1.55 -1.8,-0.16666 -3.45,-0.966666 -4.95,-2.4 -0.83334,-0.799995 -1.33334,-2.149994 -1.5,-4.05 l -0.35,-4.45 c -0.26667,-1.1 -1.21667,-2.36667 -2.85,-3.8 L 74.3,65.7 c -0.03333,-0.23333 0.533336,-0.31667 1.7,-0.25 5.76667,0.4 9.933334,1.85 12.5,4.35 1.63333,1.56667 2.53333,3.43334 2.7,5.6 z"
           id="path11412"
           inkscape:connector-curvature="0"
           style="fill:#cad3cc;stroke-linecap:round;stroke-linejoin:round" />
        <path
           d="m 91.15,77.05 c -0.2,1.3 -0.7,2.31666 -1.5,3.05 -1.23333,1.13334 -2.73333,1.65001 -4.5,1.55 -1.8,-0.16666 -3.45,-0.966666 -4.95,-2.4 -0.533336,-0.46667 -0.900005,-1.1 -1.1,-1.9 2.5,1.26667 4.91666,1.51667 7.25,0.75 2.466666,-0.76667 3.9,-2.433336 4.3,-5 0.533334,1.333334 0.7,2.65 0.5,3.95 z"
           id="path11414"
           inkscape:connector-curvature="0"
           style="fill:#a6ada8;stroke-linecap:round;stroke-linejoin:round" />
        <path
           d="m 81,98.55 c -3,-0.33333 -5.21667,-1.5 -6.65,-3.5 -1.666666,-2.33333 -2.45,-4.76667 -2.35,-7.3 0.06667,-2.76667 1.166664,-4.9 3.3,-6.4 2.033336,-1.46667 4.35,-1.95 6.95,-1.45 2.76667,0.5 5.03334,1.98333 6.8,4.45 1.56667,2.2 2.16667,4.61667 1.8,7.25 -0.36666,2.66666 -1.61666,4.66666 -3.75,6 -1.46667,0.93333 -3.5,1.25 -6.1,0.95 z"
           id="path11416"
           inkscape:connector-curvature="0"
           style="fill:#0d131a;stroke-linecap:round;stroke-linejoin:round" />
        <path
           d="m 76.3,82.4 c 1.73333,-1.23333 3.7,-1.6 5.9,-1.1 2.2,0.533336 4.000005,1.766666 5.4,3.7 1.4,1.96667 1.983336,4.083336 1.75,6.35 -0.23333,2.23333 -1.21666,3.966666 -2.95,5.2 -1.73333,1.23333 -3.699995,1.6 -5.9,1.1 -2.200005,-0.5 -4.00001,-1.733336 -5.4,-3.7 -1.4,-1.93333 -1.98334,-4.03333 -1.75,-6.3 0.23333,-2.26667 1.216666,-4.01667 2.95,-5.25 z"
           id="path11418"
           inkscape:connector-curvature="0"
           style="fill:#e3c582;stroke-linecap:round;stroke-linejoin:round" />
        <path
           d="m 87.35,89.4 c 0.5,-1.16666 0.699995,-2.43333 0.6,-3.8 1.2,1.9 1.650006,3.9 1.35,6 -0.3,2.13334 -1.26667,3.78334 -2.9,4.95 -1.73333,1.23333 -3.699995,1.6 -5.9,1.1 -2.200005,-0.5 -4.00001,-1.733336 -5.4,-3.7 -1.06667,-1.533336 -1.65,-3.11667 -1.75,-4.75 l 0.35,0.55 c 1.4,1.96667 3.2,3.2 5.4,3.7 2.2,0.5 4.16667,0.13333 5.9,-1.1 1.066666,-0.73333 1.85,-1.71666 2.35,-2.95 z"
           id="path11420"
           inkscape:connector-curvature="0"
           style="fill:#bfa56f;stroke-linecap:round;stroke-linejoin:round" />
        <path
           d="m 68.15,91.6 c 2.06667,-1.83334 4.61667,-2.550005 7.65,-2.15 3.033336,0.366666 5.650005,1.733334 7.85,4.1 2.2,2.400005 3.25,5.23334 3.15,8.5 -0.09999,3.06667 -1.116666,5.40001 -3.05,7 -2.03333,1.73333 -4.583336,2.46666 -7.65,2.2 -3.26667,-0.26667 -5.98334,-1.65 -8.15,-4.15 -2.2,-2.56667 -3.23333,-5.38333 -3.1,-8.45 0.13334,-2.93333 1.233336,-5.28333 3.3,-7.05 z"
           id="path11422"
           inkscape:connector-curvature="0"
           style="fill:#0d131a;stroke-linecap:round;stroke-linejoin:round" />
        <path
           d="m 66.2,99.15 c 0.03333,-2.66666 1,-4.816664 2.9,-6.45 1.86667,-1.633334 4.11667,-2.283336 6.75,-1.95 2.66666,0.36667 4.91666,1.61667 6.75,3.75 1.86667,2.13333 2.78333,4.53333 2.75,7.2 0,2.66666 -0.95,4.81666 -2.85,6.45 -1.86667,1.63333 -4.11667,2.26666 -6.75,1.9 -2.63333,-0.33333 -4.88333,-1.56667 -6.75,-3.7 -1.86667,-2.13333 -2.8,-4.53333 -2.8,-7.2 z"
           id="path11424"
           inkscape:connector-curvature="0"
           style="fill:#e3c582;stroke-linecap:round;stroke-linejoin:round" />
        <path
           d="m 82.5,108.15 c -1.86667,1.63333 -4.11667,2.26666 -6.75,1.9 -2.63333,-0.33333 -4.88333,-1.56667 -6.75,-3.7 -1.46667,-1.66667 -2.35,-3.51666 -2.65,-5.55 l 0.55,0.65 c 1.86666,2.13334 4.11666,3.36667 6.75,3.7 2.63333,0.36666 4.88333,-0.26667 6.75,-1.9 1.13333,-0.96667 1.933336,-2.18333 2.4,-3.65 0.46667,-1.4 0.58334,-2.88333 0.35,-4.45 1.6,2.1 2.33333,4.4 2.2,6.9 -0.1,2.53334 -1.05,4.56667 -2.85,6.1 z"
           id="path11426"
           inkscape:connector-curvature="0"
           style="fill:#bfa56f;stroke-linecap:round;stroke-linejoin:round" />
        <path
           d="m 54.55,101.55 c 2.33333,-2.53333 5.3,-3.949994 8.9,-4.25 3.733334,-0.33333 7.133336,0.91667 10.2,3.75 3.033334,2.76667 4.63333,5.96666 4.8,9.6 0.2,3.6 -1.116664,6.55 -3.95,8.85 -2.26667,1.86667 -4.583336,2.81667 -6.95,2.85 -4.4,0.0667 -8.1,-1.06667 -11.1,-3.4 -3.133334,-2.46667 -4.800002,-5.66667 -5,-9.6 -0.133334,-2.86666 0.9,-5.46666 3.1,-7.8 z"
           id="path11428"
           inkscape:connector-curvature="0"
           style="fill:#0d131a;stroke-linecap:round;stroke-linejoin:round" />
        <path
           d="m 66.6,121.1 c -3.133333,-0.0333 -5.933332,-1.16667 -8.4,-3.4 -2.466666,-2.23333 -3.883334,-4.9 -4.25,-8 -0.33333,-3.13333 0.483334,-5.78334 2.45,-7.95 1.933332,-2.166664 4.48333,-3.23333 7.65,-3.2 3.133334,0.03334 5.93333,1.16667 8.4,3.4 2.466664,2.23333 3.866666,4.9 4.2,8 0.36666,3.13334 -0.43334,5.78334 -2.4,7.95 -1.96667,2.16667 -4.51667,3.23333 -7.65,3.2 z"
           id="path11430"
           inkscape:connector-curvature="0"
           style="fill:#e3c582;stroke-linecap:round;stroke-linejoin:round" />
        <path
           d="m 74.45,104.2 c 1.53333,2.2 2.3,4.56667 2.3,7.1 -0.03333,2.56667 -0.86667,4.76667 -2.5,6.6 -1.96667,2.16667 -4.51667,3.23333 -7.65,3.2 -3.133333,-0.0333 -5.933332,-1.16667 -8.4,-3.4 -2.2,-1.93333 -3.56667,-4.31666 -4.1,-7.15 l 2,2.25 c 2.466666,2.23333 5.266665,3.36666 8.4,3.4 3.13333,0.0333 5.683334,-1.03334 7.65,-3.2 2.2,-2.43333 2.96666,-5.36667 2.3,-8.8 z"
           id="path11432"
           inkscape:connector-curvature="0"
           style="fill:#bfa56f;stroke-linecap:round;stroke-linejoin:round" />
        <path
           d="m 41.35,129.9 c -3.3,-1.6 -5.933332,-4.68333 -7.9,-9.25 -1.4,-3.26667 -1.450002,-6.73334 -0.15,-10.4 1.4,-4 4.1,-6.86667 8.1,-8.6 4.4,-1.9 9.049997,-1.93333 13.95,-0.1 4.9,1.8 8.283335,4.86666 10.15,9.2 1.566666,3.63333 1.5,7.4 -0.2,11.3 -1.93333,4.46667 -5.55,7.28334 -10.85,8.45 -5.366664,1.2 -9.733333,1 -13.1,-0.6 z"
           id="path11434"
           inkscape:connector-curvature="0"
           style="fill:#0d131a;stroke-linecap:round;stroke-linejoin:round" />
        <path
           d="m 34.95,109.65 c 1.43333,-3.56666 4.083333,-6.03333 7.95,-7.4 3.833334,-1.36667 7.766668,-1.23334 11.8,0.4 4,1.6 6.91667,4.23333 8.75,7.9 1.866666,3.66667 2.08333,7.26667 0.65,10.8 -1.433332,3.56666 -4.066663,6.03333 -7.9,7.4 -3.866664,1.36667 -7.816665,1.23334 -11.85,-0.4 -4.033334,-1.63333 -6.96667,-4.26667 -8.8,-7.9 -1.833333,-3.63333 -2.033334,-7.23333 -0.6,-10.8 z"
           id="path11436"
           inkscape:connector-curvature="0"
           style="fill:#e3c582;stroke-linecap:round;stroke-linejoin:round" />
        <path
           d="m 63.05,116.4 c 0.6,-1.43333 0.9,-3.03333 0.9,-4.8 1.33333,3.33333 1.38333,6.58333 0.15,9.75 -1.433332,3.56666 -4.066663,6.03333 -7.9,7.4 -3.866664,1.36667 -7.816665,1.23334 -11.85,-0.4 -3.1,-1.23333 -5.583334,-3.15 -7.45,-5.75 -1.83333,-2.53333 -2.78333,-5.25 -2.85,-8.15 0.8,1.96666 1.983333,3.71666 3.55,5.25 1.633334,1.59999 3.533335,2.83333 5.7,3.7 4.033332,1.63333 7.983333,1.76666 11.85,0.4 3.833334,-1.36667 6.466665,-3.83333 7.9,-7.4 z"
           id="path11438"
           inkscape:connector-curvature="0"
           style="fill:#bfa56f;stroke-linecap:round;stroke-linejoin:round" />
        <path
           d="m 41.4,134.55 c -5.966666,0.1 -10.683333,-1.56668 -14.15,-5 -2.966667,-2.9 -4.45,-6.3 -4.45,-10.2 0,-4.56667 1.55,-8.28333 4.65,-11.15 3.233332,-3.03334 7.6,-4.55 13.1,-4.55 5.2,0 9.533332,1.51666 13,4.55 3.3,2.9 4.95,6.36667 4.95,10.4 0,4.23333 -1.55,7.88333 -4.65,10.95 -3.233335,3.23333 -7.383333,4.9 -12.45,5 z"
           id="path11440"
           inkscape:connector-curvature="0"
           style="fill:#0d131a;stroke-linecap:round;stroke-linejoin:round" />
        <path
           d="m 29.15,108.95 c 3.133333,-2.8 6.933332,-4.2 11.4,-4.2 4.466666,0 8.283332,1.4 11.45,4.2 3.166668,2.8 4.75,6.16667 4.75,10.1 0,3.93333 -1.583332,7.29999 -4.75,10.1 -3.166668,2.76667 -6.983334,4.15 -11.45,4.15 -4.466668,0 -8.266667,-1.38333 -11.4,-4.15 -3.166666,-2.8 -4.75,-6.16666 -4.75,-10.1 0,-3.93333 1.583334,-7.3 4.75,-10.1 z"
           id="path11442"
           inkscape:connector-curvature="0"
           style="fill:#e3c582;stroke-linecap:round;stroke-linejoin:round" />
        <path
           d="m 53.95,113.45 c 0,-1 -0.116668,-1.95 -0.35,-2.85 2.1,2.53333 3.15,5.35 3.15,8.45 0,3.93333 -1.583332,7.29999 -4.75,10.1 -3.166668,2.76667 -6.983334,4.15 -11.45,4.15 -3.866666,0 -7.3,-1.08333 -10.3,-3.25 -2.933332,-2.16666 -4.783333,-4.9 -5.55,-8.2 1.5,1.8 3.383334,3.21667 5.65,4.25 2.3,1.06666 4.76667,1.6 7.4,1.6 4.466667,0 8.283333,-1.38333 11.45,-4.15 3.16667,-2.8 4.75,-6.16667 4.75,-10.1 z"
           id="path11444"
           inkscape:connector-curvature="0"
           style="fill:#bfa56f;stroke-linecap:round;stroke-linejoin:round" />
        <path
           d="m 54.55,94.8 c 3.366664,3.033336 5.05,6.7 5.05,11 0,4.5 -1.66667,8.16667 -5,11 -3.266668,2.8 -7.433336,4.21666 -12.5,4.25 -5.5,0.0333 -9.96667,-1.46666 -13.4,-4.5 -3.266668,-2.9 -4.9,-6.5 -4.9,-10.8 0,-4.56667 1.75,-8.333336 5.25,-11.3 3.4,-2.866664 7.583335,-4.3 12.55,-4.3 5.166666,0 9.483332,1.550005 12.95,4.65 z"
           id="path11446"
           inkscape:connector-curvature="0"
           style="fill:#0d131a;stroke-linecap:round;stroke-linejoin:round" />
        <path
           d="m 30.15,95.5 c 3.166666,-2.799995 6.98333,-4.2 11.45,-4.2 4.466666,0 8.266665,1.400005 11.4,4.2 3.166668,2.76667 4.75,6.11667 4.75,10.05 0,3.93333 -1.583332,7.3 -4.75,10.1 -3.133335,2.8 -6.933334,4.2 -11.4,4.2 -4.466665,0 -8.28333,-1.4 -11.45,-4.2 -3.166666,-2.76667 -4.75,-6.13334 -4.75,-10.1 0,-3.93333 1.583334,-7.28333 4.75,-10.05 z"
           id="path11448"
           inkscape:connector-curvature="0"
           style="fill:#e3c582;stroke-linecap:round;stroke-linejoin:round" />
        <path
           d="m 54.35,96.8 c 2.266665,2.6 3.4,5.51667 3.4,8.75 0,3.93333 -1.583332,7.3 -4.75,10.1 -3.133335,2.8 -6.933334,4.2 -11.4,4.2 -3.66667,0 -6.96667,-0.98333 -9.9,-2.95 -2.833333,-1.96667 -4.733333,-4.46667 -5.7,-7.5 1.5,1.7 3.35,3.05 5.55,4.05 2.3,1 4.716666,1.5 7.25,1.5 4.466666,0 8.266666,-1.40001 11.4,-4.2 3.16667,-2.79999 4.75,-6.16666 4.75,-10.1 0,-1.3 -0.2,-2.583334 -0.6,-3.85 z"
           id="path11450"
           inkscape:connector-curvature="0"
           style="fill:#bfa56f;stroke-linecap:round;stroke-linejoin:round" />
        <path
           d="m 38.55,70.85 c 6.1,0 11.300002,2 15.6,6 3.833334,3.566664 5.75,7.333334 5.75,11.3 0,5.33334 -2.066664,9.83334 -6.2,13.5 -4.1,3.7 -9.116668,5.55 -15.05,5.55 -5.466666,0 -10.25,-1.63333 -14.35,-4.9 -4.4,-3.53333 -6.6,-7.93333 -6.6,-13.2 0,-4.7 1.816666,-8.81667 5.45,-12.35 4,-3.933334 9.133333,-5.9 15.4,-5.9 z"
           id="path11452"
           inkscape:connector-curvature="0"
           style="fill:#0d131a;stroke-linecap:round;stroke-linejoin:round" />
        <path
           d="m 25.2,100.95 c -3.7,-3.266666 -5.55,-7.21666 -5.55,-11.85 0,-4.63333 1.85,-8.58333 5.55,-11.85 3.733332,-3.26667 8.216664,-4.9 13.45,-4.9 5.233335,0 9.700002,1.63333 13.4,4.9 3.7,3.26667 5.55,7.21667 5.55,11.85 0,4.63334 -1.85,8.583334 -5.55,11.85 -3.7,3.26667 -8.16667,4.9 -13.4,4.9 -5.233332,0 -9.716666,-1.63333 -13.45,-4.9 z"
           id="path11454"
           inkscape:connector-curvature="0"
           style="fill:#e3c582;stroke-linecap:round;stroke-linejoin:round" />
        <path
           d="m 54.65,80.05 c -3.133334,5.366664 -9.066668,8.43333 -17.8,9.2 l -10,-0.5 c -3.133333,-0.63333 -5.433332,-1.566666 -6.9,-2.8 0.866668,-3.900005 3.033334,-7.133334 6.5,-9.7 3.533334,-2.6 7.6,-3.9 12.2,-3.9 3.3,0 6.383333,0.699995 9.25,2.1 2.766668,1.366666 5.016668,3.233334 6.75,5.6 z"
           id="path11456"
           inkscape:connector-curvature="0"
           style="fill:#bfa56f;stroke-linecap:round;stroke-linejoin:round" />
        <path
           d="m 49.05,97.25 c 4.166667,-2.73333 6.783336,-6.98333 7.85,-12.75 0.466665,1.5 0.7,3.03333 0.7,4.6 0,4.63334 -1.85,8.583334 -5.55,11.85 -3.7,3.26667 -8.16667,4.9 -13.4,4.9 -4.033335,0 -7.700003,-1.01666 -11,-3.05 -3.2,-2.03333 -5.483332,-4.66666 -6.85,-7.9 1.8,1.83334 3.916667,3.26667 6.35,4.3 2.566667,1.06667 5.266668,1.6 8.1,1.6 5.633335,0 10.233334,-1.18333 13.8,-3.55 z"
           id="path11458"
           inkscape:connector-curvature="0"
           style="fill:#bfa56f;stroke-linecap:round;stroke-linejoin:round" />
        <path
           d="m 49.45,87.45 c 0,-1.7 0.616666,-3.2 1.85,-4.5 1.233333,-1.3 2.65,-1.95 4.25,-1.95 1.7,0 3.183334,0.61667 4.45,1.85 1.266666,1.26667 1.9,2.733336 1.9,4.4 0,1.700005 -0.616667,3.183334 -1.85,4.45 -1.233334,1.26667 -2.633336,1.9 -4.2,1.9 -2.16667,0 -3.833337,-0.71667 -5,-2.15 -0.933332,-1.133334 -1.4,-2.46667 -1.4,-4 z"
           id="path11460"
           inkscape:connector-curvature="0"
           style="fill:#0d131a;stroke-linecap:round;stroke-linejoin:round" />
        <path
           d="m 59,91.05 c -0.933334,1.033336 -2.083336,1.55 -3.45,1.55 -1.366666,0 -2.516667,-0.516664 -3.45,-1.55 -0.966665,-1.03333 -1.45,-2.28333 -1.45,-3.75 0,-1.43333 0.483335,-2.66667 1.45,-3.7 0.966666,-1.033334 2.116667,-1.55 3.45,-1.55 1.366664,0 2.516666,0.516666 3.45,1.55 0.966667,1.03333 1.45,2.26667 1.45,3.7 0,1.46667 -0.483333,2.71667 -1.45,3.75 z"
           id="path11462"
           inkscape:connector-curvature="0"
           style="fill:#e8528d;stroke-linecap:round;stroke-linejoin:round" />
        <path
           d="m 54.9,84.65 -0.5,0.95 -0.95,0.55 c -0.33333,0.03333 -0.616664,-0.05 -0.85,-0.25 -0.200002,-0.2 -0.266668,-0.46667 -0.2,-0.8 0.06667,-0.36666 0.233335,-0.7 0.5,-1 0.3,-0.26667 0.633333,-0.433336 1,-0.5 l 0.8,0.2 c 0.2,0.23333 0.266667,0.516666 0.2,0.85 z"
           id="path11464"
           inkscape:connector-curvature="0"
           style="fill:#f3b3c9;stroke-linecap:round;stroke-linejoin:round" />
        <path
           d="m 57.6,88.95 c 0.966666,-1.033336 1.45,-2.283336 1.45,-3.75 0,-0.7 -0.116666,-1.33333 -0.35,-1.9 1.16667,1 1.75,2.33334 1.75,4 0,1.46667 -0.483333,2.71667 -1.45,3.75 -0.933334,1.033336 -2.083336,1.55 -3.45,1.55 -1,0 -1.91667,-0.31667 -2.75,-0.95 -0.833333,-0.6 -1.43333,-1.4 -1.8,-2.4 0.899998,0.833336 1.949997,1.25 3.15,1.25 1.366666,0 2.516664,-0.51667 3.45,-1.55 z"
           id="path11466"
           inkscape:connector-curvature="0"
           style="fill:#c9467c;stroke-linecap:round;stroke-linejoin:round" />
        <path
           d="m 49.9,110.05 c 0.333334,-1.66666 1.23333,-2.93333 2.7,-3.8 1.33333,-0.83334 2.733332,-1.10001 4.2,-0.8 1.533332,0.3 2.733333,1.13334 3.6,2.5 0.866666,1.4 1.133333,2.93333 0.8,4.6 -0.3,1.36666 -1.08333,2.48333 -2.35,3.35 -1.366666,0.9 -2.866666,1.18334 -4.5,0.85 -1.66667,-0.36667 -2.91667,-1.23334 -3.75,-2.6 -0.766668,-1.26667 -1,-2.63334 -0.7,-4.1 z"
           id="path11468"
           inkscape:connector-curvature="0"
           style="fill:#0d131a;stroke-linecap:round;stroke-linejoin:round" />
        <path
           d="m 57.9,115.05 c -1.033335,0.73333 -2.150004,0.98333 -3.35,0.75 -1.2,-0.23333 -2.133336,-0.9 -2.8,-2 -0.633335,-1.09999 -0.81667,-2.28333 -0.55,-3.55 0.233334,-1.29999 0.866666,-2.31667 1.9,-3.05 1.033335,-0.73333 2.150004,-0.98333 3.35,-0.75 1.2,0.26667 2.133336,0.93333 2.8,2 0.633335,1.09999 0.81667,2.28333 0.55,3.55 -0.233334,1.29999 -0.866666,2.31667 -1.9,3.05 z"
           id="path11470"
           inkscape:connector-curvature="0"
           style="fill:#e8528d;stroke-linecap:round;stroke-linejoin:round" />
        <path
           d="m 55.4,108.65 -0.6,0.75 -1.65,-0.05 c -0.166666,-0.23333 -0.183333,-0.49999 -0.05,-0.8 0.1,-0.3 0.316668,-0.55 0.65,-0.75 0.3,-0.2 0.6,-0.28334 0.9,-0.25 0.333334,0 0.566667,0.11667 0.7,0.35 0.166666,0.2 0.183333,0.45 0.05,0.75 z"
           id="path11472"
           inkscape:connector-curvature="0"
           style="fill:#f3b3c9;stroke-linecap:round;stroke-linejoin:round" />
        <path
           d="m 57,112.95 c 1.066666,-0.76667 1.716667,-1.78333 1.95,-3.05 L 59,108.15 c 0.833332,1.16667 1.1,2.45 0.8,3.85 -0.233334,1.29999 -0.866666,2.31667 -1.9,3.05 -1.033335,0.73333 -2.150004,0.98333 -3.35,0.75 -0.9,-0.2 -1.666665,-0.65001 -2.3,-1.35 -0.600002,-0.7 -0.966667,-1.51667 -1.1,-2.45 0.633333,0.86667 1.48333,1.43333 2.55,1.7 1.16667,0.23333 2.266667,-0.0167 3.3,-0.75 z"
           id="path11474"
           inkscape:connector-curvature="0"
           style="fill:#c9467c;stroke-linecap:round;stroke-linejoin:round" />
        <path
           d="m 50.15,127.85 c 0.933332,-0.96667 2.1,-1.46667 3.5,-1.5 1.4,-0.0333 2.65,0.45 3.75,1.45 1.033334,0.9 1.616666,2.04999 1.75,3.45 0.133333,1.40001 -0.233336,2.55 -1.1,3.45 -0.93333,1 -2.18333,1.46667 -3.75,1.4 -1.5,-0.0333 -2.7,-0.50001 -3.6,-1.4 -1.033332,-1 -1.616664,-2.13333 -1.75,-3.4 -0.133334,-1.3 0.266667,-2.45 1.2,-3.45 z"
           id="path11476"
           inkscape:connector-curvature="0"
           style="fill:#0d131a;stroke-linecap:round;stroke-linejoin:round" />
        <path
           d="m 54.35,134.95 c -1.1,0.0333 -2.066667,-0.29999 -2.9,-1 -0.83333,-0.73333 -1.283332,-1.61666 -1.35,-2.65 -0.06667,-1.03334 0.266665,-1.93333 1,-2.7 0.733332,-0.76666 1.65,-1.16667 2.75,-1.2 1.066668,-0.0667 2.01667,0.26666 2.85,1 0.833333,0.73333 1.283334,1.61666 1.35,2.65 0.06667,1.06667 -0.266663,1.96666 -1,2.7 -0.733334,0.76666 -1.633336,1.16666 -2.7,1.2 z"
           id="path11478"
           inkscape:connector-curvature="0"
           style="fill:#e8528d;stroke-linecap:round;stroke-linejoin:round" />
        <path
           d="m 55,129.4 -0.75,0.25 -0.85,-0.25 c -0.233332,-0.13334 -0.366667,-0.31667 -0.4,-0.55 -0.03333,-0.23333 0.06667,-0.41667 0.3,-0.55 0.2,-0.16667 0.45,-0.23333 0.75,-0.2 l 0.85,0.25 0.4,0.5 -0.3,0.55 z"
           id="path11480"
           inkscape:connector-curvature="0"
           style="fill:#f3b3c9;stroke-linecap:round;stroke-linejoin:round" />
        <path
           d="m 57.25,131.9 c 0.366665,-0.33333 0.616665,-0.73333 0.75,-1.2 0.2,1.13333 -0.116665,2.14999 -0.95,3.05 -0.733334,0.76666 -1.633336,1.16666 -2.7,1.2 -1.1,0.0333 -2.066667,-0.29999 -2.9,-1 -0.633334,-0.53334 -1.033336,-1.18334 -1.2,-1.95 -0.2,-0.76666 -0.166668,-1.5 0.1,-2.2 0.1,0.86667 0.533335,1.63333 1.3,2.3 0.833334,0.7 1.8,1.03333 2.9,1 1.06667,-0.0333 1.96667,-0.43334 2.7,-1.2 z"
           id="path11482"
           inkscape:connector-curvature="0"
           style="fill:#c9467c;stroke-linecap:round;stroke-linejoin:round" />
        <path
           d="m 61.6,119.95 c 1,-0.63333 2.133334,-0.85 3.4,-0.65 1.299995,0.2 2.36666,0.81667 3.2,1.85 0.733334,0.9 1.05,1.95001 0.95,3.15 -0.1,1.26667 -0.68333,2.24999 -1.75,2.95 -0.9,0.56667 -2.03333,0.73334 -3.4,0.5 -1.333332,-0.23333 -2.333332,-0.75 -3,-1.55 -0.733334,-0.90001 -1.1,-1.93334 -1.1,-3.1 0,-1.36666 0.566667,-2.41667 1.7,-3.15 z"
           id="path11484"
           inkscape:connector-curvature="0"
           style="fill:#0d131a;stroke-linecap:round;stroke-linejoin:round" />
        <path
           d="m 66.55,122.85 c 0.16667,-0.76667 0.05,-1.5 -0.35,-2.2 l 1.1,0.9 c 0.6,0.76667 0.83333,1.58333 0.7,2.45 -0.13333,0.9 -0.58333,1.6 -1.35,2.1 -0.76667,0.5 -1.65,0.66666 -2.65,0.5 -0.966667,-0.16667 -1.75,-0.63333 -2.35,-1.4 l -0.3,-0.5 c 0.6,0.36667 1.250002,0.55 1.95,0.55 0.73333,0 1.383334,-0.18333 1.95,-0.55 0.700005,-0.43333 1.13334,-1.05 1.3,-1.85 z"
           id="path11486"
           inkscape:connector-curvature="0"
           style="fill:#c9467c;stroke-linecap:round;stroke-linejoin:round" />
        <path
           d="m 66.55,122.85 c -0.16666,0.8 -0.599995,1.41667 -1.3,1.85 -0.566666,0.36667 -1.21667,0.55 -1.95,0.55 -0.7,0 -1.350003,-0.18333 -1.95,-0.55 -0.4,-0.7 -0.516664,-1.43333 -0.35,-2.2 0.166668,-0.79999 0.600002,-1.41666 1.3,-1.85 0.56667,-0.36667 1.21667,-0.55 1.95,-0.55 0.700005,0 1.350006,0.18333 1.95,0.55 0.4,0.7 0.51667,1.43333 0.35,2.2 z"
           id="path11488"
           inkscape:connector-curvature="0"
           style="fill:#e8528d;stroke-linecap:round;stroke-linejoin:round" />
        <path
           d="m 64.55,120.8 c 0.266666,0.33334 0.116664,0.70001 -0.45,1.1 l -0.7,0.25 -0.6,-0.25 c -0.1,-0.13334 -0.1,-0.3 0,-0.5 0.06667,-0.23333 0.21667,-0.41666 0.45,-0.55 0.266666,-0.16667 0.516666,-0.25 0.75,-0.25 l 0.55,0.2 z"
           id="path11490"
           inkscape:connector-curvature="0"
           style="fill:#f3b3c9;stroke-linecap:round;stroke-linejoin:round" />
        <path
           d="m 77.2,110.75 c 1.133336,0.26667 2.05,0.85001 2.75,1.75 0.733334,0.93333 1.01667,1.93333 0.85,3 -0.133336,0.96667 -0.66667,1.73334 -1.6,2.3 -1.033336,0.63333 -2.23333,0.83333 -3.6,0.6 -1.1,-0.2 -1.96667,-0.76667 -2.6,-1.7 -0.53333,-0.86666 -0.75,-1.74999 -0.65,-2.65 0.1,-1.03333 0.61667,-1.9 1.55,-2.6 0.96667,-0.73333 2.06667,-0.96666 3.3,-0.7 z"
           id="path11492"
           inkscape:connector-curvature="0"
           style="fill:#0d131a;stroke-linecap:round;stroke-linejoin:round" />
        <path
           d="m 73.65,115.75 c 1.26667,0.70001 2.433336,0.68333 3.5,-0.05 0.63333,-0.40001 1.033334,-0.95 1.2,-1.65 0.13334,-0.66666 0.01667,-1.31666 -0.35,-1.95 0.433334,0.23333 0.76667,0.5 1,0.8 0.53333,0.66667 0.75,1.39999 0.65,2.2 -0.13334,0.8 -0.53334,1.41667 -1.2,1.85 -0.7,0.46666 -1.499995,0.61667 -2.4,0.45 -0.866666,-0.16666 -1.56667,-0.58333 -2.1,-1.25 l -0.3,-0.4 z"
           id="path11494"
           inkscape:connector-curvature="0"
           style="fill:#c9467c;stroke-linecap:round;stroke-linejoin:round" />
        <path
           d="m 78.35,114.05 c -0.166666,0.7 -0.56667,1.24999 -1.2,1.65 -1.066664,0.73333 -2.23333,0.75001 -3.5,0.05 -0.36667,-0.66666 -0.466666,-1.33333 -0.3,-2 0.16666,-0.70001 0.566664,-1.25001 1.2,-1.65 0.5,-0.33334 1.06667,-0.5 1.7,-0.5 0.63333,0 1.21667,0.16666 1.75,0.5 0.36667,0.63334 0.48334,1.28334 0.35,1.95 z"
           id="path11496"
           inkscape:connector-curvature="0"
           style="fill:#e8528d;stroke-linecap:round;stroke-linejoin:round" />
        <path
           d="m 76.55,112.2 c 0.266666,0.33333 0.133334,0.66667 -0.4,1 -0.566664,0.3 -0.949995,0.3 -1.15,0 -0.23333,-0.3 -0.1,-0.61666 0.4,-0.95 l 0.65,-0.25 0.5,0.2 z"
           id="path11498"
           inkscape:connector-curvature="0"
           style="fill:#f3b3c9;stroke-linecap:round;stroke-linejoin:round" />
        <path
           d="m 85.65,97.7 c 1.166666,0.16666 2.08333,0.65 2.75,1.45 0.63333,0.73333 0.933336,1.55 0.9,2.45 -0.03333,0.93333 -0.55,1.7 -1.55,2.3 -0.933334,0.56667 -1.950005,0.73333 -3.05,0.5 -1.06667,-0.23333 -1.883334,-0.71667 -2.45,-1.45 -0.5,-0.63333 -0.73333,-1.33333 -0.7,-2.1 0.03334,-1.06667 0.55,-1.9 1.55,-2.5 0.86667,-0.533334 1.716666,-0.75 2.55,-0.65 z"
           id="path11500"
           inkscape:connector-curvature="0"
           style="fill:#0d131a;stroke-linecap:round;stroke-linejoin:round" />
        <path
           d="m 86.55,98.75 c 0.366664,0.166664 0.68333,0.399994 0.95,0.7 0.53333,0.56667 0.76666,1.21667 0.7,1.95 -0.06667,0.7 -0.400005,1.28333 -1,1.75 -0.6,0.43334 -1.3,0.6 -2.1,0.5 -0.76667,-0.1 -1.41667,-0.43333 -1.95,-1 l -0.3,-0.35 c 1.2,0.53334 2.250006,0.45 3.15,-0.25 0.53333,-0.4 0.85,-0.91667 0.95,-1.55 0.09999,-0.6 -0.03334,-1.183334 -0.4,-1.75 z"
           id="path11502"
           inkscape:connector-curvature="0"
           style="fill:#c9467c;stroke-linecap:round;stroke-linejoin:round" />
        <path
           d="m 82.5,100.5 c 0.1,-0.63333 0.416664,-1.15 0.95,-1.55 0.43333,-0.33334 0.93333,-0.51667 1.5,-0.55 l 1.6,0.35 c 0.366664,0.566666 0.499995,1.15 0.4,1.75 -0.1,0.63333 -0.41667,1.15 -0.95,1.55 -0.9,0.7 -1.950005,0.78334 -3.15,0.25 -0.36666,-0.56667 -0.48333,-1.16667 -0.35,-1.8 z"
           id="path11504"
           inkscape:connector-curvature="0"
           style="fill:#e8528d;stroke-linecap:round;stroke-linejoin:round" />
        <path
           d="m 85.25,98.95 c 0.23333,0.3 0.13333,0.6 -0.3,0.9 l -1.05,0.1 c -0.23333,-0.23333 -0.13333,-0.53333 0.3,-0.9 l 1.05,-0.1 z"
           id="path11506"
           inkscape:connector-curvature="0"
           style="fill:#f3b3c9;stroke-linecap:round;stroke-linejoin:round" />
        <path
           d="m 12.6,92.15 c 0,-1.86667 0.683334,-3.43333 2.05,-4.7 1.266666,-1.2 2.7,-1.8 4.3,-1.8 1.666667,0 3.1,0.63333 4.3,1.9 1.199999,1.266666 1.8,2.749995 1.8,4.45 0.03333,1.76667 -0.533332,3.26667 -1.7,4.5 -1.2,1.26667 -2.7,1.9 -4.5,1.9 -1.3,0 -2.55,-0.41666 -3.75,-1.25 -1.666667,-1.16666 -2.5,-2.83333 -2.5,-5 z"
           id="path11508"
           inkscape:connector-curvature="0"
           style="fill:#0d131a;stroke-linecap:round;stroke-linejoin:round" />
        <path
           d="m 22.3,95.7 c -0.933333,1.03333 -2.083333,1.55 -3.45,1.55 -1.366666,0 -2.516666,-0.51667 -3.45,-1.55 -0.966667,-1.033336 -1.45,-2.283336 -1.45,-3.75 0,-1.43333 0.483333,-2.66666 1.45,-3.7 0.966667,-1.03333 2.116666,-1.55 3.45,-1.55 1.366667,0 2.516667,0.51667 3.45,1.55 0.966666,1.03333 1.45,2.26666 1.45,3.7 0,1.466664 -0.483334,2.716664 -1.45,3.75 z"
           id="path11510"
           inkscape:connector-curvature="0"
           style="fill:#e8528d;stroke-linecap:round;stroke-linejoin:round" />
        <path
           d="m 18.2,89.3 -0.55,0.95 -0.95,0.5 c -0.333333,0.06667 -0.6,0 -0.8,-0.2 -0.2,-0.233334 -0.266667,-0.51667 -0.2,-0.85 0.03333,-0.366664 0.200001,-0.68333 0.5,-0.95 0.266667,-0.299995 0.583333,-0.46666 0.95,-0.5 l 0.8,0.2 c 0.233332,0.2 0.316666,0.483334 0.25,0.85 z"
           id="path11512"
           inkscape:connector-curvature="0"
           style="fill:#f3b3c9;stroke-linecap:round;stroke-linejoin:round" />
        <path
           d="m 22.3,95.7 c -0.933333,1.03333 -2.083333,1.55 -3.45,1.55 -1.033334,0 -1.966669,-0.316666 -2.8,-0.95 -0.8,-0.599995 -1.383333,-1.4 -1.75,-2.4 0.933334,0.83334 1.983333,1.25 3.15,1.25 1.366668,0 2.516667,-0.51667 3.45,-1.55 0.966667,-1.033334 1.45,-2.283334 1.45,-3.75 L 22,87.9 c 1.166666,1.1 1.75,2.45 1.75,4.05 0,1.466664 -0.483334,2.716664 -1.45,3.75 z"
           id="path11514"
           inkscape:connector-curvature="0"
           style="fill:#c9467c;stroke-linecap:round;stroke-linejoin:round" />
        <path
           d="m 20.6,115.05 c -0.3,-1.56667 0.03333,-3.05001 1,-4.45 0.966666,-1.43334 2.233332,-2.30001 3.8,-2.6 1.4,-0.26667 2.766666,0.1 4.1,1.1 1.333334,0.96667 2.150002,2.2 2.45,3.7 0.3,1.46667 0.05,2.83334 -0.75,4.1 -0.833333,1.36666 -2.033334,2.2 -3.6,2.5 -1.733333,0.36666 -3.283332,0.0833 -4.65,-0.85 -1.266668,-0.86667 -2.05,-2.03333 -2.35,-3.5 z"
           id="path11516"
           inkscape:connector-curvature="0"
           style="fill:#0d131a;stroke-linecap:round;stroke-linejoin:round" />
        <path
           d="m 30.05,116.5 c -0.666667,1.06667 -1.6,1.71667 -2.8,1.95 -1.199999,0.23333 -2.3,-0.0333 -3.3,-0.8 -1,-0.73333 -1.633332,-1.75 -1.9,-3.05 -0.233332,-1.26667 -0.03333,-2.43334 0.6,-3.5 0.666666,-1.06667 1.6,-1.73333 2.8,-2 1.2,-0.23333 2.316666,0.0333 3.35,0.8 1.033334,0.73333 1.666667,1.74999 1.9,3.05 0.266667,1.26667 0.05,2.45 -0.65,3.55 z"
           id="path11518"
           inkscape:connector-curvature="0"
           style="fill:#e8528d;stroke-linecap:round;stroke-linejoin:round" />
        <path
           d="m 25.35,111.55 -0.3,0.9 c -0.5,0.7 -1.016667,0.90001 -1.55,0.6 -0.233334,-0.13334 -0.35,-0.36667 -0.35,-0.7 0,-0.33334 0.1,-0.65 0.3,-0.95 0.2,-0.3 0.45,-0.5 0.75,-0.6 l 0.8,0.05 0.35,0.7 z"
           id="path11520"
           inkscape:connector-curvature="0"
           style="fill:#f3b3c9;stroke-linecap:round;stroke-linejoin:round" />
        <path
           d="m 28.45,114.85 c 0.7,-1.06667 0.916667,-2.23333 0.65,-3.5 -0.166666,-0.73333 -0.383333,-1.28333 -0.65,-1.65 1.2,0.7 1.95,1.78334 2.25,3.25 0.266667,1.26667 0.05,2.45 -0.65,3.55 -0.666667,1.06667 -1.6,1.71667 -2.8,1.95 l -2.6,-0.35 c -0.833334,-0.4 -1.5,-1 -2,-1.8 1,0.56667 2,0.75 3,0.55 1.2,-0.23333 2.133335,-0.89999 2.8,-2 z"
           id="path11522"
           inkscape:connector-curvature="0"
           style="fill:#c9467c;stroke-linecap:round;stroke-linejoin:round" />
        <path
           d="m 21.6,132.4 c -0.266666,-1.2 -0.05,-2.35 0.65,-3.45 0.800001,-1.2 1.95,-1.93333 3.45,-2.2 1.433333,-0.23333 2.749999,0.0167 3.95,0.75 1.133333,0.73334 1.833334,1.7 2.1,2.9 0.333332,1.4 0.06667,2.65 -0.8,3.75 -0.833333,1 -1.933334,1.61666 -3.3,1.85 -1.566668,0.26666 -2.916668,0.0333 -4.05,-0.7 -1.066667,-0.66667 -1.733333,-1.63334 -2,-2.9 z"
           id="path11524"
           inkscape:connector-curvature="0"
           style="fill:#0d131a;stroke-linecap:round;stroke-linejoin:round" />
        <path
           d="m 29.95,133.45 c -0.633332,0.86667 -1.483333,1.4 -2.55,1.6 -1.066668,0.16667 -2.066668,-0.0333 -3,-0.6 -0.9,-0.6 -1.466666,-1.41666 -1.7,-2.45 -0.233333,-1.03334 -0.03333,-1.98334 0.6,-2.85 0.6,-0.86667 1.433334,-1.38334 2.5,-1.55 1.066667,-0.2 2.066667,0 3,0.6 0.899999,0.6 1.466666,1.41667 1.7,2.45 0.233334,1.03333 0.05,1.96667 -0.55,2.8 z"
           id="path11526"
           inkscape:connector-curvature="0"
           style="fill:#e8528d;stroke-linecap:round;stroke-linejoin:round" />
        <path
           d="m 25.7,129.5 -0.3,0.75 -0.65,0.5 -0.7,-0.05 c -0.2,-0.13333 -0.3,-0.31667 -0.3,-0.55 -0.03333,-0.26667 0.05,-0.51667 0.25,-0.75 l 0.65,-0.5 0.7,0.05 0.35,0.55 z"
           id="path11528"
           inkscape:connector-curvature="0"
           style="fill:#f3b3c9;stroke-linecap:round;stroke-linejoin:round" />
        <path
           d="m 30.5,130.65 c 0.233334,1.03333 0.05,1.96667 -0.55,2.8 -0.633332,0.86667 -1.483333,1.4 -2.55,1.6 l -2.35,-0.3 c -0.733332,-0.3 -1.316666,-0.78334 -1.75,-1.45 0.8,0.46666 1.7,0.61666 2.7,0.45 1.066668,-0.16667 1.900002,-0.68333 2.5,-1.55 0.6,-0.86667 0.783333,-1.81667 0.55,-2.85 L 28.5,128 c 1.066668,0.59999 1.733334,1.48332 2,2.65 z"
           id="path11530"
           inkscape:connector-curvature="0"
           style="fill:#c9467c;stroke-linecap:round;stroke-linejoin:round" />
        <path
           d="m 65.55,48.1 c 1.6,8.366667 0.01667,15.93333 -4.75,22.7 C 56.033333,77.566666 49.15,81.96667 40.15,84 30.55,86.13333 21.93333,84.88333 14.3,80.25 6.9999995,75.816666 2.433333,69.51666 0.6,61.35 -1.0333334,53.883335 0.33333325,46.716667 4.7,39.85 9.633333,32.183334 17.15,27.283335 27.25,25.15 c 9.26667,-1.933333 17.68334,-0.483332 25.25,4.35 7.2,4.600002 11.55,10.800003 13.05,18.6 z"
           id="path11532"
           inkscape:connector-curvature="0"
           style="fill:#0d131a;stroke-linecap:round;stroke-linejoin:round" />
        <path
           d="m 27.65,26.45 c 8.466665,-1.633332 16.216665,-0.266666 23.25,4.1 7.033334,4.33333 11.3,10.399997 12.8,18.2 1.46667,7.766666 -0.249995,14.983334 -5.15,21.65 C 53.61667,77.03333 46.933334,81.166664 38.5,82.8 30.066666,84.433334 22.316666,83.066666 15.25,78.7 8.216666,74.333336 3.9499993,68.26667 2.45,60.5 0.95000005,52.733334 2.6666665,45.516666 7.6,38.85 12.5,32.216667 19.183334,28.083334 27.65,26.45 z"
           id="path11534"
           inkscape:connector-curvature="0"
           style="fill:#e3c582;stroke-linecap:round;stroke-linejoin:round" />
        <path
           d="m 57.1,44.3 c -1.133333,-5.966668 -4.016664,-11 -8.65,-15.1 3.966668,1.966668 7.266667,4.61667 9.9,7.95 2.733332,3.433332 4.516665,7.299997 5.35,11.6 1.46667,7.766666 -0.249995,14.983334 -5.15,21.65 -4.93333,6.63333 -11.616666,10.766664 -20.05,12.4 -5.1,0.96667 -10.099998,0.800006 -15,-0.5 -4.733334,-1.3 -8.866667,-3.53334 -12.4,-6.7 6.533333,3.26667 13.483334,4.18333 20.85,2.75 8.43333,-1.63333 15.116666,-5.766664 20.05,-12.4 4.899998,-6.666667 6.6,-13.883334 5.1,-21.65 z"
           id="path11536"
           inkscape:connector-curvature="0"
           style="fill:#bfa56f;stroke-linecap:round;stroke-linejoin:round" />
        <path
           d="m 18,61.8 c -0.566668,-2.966668 0.3,-5.983334 2.6,-9.05 2.6,-3.366665 6.166666,-5.48333 10.7,-6.35 4.4,-0.866667 8.433334,-0.316668 12.1,1.65 3.533334,1.933334 5.6,4.533332 6.2,7.8 0.633334,3.366667 -0.283334,6.566668 -2.75,9.6 -2.6,3.099995 -6.133333,5.08333 -10.6,5.95 -3.733334,0.7 -7.366667,0.31667 -10.9,-1.15 C 21.183334,68.51667 18.733334,65.700005 18,61.8 z"
           id="path11538"
           inkscape:connector-curvature="0"
           style="fill:#0d131a;stroke-linecap:round;stroke-linejoin:round" />
        <path
           d="m 45.3,64.85 c -2.333333,2.73333 -5.449998,4.466666 -9.35,5.2 -3.9,0.766666 -7.433334,0.31666 -10.6,-1.35 -3.166666,-1.66667 -5.049999,-4.033336 -5.65,-7.1 -0.6,-3.1 0.266667,-5.999998 2.6,-8.7 2.333333,-2.7 5.45,-4.433333 9.35,-5.2 3.9,-0.733333 7.433332,-0.283332 10.6,1.35 3.166668,1.666667 5.050003,4.033336 5.65,7.1 0.566667,3.1 -0.3,5.999998 -2.6,8.7 z"
           id="path11540"
           inkscape:connector-curvature="0"
           style="fill:#e8528d;stroke-linecap:round;stroke-linejoin:round" />
        <path
           d="m 30.75,53.65 c -0.5,0.700002 -1.3,1.3 -2.4,1.8 -1.033334,0.5 -2.000002,0.7 -2.9,0.6 -0.8,-0.1 -1.316667,-0.35 -1.55,-0.75 -0.266667,-0.566666 -0.133334,-1.216668 0.4,-1.95 0.533334,-0.733335 1.266668,-1.333334 2.2,-1.8 1,-0.5 1.966667,-0.7 2.9,-0.6 0.833334,0.1 1.366666,0.383332 1.6,0.85 0.266666,0.6 0.183332,1.21667 -0.25,1.85 z"
           id="path11542"
           inkscape:connector-curvature="0"
           style="fill:#f3b3c9;stroke-linecap:round;stroke-linejoin:round" />
        <path
           d="m 45.3,64.85 c -2.333333,2.73333 -5.449998,4.466666 -9.35,5.2 l -7.8,-0.25 c -2.4,-0.66666 -4.366667,-1.79999 -5.9,-3.4 2.966667,1.23333 6.166668,1.533334 9.6,0.9 3.9,-0.733334 7.01667,-2.46667 9.35,-5.2 2.3,-2.700002 3.166665,-5.6 2.6,-8.7 -0.333333,-1.799998 -1.18333,-3.4 -2.55,-4.8 1.766666,0.733332 3.233334,1.75 4.4,3.05 1.16667,1.333334 1.91667,2.833334 2.25,4.5 0.566667,3.1 -0.3,5.999998 -2.6,8.7 z"
           id="path11544"
           inkscape:connector-curvature="0"
           style="fill:#c9467c;stroke-linecap:round;stroke-linejoin:round" />
        <path
           d="m 48.85,44.25 c -0.566667,0.8 -1.333334,1.3 -2.3,1.5 -0.966668,0.166668 -1.86667,-0.01667 -2.7,-0.55 -0.833334,-0.56667 -1.333334,-1.333335 -1.5,-2.3 -0.200002,-0.966666 -0.01667,-1.866667 0.55,-2.7 0.566667,-0.83333 1.333334,-1.33333 2.3,-1.5 0.966668,-0.2 1.86667,-0.01667 2.7,0.55 0.833334,0.566666 1.333334,1.333332 1.5,2.3 0.200002,0.966666 0.01667,1.866668 -0.55,2.7 z"
           id="path11546"
           inkscape:connector-curvature="0"
           style="fill:#0d131a;stroke-linecap:round;stroke-linejoin:round" />
        <path
           d="M 45.9,41.85 45.05,42.45 44,42.2 C 43.666668,42 43.466667,41.716667 43.4,41.35 43.36666,40.983334 43.45,40.633335 43.65,40.3 l 0.85,-0.6 c 0.399998,-0.03333 0.749996,0.05 1.05,0.25 0.33333,0.2 0.533332,0.483334 0.6,0.85 l -0.25,1.05 z"
           id="path11548"
           inkscape:connector-curvature="0"
           style="fill:#ffffff;stroke-linecap:round;stroke-linejoin:round" />
        <path
           d="m 14.1,50.9 c -0.833333,-0.566668 -1.349999,-1.333334 -1.55,-2.3 -0.166667,-0.966665 0.01667,-1.866663 0.55,-2.7 0.566667,-0.83333 1.333333,-1.33333 2.3,-1.5 0.966667,-0.2 1.866666,-0.01666 2.7,0.55 0.833334,0.566666 1.35,1.333333 1.55,2.3 0.166666,0.966667 -0.03333,1.86667 -0.6,2.7 -0.533334,0.8 -1.283334,1.3 -2.25,1.5 -0.966667,0.2 -1.866667,0.01667 -2.7,-0.55 z"
           id="path11550"
           inkscape:connector-curvature="0"
           style="fill:#0d131a;stroke-linecap:round;stroke-linejoin:round" />
        <path
           d="m 16.15,47.65 c -0.233333,0.333334 -0.533333,0.533334 -0.9,0.6 l -1,-0.2 c -0.333333,-0.233334 -0.533333,-0.533334 -0.6,-0.9 -0.06667,-0.366667 0,-0.71667 0.2,-1.05 0.233333,-0.333334 0.533333,-0.533334 0.9,-0.6 0.366667,-0.03333 0.716667,0.05 1.05,0.25 0.3,0.2 0.483333,0.483334 0.55,0.85 0.06667,0.366667 0,0.71667 -0.2,1.05 z"
           id="path11552"
           inkscape:connector-curvature="0"
           style="fill:#ffffff;stroke-linecap:round;stroke-linejoin:round" />
        <path
           d="m 26.9,2.2 6.3,9.8 7.25,12.5 c 0.533334,1.033333 0.8,1.866667 0.8,2.5 0,0.699999 -0.316666,1.333332 -0.95,1.9 -2.366666,2.033334 -5.883332,3.383333 -10.55,4.05 -4.633335,0.66667 -8.366669,0.383336 -11.2,-0.85 -0.933333,-0.400001 -1.499999,-0.916668 -1.7,-1.55 -0.2,-0.600001 -0.2,-1.75 0,-3.45 0.366667,-3.2 1.25,-7.483335 2.65,-12.85 1.300001,-5 2.466667,-8.8 3.5,-11.4 0.699999,-1.8 1.233332,-2.73333339 1.6,-2.8 0.4,-0.06666667 1.166666,0.65000005 2.3,2.15 z"
           id="path11554"
           inkscape:connector-curvature="0"
           style="fill:#0d131a;stroke-linecap:round;stroke-linejoin:round" />
        <path
           d="m 24.15,3.6 0.6,-1.4 c 0.199999,-0.066667 0.599998,0.35 1.2,1.25 3,4.433334 7.183335,11.516667 12.55,21.25 0.600002,1.100001 0.833336,1.933335 0.7,2.5 -0.133334,0.566666 -0.716666,1.166667 -1.75,1.8 -2.1,1.333334 -4.783336,2.233334 -8.05,2.7 L 21.3,31.45 C 20,31.116667 19.183334,30.766666 18.85,30.4 c -0.3,-0.366667 -0.400001,-1.033333 -0.3,-2 0.266668,-2.533333 0.916667,-6.116667 1.95,-10.75 1.133333,-5.100001 2.35,-9.783334 3.65,-14.05 z"
           id="path11556"
           inkscape:connector-curvature="0"
           style="fill:#cad3cc;stroke-linecap:round;stroke-linejoin:round" />
        <path
           d="m 38.5,24.7 c 0.600002,1.100001 0.833336,1.933335 0.7,2.5 -0.133334,0.566666 -0.716666,1.166667 -1.75,1.8 -2.1,1.333334 -4.783336,2.233334 -8.05,2.7 L 21.3,31.45 C 20,31.116667 19.183334,30.766666 18.85,30.4 c -0.3,-0.366667 -0.400001,-1.033333 -0.3,-2 l 0.2,-1.7 c 0.699999,0.8 2.199999,1.316666 4.5,1.55 2.333334,0.199999 4.550001,-0.01667 6.65,-0.65 5.633333,-1.766666 6.96667,-5.466667 4,-11.1 l 4.6,8.2 z"
           id="path11558"
           inkscape:connector-curvature="0"
           style="fill:#a6ada8;stroke-linecap:round;stroke-linejoin:round" />
        <path
           d="m 89.8,87.2 c 1.033336,0.16666 1.85,0.616666 2.45,1.35 0.566666,0.633334 0.833336,1.35 0.8,2.15 -0.03333,0.866666 -0.5,1.56667 -1.4,2.1 -0.833334,0.5 -1.75,0.650005 -2.75,0.45 -0.93333,-0.200005 -1.66667,-0.63334 -2.2,-1.3 -0.43333,-0.6 -0.63333,-1.23333 -0.6,-1.9 0.03333,-0.93333 0.48333,-1.68333 1.35,-2.25 0.8,-0.5 1.58333,-0.7 2.35,-0.6 z"
           id="path11560"
           inkscape:connector-curvature="0"
           style="fill:#0d131a;stroke-linecap:round;stroke-linejoin:round" />
        <path
           d="m 91.15,92.1 c -0.53333,0.4 -1.15,0.55 -1.85,0.45 -0.733334,-0.06667 -1.33333,-0.36667 -1.8,-0.9 l -0.25,-0.3 c 1.03333,0.53333 1.98333,0.466666 2.85,-0.2 0.466666,-0.333334 0.75,-0.8 0.85,-1.4 0.09999,-0.566666 -0.01667,-1.1 -0.35,-1.6 l 0.85,0.65 c 0.466664,0.5 0.66667,1.08334 0.6,1.75 -0.06667,0.633334 -0.36667,1.15 -0.9,1.55 z"
           id="path11562"
           inkscape:connector-curvature="0"
           style="fill:#c9467c;stroke-linecap:round;stroke-linejoin:round" />
        <path
           d="m 90.95,89.75 c -0.1,0.6 -0.383334,1.066666 -0.85,1.4 -0.86666,0.666666 -1.81666,0.73333 -2.85,0.2 -0.333336,-0.5 -0.450005,-1.033334 -0.35,-1.6 0.1,-0.6 0.38333,-1.066666 0.85,-1.4 0.9,-0.63333 1.85,-0.7 2.85,-0.2 0.333334,0.5 0.45,1.033334 0.35,1.6 z"
           id="path11564"
           inkscape:connector-curvature="0"
           style="fill:#e8528d;stroke-linecap:round;stroke-linejoin:round" />
        <path
           d="m 89.4,88.35 c 0.23333,0.23333 0.149995,0.5 -0.25,0.8 l -0.95,0.1 c -0.23333,-0.23333 -0.133334,-0.5 0.3,-0.8 l 0.5,-0.2 0.4,0.1 z"
           id="path11566"
           inkscape:connector-curvature="0"
           style="fill:#f3b3c9;stroke-linecap:round;stroke-linejoin:round" />
</svg>
