<?xml version="1.0" encoding="utf-8"?>
<!-- Generator: Adobe Illustrator 23.0.1, SVG Export Plug-In . SVG Version: 6.00 Build 0)  -->
<svg version="1.1" id="Layer_1" xmlns="http://www.w3.org/2000/svg" xmlns:xlink="http://www.w3.org/1999/xlink" x="0px" y="0px"
	 viewBox="0 0 512 512" style="enable-background:new 0 0 512 512;" xml:space="preserve">
<style type="text/css">
	.st0{fill:#77C4D3;}
	.st1{fill:#B5E06C;}
	.st2{fill:#DF4D60;}
</style>

	<path class="st0" d="M227.2,149.2c0,0,23.1-26.2,142.1,9.3l28.8,7.3c0,0-103.2,49-142.1,45.1C256,210.9,189.5,195.1,227.2,149.2z"
		/>
	<path class="st0" d="M104.2,128.3l38.5-41.4c0,0,26.6-25.4,56.2,10.6l29.2,28.3l18.2,8v4.7l-25.4,15.6l-9.3,26.2l25.4,25l33.8,5.6
		l35.1-10.3l22-3.8l19.5,19.9l82.5,19.5l17.8,6.3c0,0-62.6,6.3-71,3.8l-14.8-2.1l53.7,37.6l21.1,19.5l-4.2,34.7l-38.5-27.5
		l-26.6-25.8l-16.9-17.3l-81.2-21.1l-11,11.8l-13.5,11.4l-11.8-3.8l4.2-11l1.7-6.3l-19.5-5.1l-30-17.3l-13.1-19l-14.4-20.7
		c0,0-19.9-38.5-25.4-51.2l-35.9-1.3L104.2,128.3z"/>
	
		<path class="st1" d="M346.1,327c0,0,23.7,32.1-90.1,100.2c0,0-41.4-74.8,77-104.9L346.1,327z"/>
		<path class="st1" d="M155.9,323.2c0,0-36-17.2-81.5,107.3c0,0,81.3,26.6,88.5-95.3L155.9,323.2z"/>
		<path class="st1" d="M148.3,272.9c0,0,22.6-29.3-58.1-97.4c0,0-26,48,48.5,101.4L148.3,272.9z"/>
		<polygon class="st2" points="107.4,124.9 127.2,111.7 133.4,132 106,131.1 		"/>
		<circle cx="159.8" cy="106.1" r="6.7"/>
		<path d="M454.4,389.4l-94.8-88.5c-0.9-0.9-2-1.2-3.6-1.4l-85.7,1.6c0-0.4,0.1-0.8,0.1-1.2l-2.9-21.2c-0.2-1.4-0.9-2.6-2.1-3.4
			c-1.1-0.8-2.6-1.1-3.9-0.9l-9.1,1.8c-6.2,1.6-11.9,2.1-15.7,2.1l23.2-14c0.5-0.3,1-0.7,1.4-1.2l10.4-13.3l81.5,22
			c7.1,9.1,46.2,58.6,75.7,73.1c0.8,0.5,1.7,0.8,2.7,0.8c0.1,0,0.3,0,0.4,0c4.8-0.4,4.8-0.4,11.4-41.2c0.3-1.8-0.4-3.7-1.9-4.8
			l-60.3-47.7c22.6,4,56.7,7,73-6.6c1.5-1.3,2.1-3.3,1.7-5.2c-0.5-1.9-2-3.3-3.9-3.7c-0.3-0.1-26.5-5.3-101.5-22.3
			c-2.2-2.4-7.8-8.4-16.6-16.9c31.6-11.8,61.6-24.8,67.6-27.5c2-0.9,3.2-2.9,3-5.1c-0.2-2.2-1.8-4-3.9-4.5
			c-4.4-1-107-23.9-133.8-26.5c-4.4-0.4-8.6-0.3-12.8,0.1c-11.5-7-22.7-12.8-33.3-17.2c-4.7-8.3-26.3-43.8-55.1-44.5
			c-17.4-0.3-33.3,11.6-47.5,35.8c-1.4,2.3-12.1,12.4-21.2,20.5c-1.5,1.4-2.1,3.5-1.4,5.4c0.6,1.9,2.4,3.3,4.4,3.4l33.2,2.7
			c6,17.7,36.8,98.2,101.4,111.1c-4.5,9.9-16.5,29.8-39.6,28.3c-2.4-0.4-4.6,1.4-5.2,3.7l-5.4,19.7l-4.3,0.1c-0.3,0-0.5,0-0.8,0
			l-23.4,0.4c-1.6-4.4-4.8-13.7-8-23.6c11.5-8.6,11-31.5-1.8-53.7c-12.1-21.1-57-55.8-58.9-57.3c-1.6-1.2-3.9-1.4-5.6-0.4
			c-1.8,1-2.8,3-2.5,5.1c0.3,2.4,7.8,58.7,19.9,79.8c10.7,18.6,26.1,30.1,38.7,30.1c0.3,0,0.5-0.1,0.8-0.1
			c2.6,7.9,5.2,15.3,6.9,20.3l-18.4,0.3L65.1,226c-1.7-2.2-4.9-2.6-7.1-0.8c-2.2,1.7-2.6,4.9-0.8,7.1l56.8,71.7l-11.9,0.2
			c0,0-0.1,0-0.1,0c-0.4,0-0.8,0.1-1.1,0.3c-0.3,0.1-0.6,0.1-0.9,0.2c0,0-0.1,0-0.1,0l-41,20.9c-2.5,1.3-3.5,4.3-2.2,6.8
			c0.9,1.8,2.7,2.8,4.5,2.8c0.8,0,1.6-0.2,2.3-0.6l40-20.4l63.6-1.2c-1.6,1.6-3.3,3.3-5.1,5.2c-4.3-1.8-12.1-3.8-21.4-1.2
			c-14,4-26.1,16.6-36.1,37.5c-1.8,3.8-4.1,9-6.8,14.9c-7.1,16-23.7,53.4-30.1,56c-2.3,0.2-4.2,1.9-4.6,4.2c-0.4,2.3,0.9,4.6,3,5.5
			c0.7,0.3,10.9,4.6,24.8,4.6c9.5,0,20.7-2,31.8-8.7c25.8-15.6,41-50.8,45.3-104.3c6.2-6.2,11.3-11.4,13.8-14l162.7-3
			c-1,1.3-2.1,2.7-3.3,4.3c-0.4,0-0.7-0.1-1.1,0c-52.9,14.6-85.1,36.5-95.6,65.2c-10.9,29.8,6.2,55.2,6.9,56.3
			c1,1.4,2.6,2.4,4.3,2.4c0.6,0,1.1-0.1,1.6-0.3c2.2-0.8,3.5-2.8,3.3-5.2c1.3-7,34.8-30.6,49-40.6c5.3-3.7,10-7,13.4-9.6
			c18.6-13.8,28.6-28.2,29.8-42.7c0.7-8.2-1.7-14.6-4.1-18.8c3.2-4.2,5.8-7.6,7.4-9.6l91.5,85.4c1,0.9,2.2,1.4,3.5,1.4
			c1.4,0,2.7-0.5,3.7-1.6C456.5,394.5,456.4,391.3,454.4,389.4z M144,268.6c-2.2-6.8-4-13-4.9-17c-1.3-5.6-3.9-8.1-7.4-11.5
			c-2.5-2.4-6-5.7-10.8-11.8c-1.7-2.2-4.9-2.6-7.1-0.8c-2.2,1.7-2.6,4.9-0.8,7.1c5.3,6.6,9,10.2,11.7,12.8c3.2,3.1,4,3.9,4.5,6.5
			c1,4.5,3.1,11.4,5.5,18.9c-7.9-1.5-18.8-10.1-27.3-24.8c-7.8-13.6-13.8-45.5-16.7-63.3c14,11.5,38.5,32.7,46.3,46.3
			C146.1,246.8,147.6,261.6,144,268.6z M117.3,422.5c-14.4,8.8-29.5,7.9-38.7,6c7.2-9,15.8-26.8,28.2-54.7
			c2.6-5.8,4.9-10.9,6.7-14.7c8.5-17.8,18.7-28.9,29.5-32c4.2-1.2,7.9-1.1,10.8-0.5c-10.3,10.4-21.6,21.5-27.4,26.9
			c-4.8,4.5-5.8,8.2-7.2,13.9c-1.2,4.8-3,12.1-8.9,25.4c-6.8,15.6-11.4,19.1-14,19.3c-2.8,0.2-4.9,2.6-4.7,5.4
			c0.2,2.7,2.4,4.8,5.1,4.8c0.1,0,0.2,0,0.3,0c11.9-0.7,19.2-17.3,23-26.3c5.8-13.1,7.7-20.9,9-26c1.2-5,1.6-6.5,4.2-8.9
			c5.1-4.7,14.1-13.6,23.1-22.6C151.1,381.4,138.1,409.8,117.3,422.5z M213.5,302.2l-18.8,0.4l3.5-13c6.8-0.2,12.9-1.9,18.2-4.5
			l-3,16.8C213.5,302,213.5,302.1,213.5,302.2z M259.9,143.5c1.9,0,3.9,0.1,5.8,0.3c20.1,2,86.7,16.3,117.1,22.9
			c-37.7,15.9-105,42.1-123.3,40.5c-24-2.3-42.1-18.5-40.4-36C220.7,155.2,238.5,143.5,259.9,143.5z M124.4,116l4.9,13.5l-17-1.4
			C116.6,123.9,121.4,119.3,124.4,116z M141.7,134.1c0,0,0-0.1,0-0.1l-10-27.6c-0.1-0.2-0.2-0.4-0.4-0.6
			c10.8-15.8,22.1-23.4,33.9-23.5c26,0.6,47.1,40.3,47.3,40.7c0.6,1.1,1.5,1.9,2.6,2.4c7.6,3.1,15.7,7.2,23.9,11.7
			c-16.5,5.8-28.4,18-29.9,33.3c-2.2,23.1,20,44.2,49.5,47c0.8,0.1,1.6,0.1,2.5,0.1c12.7,0,37.1-7.4,62.1-16.3
			c13.6,12.9,20.6,20.9,20.6,21c0.7,0.8,1.7,1.4,2.7,1.6c45.5,10.3,73.4,16.4,88.5,19.6c-22.2,5.3-58.3-1.9-72.9-5.9
			c-2.4-0.6-4.8,0.4-5.9,2.6c-1.1,2.2-0.5,4.8,1.4,6.3l75.1,59.5c-1.7,10.2-3.5,20.8-4.7,27.2c-29.3-18-67.5-68.1-67.9-68.6
			c-0.7-0.9-1.6-1.5-2.7-1.8l-86.4-23.3c-2-0.5-4.1,0.2-5.3,1.8l-11.9,15.2l-16.3,9.8c4.2-6.2,7.1-12.5,8.6-17.5
			c0.4-1.4,0.2-3-0.6-4.2c-0.8-1.3-2.1-2.1-3.6-2.3C174.1,233.5,143.1,138.6,141.7,134.1z M223.8,302l2.6-14.5
			c5.8,1.2,15.4,2,28.3-1.3l3.6-0.7l2.2,15.9L223.8,302z M316.7,374.3c-3.4,2.5-8,5.8-13.2,9.4c-25,17.5-40.7,29.4-48.2,38.2
			c-3.6-8.7-7.4-23.4-1.6-39.1c8.6-23.2,34.6-41.7,76.9-55.2c-7.6,10.1-15.5,21-19.6,27.6c-1.9,3-3.3,3.7-7.9,5.9
			c-4.8,2.3-12,5.7-24.7,14.5c-7.1,5-22,15.3-20.4,27.1c0.3,2.5,2.5,4.4,5,4.4c0.2,0,0.4,0,0.7,0c2.8-0.4,4.7-2.9,4.4-5.7
			c-0.3-2.6,2.2-7.7,17.1-18c11-7.7,17.8-10.9,22.3-13c5.3-2.5,8.8-4.2,12.3-9.7c4.3-7,13.5-19.5,21.7-30.3c0.8,2.5,1.3,5.5,0.9,9
			C341.5,350.3,332.6,362.5,316.7,374.3z"/>
</svg>
