<svg xmlns="http://www.w3.org/2000/svg" version="1" width="465" height="502" viewBox="-0.2 0.25 465.3 501.8"><path fill="#fff" d="M354 47l1 12 2 15 4 6q4 8 4 13l4-39 23 18-4 29 13-24 16 25-14 39q16-19 19-27l9 35-18 29 4-3q7-4 16-13v35l-8 9q-9 9-13 11v1l3-1 18-9-5 33-22 9 4-1 17-3-12 26-9 3-14 2 3 1 16 2-12 21h-9l-12-2 6 3 10 4-21 16-14-6 11 8-18 13-12-6 9 8-19 8-11-6 6 8-34 12-8-9 3 9-17 2-7-12q-8-13-8-19l29-33q31-37 38-55t11-79l2-58q1-5-2-36l-2-30 24 6M131 25l-1 9-37 101-11-23-1-20q1-6 7-16l5-9 1 6 3-3 6-23 28-22M123 193v21l3-11 5-15 16 18-3 13-2 17 3-8 7-14 11 15-3 12-3 18 14-18 9 14-7 15 11-10 9 16-8 18 11-10 6 12-4 6-11 2q-12 4-17 11-5 6-25-18l-13-17-6-8q-6-18-10-40-10-45-3-65l13 13-3 13"/><path fill="#f9be00" d="M382 335l7 1 2 4-4 5-12-3 7-7M341 392l19 20-14 18-20-18-1 2 7 16-22 13-6-12-18-60 21-16 47-1 15 2 21 4-5 20-19-5 13 8-13 20-40-27 15 16M272 219l-4 44-21 28-18 15-3-4-15-35-8-21 16-12 25 53 5-5-2-23q-2-25 0-33l25-7M279 397l5 2 4 50h-11l-4-53 6 1M176 391l4 2-2 17q-4 3-15 5l-9 2-6-12 17-9 11-5"/><path fill="#f9be00" d="M263 392l14-6 2 28 2 37-1 14q0 4-2 4t-3-2l-1-3-4 6q-2 0-3-3l-2-15-1-36-1-24"/><path fill="#fff" d="M174 388l-8-14-2-7 83-35 22 1 18 42-12 11-7 5v6l-1 13q-4 18-17 19-15 1-22-11l-3-8-1-4q-33 2-50-18"/><path fill="#f9be00" d="M388 346l-3 3-2 1 3 1 2 4-5 2-12 2q-19 2-38-1l-12-15h1l6 4 19-9-6-6 12 6 30 5 5 3M201 282q-3-9-2-10t3 1l2 2-1-2 1-4q1-2 12 15l11 18-17-1q-6-9-9-19"/><path fill="#8cc456" d="M278 374q-2 0-6-6l-4-7 17-2 5 9 1 3-1 2-6 1h-6M327 350l5 6 3 4q0 2-6 5-5 3-14-5l-6-5-2-2 16-6 4 3M345 336l13 11 1 2q1 2-2 4l-10 3q-3 0-12-5l-9-6 19-9M370 344q-3 0-13-5l-10-4h1l19-12 15 10 1 1q1 2-1 4l-7 4-5 2M370 321l19-17 24 10 2 1q1 2-2 5l-11 6-9 4-13-5-10-4M436 294q-4 6-7 7h-37l16-22 12 1h15l5 1q2 1 1 4-1 4-5 9M458 242q-1 6-4 11-3 6-7 8-5 3-21 8l-15 4q7-12 12-26l12-3 15-4 6-2q3 0 2 4M465 195q0 7-3 15-2 9-5 12l-19 12-14 9q4-16 6-33l10-6 13-8q4-5 7-5 5-2 5 4M458 145l1 11q1 7-2 11-3 6-27 33l1-1q1-18-1-35l9-9 12-12q3-3 5-3l2 5M442 94l4 12q1 9-1 14-3 8-17 32-2-18-9-33l17-28 2-1q2 0 4 4M427 72l-12 36q-7-14-17-25l13-26 3-4q2 0 5 3 9 8 8 16M395 47l-3 29q-11-10-23-17l2-29q0-2 2-3 2-2 6 1l10 7q6 5 6 12M348 23q3 8 6 28l-16-5-8-2-1-13-2-13 1-4q1-2 6-2l9 3q4 2 5 8M202 279l1-1q2 0 3 2l1 5-1 4-5 9-6-13 7-6M192 279l-9-17 9-9 2-1q2 0 3 3l1 6-1 7-5 11M186 246l-7 11-9-14 11-14 1-2q2 0 3 3l2 8-1 8M152 185l-6 25-16-20 7-20 1-2q2-1 4 1l6 7q4 5 4 9M157 207q5-10 7-10t5 5l2 7-1 4-2 5-5 14-12-16 6-9M116 158l5-12q2 0 7 6 4 6 3 10l-6 21-12-14 3-11M91 45q2-3 3-1v3l-1 21-12 26-1-26q-1-3 4-12l7-11M128 29l-13 9q-8 7-15 18l8-20q8-21 15-27 8-6 14-8h4l1 2-14 26"/><path fill="#ffe792" d="M205 213v-2-3q2-1 10 17l8 18-2-2-3-1-1 2-1 2h-3l-3-1q-2 0-1 5v5h-3l-1-1-6-18q-6-19-2-21l2 1 2 2-1-3v-3q1-1 3 1l2 2M265 193l2 6 1-1 2-1 1 16v16q-2-5-4-5l-2 1-1 1-2-1q-1-2-3-2l-3 3-2 4-1-1-1-2q-2 0-4 3l-1 4 1-19q2-20 7-21l4 5 2-3 4-3M322 430l1-4q1-1 3 1 1 2 3 2l1-2-1-4 11 23q11 24 10 28-1 1-3-1l-2-1 1 5-1 6q-2 1-5-3l-4-4 1 3-1 3-4-3-8-10-11-22-7-15q0 2 2 3 3 2 4 1l1-2 1-2 2 2 4 1 2-5M356 410v-3l15 18q16 19 15 21l-4 1 2 4q2 4 0 6l-5-2-5-2 1 1-1 3q-2 2-16-13l-13-14v-4q5 2 6 1l-2-6 1-4v-4h5l1-3M366 396v-2h3l2-1v-4l-1-2 2-1 3-1v-3l-2-2 10 6 14 10 11 10q5 6 5 8l-2 1h-1v4h-2l-3-1 1 1v2q0 2-3 1l-14-6-20-11-8-5h3l2-1v-3M386 364q1-2-1-4l-3-2 10 3q11 2 18 5l12 7 3 4-3 1-2 1h-1l2 2 3 3q-1 2-5 3l-15-2-19-5-10-3 2 1q3 0 3-2l-1-3-2-1 4-1 3-1-2-3q-2-1-1-2l2-1h3M386 345l-1-2-1-1 2-2 2-1-4-2 12-1 21 1q8 1 11 3t2 3l-3 2-4 1 2 1 1 3-18 2-21 1-4-3 2-2 3-2-1-1h-1"/><path fill="#8cc456" d="M71 88q1-1 4 7l3 8q-2 2-4 10l-2 8-2-9V99l1-11M114 141l-3 10-3 10v-12q0-14 2-19l2 4q3 4 2 7"/><path fill="#ffe792" d="M285 443l2-4 1 10 2 21-2 20q-1 9-3 9-2 1-5-5l-2-6-1 3-2 2q-2 0-3-12l-1-12 3-4 1 2 2 3q3 0 3-14v-14q3 4 5 1M209 418l5-2-6 14q-5 12-4 13h2l1-1v2 4l4-4v2l1 2q1 1 10-11l2 1q-9 27-15 38l-5 7v-3l1-6v-4l-4 6-5 7-1-5v-5l-2 2q-1 2-3 2t-1-8l3-14 10-22 7-15M298 206q-1 12-10 29l-10 15 3-18 5-23 3-6h1q2 0 3 3l1 4 3-5 1 1"/><path fill="#f9be00" d="M249 281l-14 17-4-20-2-20v-8l2-4 1 1 1 1 1-3 2-3 1 3 1 2 2-3 2-3 2 12q1 15 5 28M274 242l2 5 1 5-16 17 9-21 4-6"/><path fill="#ffe792" d="M192 421l5 1-28 28v-6l9-10 10-9 3-3 1-1"/><path fill="#f9be00" d="M157 388l-13-1 2-2 2-1-7-1q0-2 11-6l14-4 8 15h-17M214 414l10-8 6 14q-6 14-12 22l-6 6-1-2v-2l-4 4-1-4 1-2q-2 2-3 1-2 0 4-15l6-14M276 387l11-12 8 25 11 37q3 10 3 16 0 5-2 6l-3-3-3-3-1 6q-2 0-13-36l-11-36M291 372l-7-18 6 7 5-2 10 5 10 9 20 24 13 23q4 6 3 7h-4l-2-1v2l-1 3q-1 1-7-5l-15-15-20-25-11-14"/><path fill="#8cc456" d="M312 363q4 4-7 7h-5l-2-1-10-11 17-5 7 10"/><path fill="#fff" d="M178 392l17 2 28 13-4 3-8 6q-13 8-23 3-10-4-11-16l1-8v-3"/><path fill="#e95532" d="M137 20q3-3 5-2l2 3 1 4q0 4-2 7l-12 24q-11 24-16 44-8 28-8 55 0 35 12 76 8 25 20 43 16 23 38 35-6 3-12 11l-6 7h-1q-8-6-18-18l-9-11-12-11q-1-2 1-3h2l-1-2-11-6-6-7-3-6q0-2 5-1h4q-12-8-20-16-2-2-3-7l-2-8v-4l3 1 13 6q-16-15-19-20l-6-10q-3-7-3-12t2-4l4 2 16 13-1-4q-9-7-17-19l-11-16q-2-4-2-13-1-9 1-10l4 2 3 5 11 14 9 12-12-28-7-20v-11l4-11q1-3 3-2l2 5 9 23-1-22-1-19q-1-7 4-14l6-7 1 9v10q5-21 20-45 10-15 17-22"/><path fill="#e95532" d="M344 96q6-21 8-23t6 3l5 8 1 7v7l-9 34-8 21 15-22 13-18q1-1 3 1l3 6q2 4 2 9l-2 10-13 22-11 16 16-10q14-10 16-10 2-1 3 3l1 7q-1 8-5 11-10 9-25 19l-14 9 20-4 20-5q2 0 3 2l1 4q0 7-6 11-5 4-25 12l-18 7 20-1 21 1q2 1 0 6-1 5-4 8-3 2-22 6l-19 4 20 2q11 0 12 2 2 2-2 7l-6 6-20 2h-18q3 2 17 5l12 5q2 2-4 6-5 4-10 5l-19-2-14-2q3 3 14 7 10 4 11 6 1 3-3 5l-8 3-17-4-14-4 12 9 9 7q1 3-5 5-5 3-8 3-4 0-25-8l9 7 7 7q1 1-2 3l-7 3q-4 1-13-4l-9-4-6 5-9 4q-14 6-26 16l-15 13q-9 6-16 6-7 1-13-5l-3-5-2-2-7 1-17 4q-9 3-15 9l-9 15q-8 17-19 25-5 4-8 4l-17-14-10-22 23-26 2 1h6l4 1 5 1q7-1 16-9 8-8 23-19l13-10q16-23 45-26 15-1 27 2 4-7 22-26 21-20 29-33 10-15 18-47l4-21 1-9q8-37 0-83-4-23-11-44-2-5 1-7 3-3 9-3 4 0 7 3l6 14q7 16 14 46l6 27 7-24"/><path fill="#2f8097" d="M249 416q3-1 6 1t2 6l-2 6-2 11v8l3-5q9-10 10-13l3-5q2-3 5-3 2 0 4 4l1 6q0 2-4 6l-6 6-5 5q-4 3-5 7l-3 9-3 4-1 5 1 6v7q-1 5-6 5-6-1-6-6v-7l1-7v-5q-4-5-5-12l-1-5-6-8-5-4-4-3-1-1v-5l2-7q2-2 5-1l6 7 7 14v-14l2 1-1-3 2-6q2-4 6-4"/><path fill="#fff" d="M217 427q2-3 4-3h3l2 2-1 3-2 3-3 2-4 3h-1q-1-6 2-10M250 412q3 0 5 2v5l-2 6-2 3q-5-4-6-9-1-4 1-6l4-1M271 428q1-4 5-4t6 3q2 3 1 4v1l-3-1-4 1q-3 0-4-2l-1-2M247 487q5 0 4 5l-3 9-2-2-3-6 1-5 3-1"/><path fill="#2f8097" d="M180 419q4-5 6-5 2-1 5 2 3 2 1 5l-3 3-9 8-11 12q-2 5 3 21v7l-2 1h-2l-5-1q-2-1-3-5l1-5-2-4-6-3-4-3-4-5q-2-3-7-5l-9-2-8-2q-4-2-4-5t4-5h8l9 4 5 3-5-5-8-4-5-3-1-1-2-4 1-3 3-3q3-1 6 1l10 8 5 6 1-1-6-8q-5-2-5-4v-6q0-4 3-5h5l5 5 4 8 8 21 18-18"/><path fill="#fff" d="M143 408q1 1-1 3l-2 2-5 2-5 1 1-3 3-5 3-3h3l1 1 2 2M122 414q3-1 5 2v3l-3 3-5 2h-4l3-5 4-5M122 435v2l-8 7q-2-1 0-6l2-6 2-1 3 1 1 3M163 471l2-1h3q2 0 2 2v3l-4 5-3 4v-13"/><path fill="#08294d" d="M116 394q-2 5-6 9-6 6-17 7l-3-1-9-3q-4-2-5-5v-3l6-2q6-3 12-9 5-7 11-9 4-1 7 1 3 1 4 6v9"/><path fill="#fff" d="M91 395l6-6 4-1q3 1 3 4 1 3-1 8l-6 8-5 2q-5 0-10-4l-4-4 4-2 9-5"/><path fill="#e9545d" d="M82 401l10-6 3 4-1 7-5 3-4-1-3-4v-3"/><path fill="#f9be00" d="M57 394l5-4 5-2q3 0 4 2l5 10q4 6 9 8 3 2 8 2l4 1 2 2-2 5-9 16-9 17-3 8-13 8-16 9q-8 4-9 3l-1-3 2-3 13-16 10-30-7 1-15-1q-7 0-17 5l-13 7-8 5q-2-7 1-14l6-12 7-9 6-3 9-1 11 1q3 0 8-5l7-7"/><path fill="#922f00" d="M65 443l8-6 7-4-1 5-3 8q-2 6-10 13l-14 10q-10 7-11 6l5-6 9-11 6-8 4-7"/><path fill="#ed8599" d="M83 416h6l-8 18-9 3-10 8q-4 5-10 9l-5 4q-4-2 5-16l9-14 8-6 14-6"/><path fill="#f9be00" d="M47 316q4-8 12-7 4 0 7 2 6-8 13-5l5 5q10-4 14 3l2 6-1 5-4 12q-4 10-4 17 0 6 3 10l2 6q-1 4-4 7t-9 5l-9 4-4 3-8-1-6-3q-8-5-12-12-5-6-6-18l1-11q-6-2-9-7l-1-3v-1q1-12 9-16 5-2 9-1"/><path fill="#8cc456" d="M160 336q-6 6-11 21l-3 13q-4 1-11 6l-6 5 5-20 4-9-5-1h-4l15-13 13-2h3"/><path fill="#dbdcdc" d="M177 391l-9-12-2-6q1 3 5 6 5 5 12 8 19 10 41 9l-1 11q-29 1-46-16M266 383v-3l1-2 6-8 1 1 3 2 5 1h4l-1 2-4 5q-6 8-13 11l-2-9M267 404l-1 8q-3 13-11 16l2-6v-3l-2-2v-2l-1-1q8-2 12-8l1-4 1-1-1 3M243 419l-1 4v5q-13-3-17-16l-1-7v-4l6 8q6 5 15 6v2l-2 2"/><path fill="#dbdcdc" d="M178 396l1-3 4 3 12 7 17 3 11 1q-11 11-22 14h-9l1-2-2-4q-2-2-5-1l-3 2q-7-6-6-15l1-5"/><path fill="#1e6579" d="M192 417v4l-1 1-10 9q-10 9-11 12-2 4 0 11l2 10v7l-2 2q0-2-2-3l-3-1-1-3v-3l-1-3q-1-2-6-4-6-2-10-7l-1 1v-2q-3-4-7-5l-6-3-5-1h-4l-3-1q2-1 2-3l-1-2-2-2h6l18 5 2 3q-3-6-10-10l-7-3q-4-1-5-4l1-1 2-2 1-2v-1q8 2 17 9l7 9v-1q-7-13-10-15l-3-2-3-2 6-2 1-3v-2l6 6 9 14 6 13 25-26 1 1 2 2M256 419q2 1 1 4l-3 8-1 18 12-17 5-7q3-4 6-1l-3 1q-3 1-2 5 1 2 4 2h5l-3 4q-3 4-6 5l-6 6-5 7-2 7-4 8-2 3q-2-3-6-2l-4 1v-4l-3-5q-4-6-3-11l-9-12-4-2q-3-1-3-3l5-4v-4l-4-3 3-2q3-1 6 3l7 11 3 7v-14l2 1v-5q0-5 2-7l3 6 4 5 3-4 1-6 1 1"/><path fill="#dbdcdc" d="M141 406q2 1 2 3l-1 2q0 2-12 5l6-7 5-3M125 415h1l2 2-1 3-2 1-10 3 5-5 5-4M122 433l1 2-1 1-8 8 3-8 3-4 2 1M166 469l4 3v2q0 2-7 9l3-14M223 424l2 1 1 2-1 3-3 2-7 5 4-9 4-4M249 412v1l2 2q2 4 0 13l-4-4q-3-4-2-8l2-3 2-1M276 432l-3-1-2-2v-2l1-1h5q4 1 6 6h-2l-3-1-2 1"/><path fill="#ce7486" d="M81 417l8-1-9 17-8 4H61l-7 1 7-11 2-1q9-6 18-9"/><path fill="#d7a400" d="M45 375l5 3 12 3q16 3 28-3l-10 5-7 3-3 3q-2-2-5-2l-2 1q-8-2-14-9l-4-4M41 344q-8 0-10-7l-1-4v-2q0 2 3 5 4 3 7 2 4 0 6-2l2-2v5q-2 4-7 5M63 324q0 4-2 7l-2 2-1-6q3 0 4-2l1-1M73 326q2 1 4-1l1-1-1 3q-2 3-5 3l1-4M86 325h4l2-1-2 2q-2 3-5 3l1-4"/><path fill="#ca4829" d="M268 286q9-9 22-28l11-17q-5 15-15 31-10 14-20 24-11 11-21 29l-8 16q0-9 10-26 10-18 21-29M146 370l2-7 6-1h8l11-2q14-3 22-12l-5 6q-9 8-16 10-4 2-20 4l-8 2"/><path fill="#79aa4a" d="M131 370q7-6 17-7l-2 7q-11 4-17 12l2-12"/><path fill="#ca4829" d="M129 382l-3 3-2 2-6 14q-6 11-12 16l-10 6-2 1 4-8 1-3 9-6q6-7 11-21 4-11 12-16l-2 12"/><path fill="#d7a400" d="M93 415l-9 1q-3 0-12 5l-9 5-12 1H36l-12 4-15 9-7 4v-1l15-13 10-5q7-3 14-2l13 1 8-2 12-5q11-4 19-2"/><path fill="#0d131a" d="M338 119l-1 2h-1q-2-18-12-50-8-26-13-35l-2-4-3-1-6 1q-4 1-5 3v3q12 36 15 70 2 47-12 104-5 17-15 33-8 14-18 23-40 36-45 59l-1 1v-1q2-13 13-28t31-33q10-9 18-22 10-16 14-33 15-56 12-103-2-34-14-69v-5q1-3 6-4 5-2 8-1 4 1 7 6l12 34q10 31 12 50M142 17l3 3q3 5 0 11l-3 4q-13 24-20 45-13 38-13 78 0 47 17 89 20 46 52 62 1 0 0 0l-1 1q-31-14-51-58-19-43-19-93 0-40 13-79 8-22 21-46l2-4q2-5 0-9 0-2-2-2h-1q-11 10-21 28-19 31-23 65l-1 1-1-1q3-34 23-67 6-11 14-19l8-9h3"/><path fill="#0d131a" d="M92 163l1-2 1 2q-2 35 9 72 16 59 56 91v1l-1 1q-42-33-58-95-6-21-8-43v-27M315 183q0-3 1-2v3q0 20-7 39-9 28-29 52-23 26-30 36-10 15-12 30l-1 1v-2q1-14 11-30l29-37q20-23 29-48 7-18 9-42"/><path fill="#0d131a" d="M96 69q2-2 3-1 2 0 2 3v16l-1 1-1 1V71v-2l-1 1-3 3-3 5q-2 4-2 12v15l2 24-1 2-1-1-5-13-4-11-1-3q-1-1-2 1l-3 7-1 5v9l6 18q7 20 13 32v1l-1 1q-6-11-14-32l-6-19v-10l2-6 2-6 3-3q2 0 3 3l4 10 4 12q-3-28-2-38v-5l2-5 3-6 3-3"/><path fill="#0d131a" d="M63 145q0-4 2-5 2 0 4 3l22 28v4l-11-14-12-17-2-2-2 3 1 11q0 4 3 9l10 15q8 11 17 19v1h-1q-9-8-17-18l-11-16-2-5-1-5v-11M72 192q0-4 2-5t4 1l17 15v1l-1 1-18-16q-2-2-2 2l1 7 2 5 2 5 2 4q11 13 21 22v1l-1 1-22-23-2-5-2-4-3-12"/><path fill="#0d131a" d="M84 231q-1-4 1-5l4 1 13 7v1l-1 1-6-3-7-5q-3-2-2 2l2 10q2 5 6 8 8 8 17 13l1 1q0 2-1 1l-12-7-7-6q-4-4-6-9l-2-10"/><path fill="#0d131a" d="M104 261h7v2l-8-1-1 1v2l7 9 5 3 7 4 1 2v1l-8-4-7-5-6-8q-2-3-1-5t4-1"/><path fill="#0d131a" d="M119 287q-2-3 0-4h2v2l-1-1v1 1l4 4 7 7 1 2-1 1q-8-6-12-13M353 71q3 0 5 3l5 8q3 6 3 11l-1 4q-1 9-6 24l-9 27 11-18 10-15q2-4 5-3l4 2q8 13 2 24l-10 18q-6 11-12 18l12-8 13-9q2-2 5-1l3 3 1 10q-1 6-5 10-13 12-35 25l32-7q4-1 6 1 2 1 2 4 0 4-2 7l-2 4-4 3-15 8-21 8h15l17-1 4 1 1 4-2 7q-2 5-8 7l-11 3-20 4 21 1q5 0 6 3v4l-3 6-6 4-6 2-29-1 12 4 11 3 4 3q1 1-1 4l-5 5-5 2-7 1-11-1-15-2 18 8q6 3 3 6l-2 2-2 2q-5 3-9 2l-12-2-14-5 16 11 3 4-2 3-7 4-5 1-4-1-17-6 11 8q4 4 1 7l-3 2-3 1q-3 2-7 1l-9-3-10-6v-1h1l9 5 10 3 6-1 5-2v-2l-2-2-7-5-10-9v-1h1l13 5 11 4h9l6-3 1-2-2-2-8-5-12-10-1-2h2l15 5q11 4 15 4 5 0 8-2 7-4 1-6l-9-5-14-7-1-1h2q13 3 32 3h6l4-2 5-4v-3l-3-1-28-9-1-1 2-1h34l5-1 5-4 2-3 1-2v-2q0-2-4-2l-17-1-13-1-2-1 2-1 25-4 14-4q5-2 7-6l2-6v-2l-3-1-22 1h-19l1-2q18-5 43-18l4-3 2-3 1-7-2-2h-3l-23 5-15 3-2-1 1-1q9-4 21-13l18-15q4-3 4-9v-8q0-2-2-2l-3 1-18 13-10 6-2 1v-2l11-17 13-23q3-6 2-13l-4-9-2-1q-2 0-3 2l-12 20-14 18-1 1v-2q4-8 10-28l7-29v-6l-2-7-5-8-3-1q-2 0-3 3l-6 21-9 30-2 1v-2l9-27 6-24q1-5 5-5M113 140q1-2-1-5l-3-5v-1h1l1 2 2 3 2 3-1 4-3 11-2 17-2-6q1-12 6-23M118 148l3-3q2 0 3 2l6 8 2 2v7q-5 13-6 22-3 11-3 19l1 5q2-13 7-25l6-16 2-2 3 1 8 9 3 4-1 5-3 15-6 29 9-19q4-8 9-13l3-2 4 2 2 4 2 4v5l-1 4q-4 6-7 16-5 13-6 26l11-15 11-14 3-2 3 3 2 10v4l-2 4-10 19 9-8 6-5q2-2 4-1l2 2 2 5v5l-2 6-10 21 14-13 4-1 2 3 1 4-1 6-4 6-5 7-1-1v-1l8-12 1-2v-3l-1-4-1-1-2 1-18 16-2 1 1-2 12-26 2-3v-4l-2-8-1-1-1 1-21 18h-1v-1l6-12 7-13 2-4v-3l-2-9-1-2-2 1-24 32h-1v-1q0-13 5-28l8-18 1-4v-3l-4-8-2-1-2 1-9 15-10 24-2 1v-2l5-32 4-19v-5l-1-3-8-8-1-1q-1-1-2 1l-7 19-7 26-1 2-1-2q-3-20 8-52 1-4-1-7l-3-3-3-5-2-1-1 2-7 19q-3 12-2 24h-1l-1-2q0-12 3-24l6-18M142 0q2 1 0 4l-12 26-2 1-2 1 15-29V2h-2q-7 2-14 7l-3 3-3 4-9 15q-8 18-12 38l-1 1h-2q5-21 13-39l9-16 3-4 4-3 8-5 6-3h4M90 44q2-2 3-1 2 0 2 4v26l-1 1h-1l-1-10 1-18v-2l-2 1-4 6-4 9-2 5v6l2 34-2-1-1-1-1-32v-6l2-6 4-8 5-7M69 91q1-4 3-4l2 3 5 12-2 1-5-13v-1l-1 1v19l2 14-1 1-2-7-1-9V91"/><path fill="#0d131a" d="M346 16l3 4 5 24q4 18 4 31h-2l-4-31-5-23q-2-5-6-6l-10-2q-4 0-3 5 9 63 7 86h-2q1-20-7-86-1-4 1-5l4-2 10 2 5 3"/><path fill="#0d131a" d="M428 69l-1 3q-13 46-22 66l30-47q1-2 3-2t3 3q5 7 6 17l1 7-2 5-11 23q-11 19-20 31 11-8 36-34 3-3 5-2 2 0 3 4l1 8 1 8-1 5-3 4q-2 5-14 20-16 18-27 27 16-6 43-25h4q2 0 2 3v10l-2 9-2 6-3 4-15 11-28 15 39-11 4 1 1 4-4 12-3 4-4 4-16 7q-17 6-34 8l39 2q4 0 5 2v4l-6 11-4 4q-2 2-6 2h-15l-28-1 16 6 14 6q6 3 2 6l-8 6-8 4-5 2-6-1-10-4-14-6 18 12q5 3 2 6l-5 3-5 3q-4 2-9 0l-8-4-13-6 15 12q4 4 0 6-5 4-9 5h-3l-4-1-10-5-11-7 7 7 6 7 1 3-1 2q-6 4-10 4l-6-2-4-3-7-6 5 6 1 3-1 2-9 4q-4 1-7-2l-12-12 6 11 1 4-3 2q-7 2-10 1h-3l-2-2-8-12-6-11v-2l1 1 7 11 7 11 2 2h2q4 1 10-1l1-1-1-2-5-11-5-8v-2l2 1 9 11 8 7 6 2 4-1 4-2v-3l-7-8-7-9-1-2 2 1 11 10 10 8 6 2 4-1 4-3v-2l-12-12-8-10v-2l1 1q6 6 17 12l11 6h7q3 0 8-3 2-2-1-3l-23-20-1-2 2 1 17 9 14 6 4 1 3-1 4-2 5-4q2-1-1-3l-28-19-1-1h1l19 8 17 7h5l4-1 16-9q2-1-1-3l-19-7-19-9-1-1h1q9 2 29 2h22l5-2 4-3 3-6 2-5v-2l-4-1-21-1q-15 0-26-2l-1-1 1-1q15 0 36-7l21-9 4-3 3-4 2-6 2-6v-2h-3l-20 6q-21 6-31 7l-1-1q-1-1 1-1 16-4 35-17 12-7 18-13 3-3 5-9l2-9v-9q0-3-3-1l-22 14q-16 10-27 13h-1v-2q16-9 45-50l2-4 1-4v-9l-1-7q-2-4-4-1l-18 19q-16 15-23 19h-1v-2q7-9 19-32l14-25q2-5 1-12l-1-7-4-10q-2-3-4 0l-15 27q-12 18-19 25l-1 1v-2l24-71q1-5-1-9l-7-8-3-1-2 1-10 22q-8 19-14 25l-1 1v-1l4-31 2-25q0-6-4-10-5-5-12-8l-3-1-1 3-3 30-5 37h-1l-1-1q2-8 4-36l3-30q1-4 3-5t6 1l12 8q5 5 5 13l-2 20q-2 20-5 30l12-23 9-19q1-3 4-3l4 2 8 8q2 3 2 7M261 195q2-3 4-3l2 3v3l1-1 2-1 2 3 1 18-1 15-1 14-1 2-1 1 1-16 1-16q0-19-2-19l-1 1q-1 2-2 1l-1-2v-4l-4 4-2 2-2-2-1-2q0-2-1-1-2 0-4 7-3 9-3 24v26l2 29-1 1-1-1-2-29v-26q0-13 3-23t6-10l3 2 1 3 2-3"/><path fill="#0d131a" d="M274 242l2 2 2 8-2 2-2-8-1-2-3 6-8 20-2 1h-1l10-25q3-5 5-4"/><path fill="#0d131a" d="M294 209l2-4 3-3q0-1 0 0v1l-3 5q-3 6-4 0l-1-4-1-1-2 6-3 10-3 14-3 18-1 1h-1l5-33q2-9 5-14 1-4 3-4t3 4l1 4M244 248l1 14 5 19-1 1h-1l-5-20-1-14v-4-2l-2 2-1 3-2 2-1-2-1-4-1 4-1 2-1-1-1-1-1 2v7l1 14 2 14 3 13-2 1-3-14q-2-6-2-13l-1-14 1-11 2-1 1 1 2-3 2-2 1 2 1 2 1-2 3-3 2 2v6M201 280l-2 1q-3-8 0-10h2l2 3v-3l1-3q1-1 3 1l7 9 13 23v1h-1l-14-22q-6-11-8-10v1l1 3v2l-2-1-2-2h-1l-1 2 2 5M204 292l2-1 5 9-2 1-5-8v-1"/><path fill="#0d131a" d="M205 207q1-1 4 3l4 6 8 18q8 17 8 20v2l-1 1-8-19-9-20-5-9h-1v5l-2-1-1-2-1-1q-1 1 1 5l-1 2h-1l-2-2-1-1q-2 1 0 10l8 24q3 11 22 53v1h-1l-17-36-7-17-8-28q-1-7 2-8 2-1 4 2l-1-4 1-2h1l2 1 1 2v-2q-1-2 1-3M141 384v-2q0-2 10-6l14-4v2q-6 1-14 5l-9 4h5l2 1-1 1-4 2h29l1 1v1h-30l-2-2 1-1 2-1-4-1M177 390v2l-12 5-17 9-1-1v-1l17-9 13-5M178 409v1l1 1q-8 4-17 6l-8 1v-2l8-1 16-6M197 421h1v1l-7 8-11 10-7 7-3 4-1-1-1-1 11-10 18-18M225 438l-9 25-7 15q-3 6-5 6l-1-3 1-9-4 8-4 3q-2 0-2-4v-4q-2 4-5 3-3-2 0-14l6-18q7-18 14-30l1 1h1l-14 30-6 20q-3 9-1 9 1 1 2-1l1-2q2-3 3-2v6l-1 2 1 2 2-1 2-4 2-5 3-3 1 4q-2 9-1 10l3-5 6-14 9-26 2 1"/><path fill="#0d131a" d="M213 414h2l-8 20-2 5v3h1l1-1 1 1v2l-1 3 3-3 2-1v4l4-4 5-7h1v1l-4 6-6 6q-2 0-2-2l1-1-2 2h-2q-2 0-1-5l-1 1h-2q-2-2 2-11l4-10 4-9M265 433l-2 2-1-15h2l1 13M281 432l1 20q1 14-3 18h-2l-2-2-1-2-2 2q-1 3-3 3-4-1-5-14l-1-7 3-3v10q0 5 2 9l1 3 3-3 2-3 2 3 1 2 1 1 1-4 1-13-1-20h2M275 387l1-1h1l4 40-3-1-3-38"/><path fill="#0d131a" d="M276 393l1-2v-2l9 27 7 24 3 9 4 9v-4l1-2 2 2 4 4v-7l-4-22-9-29-8-26 1-1h1l8 26 9 30q6 24 4 29l-2 1q-2 1-4-2l-1-2q0 4-2 4-3 1-9-19l-7-22-8-25M308 369l2-2 11 12 14 17q7 9 12 20 6 10 4 12h-3l-3-1q1 4-1 5t-12-9l-12-12-18-22-12-17 1-1v-1l12 16q9 13 19 24l15 16 6 4 1-2v-2l1-1 2 1h1l2 1q1-1-4-10l-13-20-13-16-12-12M375 343v-1l1-1 12 3 1 2-2 3-3 1 3 1q2 1 2 3t-4 4l-17 2q-26 2-34 0v-2-1l13 2 21-1 17-2 2-2-1-1-2-1-2-2 2-2 3-2-12-3"/><path fill="#0d131a" d="M284 416l2 2 2 20 3 30-1 21q-2 11-5 11-4 1-7-10l-1 2-2 2q-3 0-4-13l-1-12h2l1 14 2 9 1-1v-2l2-3 2 3q3 10 5 9l3-7v-22l-2-32-3-22 1 1M305 435v-6l9 19 10 17 9 14q2 3 3 2l-1-5 1-2 2 2 6 6v-9l1-2h1l2 1 1 1-2-8-6-16-10-19-9-18 6 6q5 7 14 30l7 15 2 9-1 2q-2 2-4-1v6q0 4-2 5l-3-1-3-5v2q0 2-2 3l-3-2q-4-3-11-15l-9-15-8-16M313 365v-4q41 41 59 62l13 19q2 4 1 5l-3 1 2 4v5h-4l-6-2v3q-3 2-17-13l-14-15v-1h1l15 16q12 12 14 12l-1-3v-2h2q8 5 9 4t-1-4l-3-5v-2h1l2 1h2l-5-9-10-12q-16-19-57-60"/><path fill="#0d131a" d="M335 359h4q12 5 29 15l23 16q25 20 22 24 0 2-2 1v4q-1 2-4 1v3q-2 2-19-6l-22-12-18-12q-14-9-23-17l-2-3-1-2 25 18 20 14 23 12 15 6v-1l-1-1v-1h1l3 1 2-1-1-2-1-2h3l1-1-6-6q-6-7-16-15l-25-17q-18-12-30-16"/><path fill="#0d131a" d="M380 359q-1-1 1-1l2-1q10 2 22 7l15 7q6 4 6 6t-2 2l-3 1 3 2v4q-2 2-9 1l-16-2-19-5-12-4-4-3 14 4q10 4 21 6l17 2 7-1-1-2-3-1-1-2 2-1h2l2-1-5-4q-6-4-15-7-9-4-24-7M384 335h14l15 1 12 2q7 2 6 5 0 2-2 2l-4 1 2 3q-1 3-17 4l-14 1h-8l-1-1v-1h9l14-1 11-1 4-1-2-1q-2-1-1-2l2-1 4-1 2-1-4-3-14-2-14-1-15 1v-1l1-2M88 415h1l1 1-8 16-4 13-4 8-10 9-20 13h-3q-1-1 7-10l11-14 4-8h3l-5 9-12 14-4 5-3 3 9-5 12-9q7-5 9-9l4-6 4-14 8-16M73 407h2v1h-1l-4 2-3 2h-1l1-1 2-2 4-2"/><path fill="#0d131a" d="M61 427h1q1 0 0 0l-4 7q-6 8-9 15l-2 6v2l8-7 10-8q9-8 16-10v1l-1 2q-6 2-15 8l-8 8q-8 8-11 7-2-1-1-3l2-7 8-14 6-7M89 390l5-5q4-5 8-7 4-3 8-1 4 1 6 5 3 5 0 13t-10 12l-7 3h-9v-1q9 0 15-4 7-3 9-10 3-7 0-12-1-3-4-4-4-1-8 1l-4 3-3 4-4 4-6 5-9 3h-1v-1l9-4 5-4"/><path fill="#0d131a" d="M84 402v-2l1-1h2l2 2v2l-2 2-2-1-1-2"/><path fill="#fff" d="M89 400v-2h2l1 1v1h-3"/><path fill="#0d131a" d="M94 391q6-6 9-3 3 2 3 8-1 4-4 7-3 4-9 7h-1v-1q5-2 9-6l3-7q0-5-2-7-3-1-7 3-7 7-17 11l-1-1v-1q11-3 17-10"/><path fill="#0d131a" d="M66 387l6 2 4 8 1 3q4 8 19 10l4 2q1 3-2 7l-7 12-9 16-4 9-2 4-32 19-5 1-2-1-1-2q0-2 3-5l5-7 12-15 2-1 1-1-14 18-6 7-1 4v1l1 1 4-2 19-11 12-7 6-13 10-19 6-9 2-2v-3l-2-1-12-3q-6-3-8-8l-2-3-4-7q-2-3-4-2l-4 1-5 6-7 7q-5 4-10 4H22q-4 2-8 7-7 7-11 18l-1 8v3l4-2 7-5q5-4 11-6l12-4h26l3-2 12-7q8-3 16-2h1l-1 1q-7 0-16 4-4 1-11 6l-3 2H36l-11 4-10 5q-11 9-13 8l-1-1-1-6q0-4 2-7 3-12 10-19l9-7 10-1h9q4 0 9-3l7-7 5-5 5-2"/><path fill="#0d131a" d="M91 395l1-1q3 2 3 6 1 3-1 6-1 3-4 3h-3l-3-1-3-4v-3l1-1v1l1 2q0 3 2 4l2 1h3l3-3 1-5-3-5M117 362l-7 4h-6l-5-1-5-1-1-1v-2l6 2 6 1 5-1 6-3 13-11 16-13q18-16 41-15 2 0 1 1h-1q-11 1-21 4-10 4-19 12l-29 24M160 369l-7 1-9 2q-9 5-14 10-4 4-10 17-5 11-12 17-5 5-15 10v-1-1l14-10q6-6 11-16 6-13 10-18 5-5 16-10l8-3 7-1 9-1 10-4 15-11 5-6 1-1v1l-5 7-15 12-10 4-9 2"/><path fill="#0d131a" d="M133 350l6 1v1l-1 2q-7 15-8 27l-2 1q2-12 6-22l3-8h-8v-1-1h4M144 339v-1l8-2h8l1 1-1 1-5 8q-5 9-8 25l-2-1q3-15 8-24l6-9h-7l-8 2M38 343h1v1 12q1 9 4 14 3 6 10 11l11 7-1 1v1l-11-7q-7-6-11-12t-4-16l1-12M76 386l-5 3-2-1 5-3 7-4 7-3 5-3 2-5-2-4-3-9q-1-9 4-22l5-11q1-5-2-9-3-5-8-4l-4 1-1-1v-1q3-2 7-1 5 0 8 5 3 4 1 11l-4 11-4 16q-1 8 3 13l2 5q0 3-3 6-3 4-11 7l-7 3"/><path fill="#0d131a" d="M41 315h6q4 0 7 2 5 3 6 9l-1 11q-2 16-1 23 2 13 13 18l1 2h-2q-11-6-14-19-1-7 1-23v-11q-1-5-4-8l-6-2h-6q-5 1-8 6-4 5-2 12 1 4 4 6l5 2 6-2q2-2 2-5t-3-3h-3l-1 1v-2q2-2 5-1t4 5l-2 6q-3 3-8 3l-6-2q-5-3-6-8-1-7 3-13t10-7"/><path fill="#0d131a" d="M70 316q-3-5-9-6t-10 2l-3 4h-2l4-6q4-3 11-3 8 2 11 7 2 6 1 17v24q2 13 10 19v1h-1q-10-7-11-22v-22q1-10-1-15"/><path fill="#0d131a" d="M66 310q1-3 4-5l8-1q11 3 9 22l-2 22q0 15 4 22v1h-1q-5-7-6-20l2-25q3-17-7-20-4 0-7 2l-3 3h-1v-1M62 324l1-1v6q-1 3-5 5v-1-1l3-4 1-4"/><path fill="#0d131a" d="M77 324l1-1 1 1-2 5q-2 2-5 2v-1-1l4-2 1-3M91 324l1-1v2l-2 3q-2 2-5 2v-1-1l4-1 2-3M161 327l-3 1q12-21 35-26 16-4 38 0v1h-1q-48-8-69 24M268 394v-3q8-5 13-12 4-3 5-6h1l1 1-6 7q-6 7-14 13M179 391q17 17 45 14v3q-29 2-47-15-6-7-10-15l-4-11h2l4 11q4 7 10 13"/><path fill="#0d131a" d="M178 392h1v4l-1 5q0 9 5 14v1h-1q-7-5-6-15l1-6 1-3M222 406h1v1q-9 11-18 14-7 2-13 1v-1-1q4 1 11-1 10-4 19-13"/><path fill="#0d131a" d="M223 395l1-2 1 2q-1 14 4 23 5 8 13 10l1 1-1 1q-10-3-15-11-6-10-4-24M266 388l1-2 1 2q2 9 0 20-2 16-13 21v-1-1q9-4 11-21v-18M185 413h4l3 2 1 5q0 3-3 5l-10 10-10 9v10l1 4 1 5q2 3 1 5 0 4-3 6 0 1 0 0v-1q2-2 1-5l-1-4-2-10 1-10q0-2 10-11l10-10 2-3-1-4-2-1h-3l-2 2-20 21-1-1-1-1 11-10 9-11 4-2"/><path fill="#0d131a" d="M164 440v1q-1 1-1-1l-12-25-5-10q-2-2-4-1h-2l-2 2h-1v-1l2-2 3-2q4 0 6 3l6 11 10 25"/><path fill="#0d131a" d="M135 415h1l1-1 5 3q3 0 8 10 5 8 6 13l-1 1-1-1-6-13-7-9-6-3"/><path fill="#0d131a" d="M133 415l3-1 9 9 8 10-1 1h-1l-8-10-10-9M131 414l-5-1-3 1h-1q1-3 4-3l6 1-1 2M123 422h1l5 2 8 4q7 5 10 12v1l-1-1q-4-6-10-10l-7-3q-5-2-6-5"/><path fill="#0d131a" d="M123 426l10 3q6 2 11 6v1h-1q-4-3-11-5l-9-3-4 2-2 2-1 1v-1q0-3 2-4l5-2M163 471v1h-1q-2-1-2-3v-5l-1-4-6-4-5-3-3-3-2-3q-3-3-7-4-3-2-7-2-6-1-8-3v-1l4 1h4l8 3 8 4 2 4 3 2 4 3 7 5 1 5v4l1 3"/><path fill="#0d131a" d="M120 433l-1-1h-2l-1 2-2 6v3l3-3 4-4 1-2-2-1m3 2v2l-9 7-1 1v-5l1-7 3-2h4l2 4M126 420v-1l1-2-1-2h-4q-3 2-6 9l4-2 4-1 2-1m2-4v4l-2 2h-2l-8 3h-2l2-5q2-4 5-6l3-1 3 1 1 2M141 407l-2-1h-2l-4 5-2 4 9-3q2-1 2-3l-1-2m1-2l2 3-1 3-1 2-2 1-5 1-5 2-1-2 3-5 4-5q3-2 6 0M169 473v-1l-2-2-3 1v1l-1 10 6-7v-2m-6-3q1-2 4-1 2 0 3 2 2 2 0 5l-6 8h-2v-2-10l1-2M244 416l1 1v1l-2 3 1 9 2 15v7l-1-1-3-20q-3-10 2-15M255 417v-1h1l1 2 1 3-2 6-1 4-2 21-1 1v-12l1-10 1-4 2-6v-2l-1-2"/><path fill="#0d131a" d="M245 448v2l-13-20-3-5-2-2-4-1-2 2h-1q-1 0 0 0 0-2 3-3 3-2 5 0 2 0 3 2l3 6 5 8 6 11M219 434l1-1 4 3 5 4 12 15v1h-1l-13-15-4-3q-2 0-3-2l-1-2M269 424q1-3 4-3l4 2v1h-1l-3-1-3 2-3 5-4 6-10 15-1-2v-2l10-12 3-6 4-5M278 432l1-1v1q0 4-5 9l-8 7q-5 4-5 8l-5 10-2 3v13l1 4q0 2-3 5h-1v-1q2-2 2-5l-1-4v-13q5-5 7-13l6-9q3-4 8-7l3-4 2-3"/><path fill="#0d131a" d="M238 428h3v14h-2v-10l-1-4M243 489v1l-1 1q-4-2-2-9l1-8v-7q-4-5-5-9v-8h1v1l1 6q1 5 5 9 1 2-1 17v4l1 2M220 425q-3 1-4 7l-1 5 1-2 5-3q4-2 4-4t-2-3h-3m-5 5q1-5 4-7 3-1 5 1 3 1 2 4l-1 3-3 2-6 4-1 1h-1v-1q-1-2 1-7M246 413q1-2 3-2 3 0 5 2l2 3v3l-2 6-3 4h-1l-4-5-2-6q0-3 2-5m7 1q-1-2-4-1l-2 1-2 4 6 9 2-3 1-5v-1l-1-4M276 431h7l-3-5-4-1h-3l-1 2v3q1 2 4 1m0-8q3 0 5 2 2 1 2 4l1 3-1 1h-1l-6-1h-3q-2 0-2-2l-1-3 2-3 4-1"/><path fill="#0d131a" d="M243 488l4-2q3 0 4 2l1 3-2 6-2 5q-2 0-4-4l-2-7 1-3m4 0l-3 1v2l1 5 2 4 2-4 2-5v-1l-1-1-3-1"/></svg>