<svg xmlns="http://www.w3.org/2000/svg" viewBox="0 0 419.85 334.97"><path d="M145 122.75c-.32 2.57 1.11 17.59 1.24 19.92-.39-1.14-3-9.61-4-10a1.9 1.9 0 0 0-2.56.45c-.94.93-2.5 3.89-2.17 6.17 1.09 7.49 22.83 71.46 25.05 75.49l1 1.06 15.29-4 .74-1.91c-.83-1.41-25.75-89.5-27.65-92.45-1.4-2.25-6.65 2.7-6.94 5.27z" fill="#0f141b"/><path d="M150.56 118.92c-1.17-.54-4.08 2.55-4.08 3.89 0 4.16 1.16 23.92 1.43 25.65s-.32 2-1 .24-4.41-13.78-4.63-14.37c-.65-1.71-3.5 1.71-3.11 4.43.31 2.14 2.34 9 5.13 17.81 5.12-2.49 9-7.38 14.75-9.33-3.84-12.95-7.33-27.77-8.49-28.32z" fill="#ffe792"/><path d="M178 210.86c-1.45-3.82-7.12-23.12-15.38-51.38-1.22-4.18-2.42-8.3-3.58-12.24-5.71 1.95-9.63 6.84-14.75 9.33C151 177.71 162 210 164.13 214.51z" fill="#f9be00"/><path d="M234.89 124.65c0-.39-.41-6.6-1.34-7.44s-4.11-.26-5.24 1.2-4.66 20-7.95 34.45c-4.15 18.3-7.46 36.64-8.67 43.23l-.06.32 14.81 11.67 1.61.64c3.88-16.33 16.45-80.38 15.18-88.52-.24-1.47-5.14-4.57-6.2-3.19-.53.7-1.27 4.71-2.14 7.64z" fill="#0f141b"/><path d="M222.42 152.52c-4.1 18-8.32 36.62-9.6 43.44l13.62 10.73c2.74-11.72 8.52-40.55 12.19-62.52a35.37 35.37 0 0 0-13.43-3.93c-.88 3.9-1.82 8.05-2.78 12.28z" fill="#f9be00"/><path d="M126.24 149.23l-.26.84v.27c.26 10.33 22.07 54.48 29.4 63.25l.34.4 12.34-9.63.76-.67c-4.86-6.44-34.2-56.74-35-57.29s-2.48-1.03-7.58 2.83z" fill="#0f141b"/><path d="M132.87 148.19c-.81-.35-2.33-.18-5.77 2.4.15 2.74 1.68 7.64 4 13.53 1.59-3.5 5-4.54 8.06-5.89" fill="#ffe792"/><path d="M166.57 204.15c-4.94-6.67-13-20.84-20.22-33.4-2.52-4.41-5-8.7-7.2-12.52-3 1.35-6.47 2.39-8.06 5.89 6.53 16.67 19.28 41.37 24.81 48.36z" fill="#f9be00"/><path d="M252 115.38c-2.3 2.27-17.55 51.31-18.11 59.69l.26 1 9.72 5.17.63.14c1.07-1.9 14.26-52.63 14.64-60 .16-2.85-4.83-8.27-7.14-6z" fill="#0f141b"/><path d="M253 117c1.41-.71 3.82 1.52 4.57 4.19s-12.5 53.22-14.21 58.53l-8.07-4.28c.9-8.98 16.64-57.92 17.71-58.44z" fill="#ffe792"/><path d="M178 210.86c-1.45-3.82-7.12-23.12-15.38-51.38-1.22-4.18-2.42-8.3-3.58-12.24-5.71 1.95-9.63 6.84-14.75 9.33C151 177.71 162 210 164.13 214.51z" fill="#f9be00"/><path d="M200.09 134.16c-.37-8.72-.82-15.73-1.34-19.08-.2-1.32-1.32-1.9-3.3-1.76a31.55 31.55 0 0 0-1 3.82 21.43 21.43 0 0 1-1.71 5.7l-1-.12c-.27-1.18-.74-5.86-1.2-10.39-.31-3.14-.61-6-.82-7.68-1.71.38-4.51 1.39-4.61 2.75s-.13 5-.13 10.34c0 4.73 0 10.71.09 17.33 4.93-.29 10.2-1.32 15.02-.91z" fill="#ffe792"/><path d="M185.09 135.07c.21 25.76.76 61.25 1.15 70.58l14.46 1.57c.33-2.05.49-9.25.49-18.92 0-13.18-.29-30.8-.78-45.7a2.53 2.53 0 0 0-.77.08c.26 0 .51-.06.77-.08-.1-2.93-.21-5.77-.32-8.44-4.82-.41-10.09.62-15 .91zM222.42 152.52c-4.1 18-8.32 36.62-9.6 43.44l13.62 10.73c2.74-11.72 8.52-40.55 12.19-62.52a35.37 35.37 0 0 0-13.43-3.93c-.88 3.9-1.82 8.05-2.78 12.28z" fill="#f9be00"/><path d="M237.68 118.61c-.58 1.07-2.11 8.79-2.77 10.38s-.89.64-1.06-.1-.46-9.48-.84-10.16-2.56-.08-3.22.68-2.5 11.6-4.59 20.83a35.37 35.37 0 0 1 13.43 3.93c1.7-10.12 3.87-22.18 3.24-23.66s-3.61-2.97-4.19-1.9z" fill="#ffe792"/><path d="M256.09 154c-6.77 14.2-14.41 30.22-15.8 35.82l9.47 2.88c4.38-4.31 11.24-19.61 16.16-31-3.3-2.54-6.83-4.85-9.82-7.71z" fill="#f9be00"/><path d="M269.88 152.54a43.31 43.31 0 0 1-4.51 4.27l-.82-.65c1.09-2.63 2-5.34 2.82-8a70.34 70.34 0 0 1 3.87-10.16 8 8 0 0 0-3.93-4.37 2.34 2.34 0 0 0-1.74-.15C263.71 138 260 145.77 256.1 154c3 2.86 6.52 5.17 9.82 7.71.66-1.52 1.28-3 1.86-4.32 0-.02 1.13-2.63 2.1-4.85zM213 146.2c.31-16.37.59-31.32.59-36.53v-.47l-1.59-.1c-1.5-.15-3.76-.37-4.4.16-.75 1-3.87 15.44-6.63 33.3 4.49-.2 8.03 2.04 12.03 3.64z" fill="#ffe792"/><path d="M213 146.2c-3.92-1.6-7.49-3.84-12-3.64-2.45 15.85-4.63 34.38-4.63 48.56 0 3 .11 5.86.33 8.42l15.49 2.1v-1.92c0-8.09.4-29.26.79-49.8a33 33 0 0 1 .02-3.72zM174.11 129.48a18.06 18.06 0 0 0-9.83 4.31c2.19 15.82 9.55 58.73 13.86 68.33l11.59 1.8c-1-5.91-6.46-31.57-11.34-54.37-1.5-7.03-2.97-13.91-4.28-20.07z" fill="#f9be00"/><path d="M169.39 106.68c-1.82.63-3.74 1.14-5.61 1.61l-.41.1a54.57 54.57 0 0 0-.52 7.66 131.4 131.4 0 0 0 .91 13.6c.11 1 .28 2.41.52 4.14a18.06 18.06 0 0 1 9.83-4.31c-2.34-11-4.17-19.71-4.72-22.8z" fill="#ffe792"/><path d="M166.57 204.15c-4.94-6.67-13-20.84-20.22-33.4-2.52-4.41-5-8.7-7.2-12.52-3 1.35-6.47 2.39-8.06 5.89 6.53 16.67 19.28 41.37 24.81 48.36zM235.31 175.42l8.07 4.28c1.07-3.32 6.16-22 9.92-37.64-2.43-1.41-5.44-2-8-3.15-4.54 14.4-9.48 31.36-9.99 36.51z" fill="#f9be00"/><path d="M136.91 221.84c-7.76 2-20.57 6.79-30.73 10.91-5.49 2.23-9.87 3.64-11.92 4.42-3.94 1.5-2 5.12.31 7 1.21 1 3.72.12 7.12-1.13a25.87 25.87 0 0 0-4.55 3.59c-1.28 1.66.47 2.46 2.43 2.32 9.48-.69 33.31-12.57 42.46-16.47l2.21-.94.21-.84-7.2-8.94z" fill="#0f141b"/><path d="M96.43 243.27c-1.85-.46-3.85-4-1.47-4.86.84-.29 34.17-13.39 41.89-15.42l6.3 7.82-1.55.65c-8.84 3.77-39.24 17.28-42.66 15.49-.89-.46 5.17-5 7.74-6s4.2-2.23-.17-.69-8.23 3.47-10.08 3.01z" fill="#ffe792"/><path d="M137.86 258.17l-.4.71c-13.87 23.3-15.09 26.38-15 28.74 0 1.15.89 2.4 2.93 2.94 9.46 2.46 14.25-8.79 21.81-26.61l.18-.42-8.76-5.53z" fill="#0f141b"/><path d="M125.26 284.51c-.93 2.08-1.1 3.6.23 4 5.86 1.77 9.43-2 14-10.51a40.09 40.09 0 0 1-9-3.95c-4.59 8.88-4.31 8.38-5.23 10.46z" fill="#ffe792"/><path d="M138.53 259.2l-.12.21c-3.36 6-5.95 10.81-7.93 14.65a40.09 40.09 0 0 0 9 3.95c2-3.74 4.12-8.43 6.51-14.06z" fill="#f9be00"/><path d="M171 277.71c-4.45 6.13-8.81 15.61-8.17 19.06s5 4 7.57 2.16c3.71-2.58 9.12-17.11 8.85-20.38v-.47l-8-.61z" fill="#0f141b"/><path d="M177.55 279.24l-6.43-.5a39.55 39.55 0 0 0-4.16 7.71 28.79 28.79 0 0 0 7.63 2.49c1.66-3.85 2.88-7.85 2.96-9.7z" fill="#f9be00"/><path d="M167 286.45c-1.56 3.75-3.37 8-2.52 10.41s3.58 1.6 4.61.84c1.85-1.35 3.9-5 5.54-8.76a28.79 28.79 0 0 1-7.63-2.49z" fill="#ffe792"/><path d="M219.24 271.47l-11.51 4v.36c-.25 3.6 6.47 15.36 7.71 16.59s2.62 2.48 3 2.47c1.44.34 5.44 1.16 6.67.82s1-1.92 1.07-3.49-2.27-18.56-6.47-20.75l-.2-.11z" fill="#0f141b"/><path d="M219.33 272.59c3.14 2.1 6.37 20.64 5.69 21.44s-4.43.17-6.49-.52-9.53-13-9.72-17.23z" fill="#ffe792"/><path d="M183.57 107.09c-.49 6.9.3 85.88.9 99.12l.72.42 16.35 1.78.81.31c1.6-5.51-.92-90.35-2-94s-4.32-4.22-5.32-2.9-1.89 6-2.27 7.15c-.25-2.08-.54-15.44-2.12-16.14s-6.87 1.4-7.07 4.26z" fill="#0f141b"/><path d="M200.09 134.16c-.37-8.72-.82-15.73-1.34-19.08-.2-1.32-2.71-3.08-3.3-1.76s-2.4 8.52-2.67 9.52-.87 1.12-1-.12-1.14-17.48-2-18.07-4.51 1.39-4.61 2.75-.13 5-.13 10.34c0 4.73 0 10.71.09 17.33 4.87-.29 10.14-1.32 14.96-.91z" fill="#ffe792"/><path d="M185.09 135.07c.21 25.76.76 61.25 1.15 70.58l14.46 1.57c.33-2.05.49-9.25.49-18.92 0-13.18-.29-30.8-.78-45.7a2.53 2.53 0 0 0-.77.08c.26 0 .51-.06.77-.08-.1-2.93-.21-5.77-.32-8.44-4.82-.41-10.09.62-15 .91z" fill="#f9be00"/><path d="M264.6 132.28c-1.69 3.37-24.57 51.48-25.66 56.75l.06 1.53 11.39 4.44.56-1.4c9.42-10.9 20.2-40.9 20.4-41.65s-.74-1.43-1.7-.9a16.9 16.9 0 0 0-3.06 2.47c.75-2 5.66-13.86 6-16s-6.3-8.6-7.99-5.24z" fill="#0f141b"/><path d="M256.09 154c-6.77 14.2-14.41 30.22-15.8 35.82l9.47 2.88c4.38-4.31 11.24-19.61 16.16-31-3.3-2.54-6.83-4.85-9.82-7.71z" fill="#f9be00"/><path d="M269.88 152.54c-.31-.39-2.72 2.32-3.48 3.11s-2 .57-1.23-1 5.63-15.11 6.07-16.59-4.52-6.27-5.67-4.52c-.8 1.24-5.55 12.21-9.47 20.42 3 2.86 6.52 5.17 9.82 7.71.66-1.5 4.28-8.74 3.96-9.13z" fill="#ffe792"/><path d="M206.11 107.74c-2 2.93-14.15 66.44-11.72 93.16l1.21-.39 17 2.3 1.49 1c-.13-4.78 1.53-93.79.78-95.39-.99-2.06-7.95-1.86-8.76-.68z" fill="#0f141b"/><path d="M213 146.2c-3.92-1.6-7.49-3.84-12-3.64-2.45 15.85-4.63 34.38-4.63 48.56 0 3 0 6.85.18 9.42.81.11 14.5 1 15.64 1.1v-1.92c0-8.09.4-29.26.79-49.8a33 33 0 0 1 .02-3.72z" fill="#f9be00"/><path d="M213 146.2c.31-16.37 1-35 .59-36.53s-5-1.62-6-.41c-.66.8-3.87 15.44-6.63 33.3 4.5-.2 8.04 2.04 12.04 3.64z" fill="#ffe792"/><path d="M161.56 107.82c-1.34 2.59-.4 14.27.42 22.09 1.11 10.62 9.63 62.12 14.53 72.53l.88.66 12.91 2 .63-.61c-.59-4.31-6.13-30.17-11.48-55.18-4.37-20.46-7.32-41.71-8.76-44.1s-8.21.85-9.13 2.61z" fill="#0f141b"/><path d="M169.39 106.68c-1.12-1.48-4.4 0-6 1.71s.67 23.67.91 25.4a18.06 18.06 0 0 1 9.83-4.31c-2.36-11-3.61-21.33-4.74-22.8z" fill="#ffe792"/><path d="M174.11 129.48a18.06 18.06 0 0 0-9.83 4.31c2.19 15.82 9.55 58.73 13.86 68.33l11.59 1.8c-1-5.91-6.46-31.57-11.34-54.37-1.5-7.03-2.97-13.91-4.28-20.07z" fill="#f9be00"/><path d="M215.63 137.76c-.84 1.21-6.52 59.48-8.39 67.33l.29.51 15.17 3.87.74-.05c3.19-11 5.39-60.87 1.66-70.3-.79-2-8.63-2.56-9.47-1.36z" fill="#0f141b"/><path d="M225.42 162.63c0-10.24-.56-19-1.93-22.72-4.25-1-5.94-.95-6.27-.77-.91 5.16-1.88 13.86-2.9 23.39l11.1 1.58zM214.32 162.53c-.13 1.18-.25 2.37-.38 3.56-1.54 14.4-3.27 30.62-5.12 38.72l13.11 3.34c1.87-7.09 3.4-27.16 3.49-44z" fill="#ffe792"/><path d="M251 189.59l-.28 1.14 4 12.06.84.27a56.7 56.7 0 0 0 10.58-10.47c4.05-5.18 15.7-21.57 15.7-21.57a10.75 10.75 0 0 0 1.47-8.12c-.57-2.15-1.44-5.66-3.22-5.15s-26.78 28.76-29.09 31.84z" fill="#0f141b"/><path d="M265.15 176.12c6-6.46 13.7-16.39 14.8-16.64s1.54 1.84 2 3.7a8.09 8.09 0 0 1 .3 2.19 6.27 6.27 0 0 1-1.25 3.85l-4.6 6.39c-6.13 8.64-15.28 21.52-21 26.09l-3.59-10.76c2.49-3.09 7.76-8.78 13.34-14.82z" fill="#ffe792"/><path d="M137.82 241.65c-3.13 1-14 8.36-22.7 13.6-21.52 13.05-18 16.52-15.31 17.68a8.49 8.49 0 0 0 7.61 0c2.46-1.24 30.41-17.63 35.42-22.55l.3-.3-4.9-8.57z" fill="#0f141b"/><path d="M111.87 259.24c-13.28 8.39-13.13 10.87-11.32 12a5.21 5.21 0 0 0 5 .61c1.93-.62 6.29-3.56 11.68-6.57-1.23-2.59-3.9-3.86-5.36-6.04z" fill="#ffe792"/><path d="M137.75 242.85c-3.91 1.58-16.12 9.56-25.88 16.39 1.46 2.18 4.09 3.45 5.41 6.06 9.49-5.29 20.95-12.18 24.49-15.42z" fill="#f9be00"/><path d="M147.13 235.91c-9.88.21-32.43 11.45-34.47 12.56s-5.23 3-2.26 6.58c1.59 1.93 6 2.18 9.14 1.33 6.5-1.76 21.4-6.31 28.05-8.47l.38-.12-.3-11.9z" fill="#0f141b"/><path d="M114.47 249.13c-2.7 1.31-4.39 2.58-3.24 4 1.93 2.39 4.53 2.8 8 1.87 2.37-.65 5.87-1.62 9.68-2.7-1.26-2.67-4.47-4.39-4.65-8-4.06 1.98-8.54 4.22-9.79 4.83z" fill="#ffe792"/><path d="M146.61 237c-6.25.32-15 3.82-22.36 7.33.18 3.56 3.39 5.28 4.65 7.95 6.42-1.82 13.7-3.94 18-5.31-.05-.69-.27-8.97-.29-9.97z" fill="#f9be00"/><path d="M150.48 170.12c-1.59.16-4.39 1.64-3.59 6.92.51 3.39 7.64 26 14.23 33.37l.36.41 8.9-7.9.15-.71c-3-6.36-10.17-20-13.31-26-1.52-2.84-4.22-6.34-6.74-6.09zM147.86 247l-2.27 1.2c-11.51 6-25 13.15-25.23 19.11-.06 1.57 1.46 4.71 3.4 5 3.23.54 27.83-15.85 30.93-18.86v-.79l-6.45-5.87z" fill="#0f141b"/><path d="M123.62 270.73c1 .32 7.26-3 13.84-7a44.61 44.61 0 0 1-6.9-5.66c-10.85 7.09-8.22 11.86-6.94 12.66z" fill="#ffe792"/><path d="M148.05 248.11l-2 1a154.89 154.89 0 0 0-15.54 9 44.61 44.61 0 0 0 6.9 5.66c6.58-3.95 13.53-8.53 16-10.73z" fill="#f9be00"/><path d="M166.8 142c-.64 5.13 7.45 69.25 10.27 84.51l1.77.29 15.38-10.91 1.15-.14c-.9-6.74-4.57-26.8-7.4-43.57-2.25-13.27-4.42-25-5.18-30.12-1.34-4.12-5.2-5.87-6.59-4.1-.68.88-1.18 4.26-1.41 6.14 0 0-.67-5.45-.93-6.77s-1.93-2.34-2.77-1.89a9.27 9.27 0 0 0-4.29 6.56z" fill="#0f141b"/><path d="M172.18 137.16c.9 1.17 1.69 7.86 2.19 10.18s1.14 1 1.21-.41.29-2.75.29-2.75c.21-1.71.43-4.68 1-5.16s3.71 1 4.22 3.27 2.85 17.62 5.09 30.9c2.79 16.51 6 35.17 6.89 42.15-.49.35-12.9 9.14-14.14 10-2.92-16.19-11.47-80.7-10.64-83.62s2.99-5.72 3.89-4.56zM225.42 162.63c0-10.24-.37-21.12-1.93-22.72s-5.69-1.73-6.27-.77-1.88 13.86-2.9 23.39l11.1 1.58zM214.32 162.53c-.13 1.18-.25 2.37-.38 3.56-1.54 14.4-3.27 30.62-5.12 38.72l13.11 3.34c1.87-7.09 3.4-27.16 3.49-44zM156 177c-1.68-3.16-3.87-5.18-5.46-5-1.34.13-2.68 2.44-2.16 4.79s1.2 4.35 2 7a30.17 30.17 0 0 1 7.6-3z" fill="#f9be00"/><path d="M169.05 202.65c-2.51-5.33-7.61-15.29-11.05-21.91a30.17 30.17 0 0 0-7.6 3c2.56 8.64 6.41 19.85 11.19 25.5zM193.05 215.34c-.94-7-4.1-25.64-6.89-42.15-.78-4.66-1.55-9.22-2.26-13.41-4.48 1.1-9.15 1.79-13.59 3.2 2.33 21.74 6.54 50.94 8.6 62.39 1.24-.89 13.65-9.68 14.14-10.03z" fill="#f9be00"/><path d="M136.7 297.85c-1.25 3.88.7 7.94 3.72 11.14.51.55 1.32.82 1.26-.91a58.76 58.76 0 0 1 .36-7.73l.12-.43-4.7-2.39z" fill="#0f141b"/><path d="M137.43 300.26a6.76 6.76 0 0 1 .21-1.42l3.27 1.67a22.4 22.4 0 0 0-.15 3.06c0 1.55.06 3.26.16 4.59a11.68 11.68 0 0 1-3.49-7.9z" fill="#dbdcdc"/><path d="M144.1 301.45c-1.12 3.41 1.21 8.54 2.07 9.59 1.17 1.41 1.86 1.23 2.49-.17.79-1.77 2.19-4.26 1-7.85l-.09-.22-4.81-1.7z" fill="#0f141b"/><path d="M144.85 303.84a7.67 7.67 0 0 1 .16-1.51l3.74 1.33a4.79 4.79 0 0 1 .18 1.41c0 2.06-.63 5.1-1.48 6.19a12.54 12.54 0 0 1-2.6-7.42z" fill="#dbdcdc"/><path d="M151.91 300.56a16.7 16.7 0 0 1 0 3 13 13 0 0 0 .78 5.34c.43.93 1.13 1.37 2.67-.17a8.08 8.08 0 0 0 2.12-8l-.11-.34-4.87-.39z" fill="#0f141b"/><path d="M152.93 305.53a18 18 0 0 1 .07-1.93 16.79 16.79 0 0 0 .06-1.85v-.66l3.47.32a5.68 5.68 0 0 1 .22 1.42 7.65 7.65 0 0 1-3.09 6 6.76 6.76 0 0 1-.73-3.3z" fill="#dbdcdc"/><path d="M141 270.2c-7.14 10.49-9.58 19.74-5.39 27.9 1.46 2.84 4.17 5.93 6.28 5.86 1.32 0 2.46-1.2 3.48-3.55 2.55-5.83 4.43-15 3.11-21.23v-.12l-6.56-8.88z" fill="#0f141b"/><path d="M137.48 297.82a19.57 19.57 0 0 1-2.19-9.06c0-5.33 2.07-11.12 6.15-17.3l5.95 8.05a21.31 21.31 0 0 1 .39 4.22 44.61 44.61 0 0 1-3.44 16.27c-.82 1.87-1.69 2.87-2.53 2.89-1.7.04-3.68-3.81-4.33-5.07z" fill="#308097"/><path d="M140.07 295.44c-1.88-1.41-3.76-4.8-4.73-8.08 0 .47-.05.94-.05 1.4a19.57 19.57 0 0 0 2.19 9.06c.65 1.26 2.63 5.11 4.33 5.05a1.51 1.51 0 0 0 1-.46c-.19-1.55-.35-2.78-.35-2.78z" fill="#1f6579"/><path d="M154.45 279.34l-.75 2.32c-3.08 9.26-5.54 18.22-2.69 21.19.92 1 3 1.32 4.81.8 9.53-2.77 5.5-17.15 4.26-21.45l-.08-.2-4.77-3z" fill="#0f141b"/><path d="M151.79 302.09a5.17 5.17 0 0 1-1-3.54c0-4.84 2.61-12.66 3.9-16.54 0 0 .32-1 .55-1.69l3.81 2.38a40.46 40.46 0 0 1 1.12 9.68c0 4.43-.88 8.76-5.42 10.08-1.35.41-2.33.29-2.96-.37z" fill="#308097"/><path d="M154.79 302.46a6.63 6.63 0 0 0 4.51-4.14 14.69 14.69 0 0 1-5.27.61l-3 1.17a3.59 3.59 0 0 0 .84 2c.55.65 1.53.77 2.92.36z" fill="#1f6579"/><path d="M143.94 279.71l-1.15 3.43c-2.52 7.17-6.32 18 .1 22.22 3.56 2.33 6.51 1.43 7.89.24 6.09-5.2 5-17.37 3.18-22.29l-.09-.23-9.2-3.72z" fill="#0f141b"/><path d="M143.49 304.45c-2.24-1.47-2.61-4-2.61-6.85 0-3.41 1.16-9 2.94-14.1 0 0 .71-2.12 1-2.91l8.2 3.31a22.05 22.05 0 0 1 .86 6.71c0 5.41-1.23 11.83-4.23 14.23-1.65 1.33-3.74 1.16-6.16-.39z" fill="#308097"/><path d="M143.49 304.45c-2.24-1.47-2.61-4-2.61-6.85 0-3.41 1.16-9 2.94-14.1 0 0 .71-2.12 1-2.91l8.2 3.31a22.05 22.05 0 0 1 .86 6.71c0 5.41-1.23 11.83-4.23 14.23-1.65 1.33-3.74 1.16-6.16-.39z" fill="#308097"/><path d="M143.49 304.45c2.42 1.58 4.49 1.72 6.14.39a10.31 10.31 0 0 0 3-5c-3.72 2.23-8.61 1.41-11.68-3v.79c-.07 2.86.3 5.37 2.54 6.82z" fill="#1f6579"/><path d="M169.48 315.41c-.45 2.44-3 4.66-4.88 6-1.49 1.06-1.31 1.79-.15 2a9.88 9.88 0 0 0 5.34 0c2.19-.84 4-2.43 4.27-3.39l.08-.27-3.7-4.6z" fill="#0f141b"/><path d="M170.21 316.63l2.67 3.31a7.64 7.64 0 0 1-3.48 2.47 6.91 6.91 0 0 1-4.64.17 12.46 12.46 0 0 0 5.45-5.95z" fill="#dbdcdc"/><path d="M172.43 324.55c-1 3.22-5 5.07-7.05 5.87s-1.92 1.39-.51 1.94c3.86 1.51 9.64 1.13 12.39-3.67l.2-.36-4.1-4.11z" fill="#0f141b"/><path d="M173.21 325.61l2.87 2.88a8.22 8.22 0 0 1-6.89 3.74 9.43 9.43 0 0 1-4.22-.87c3.27-.6 7.14-3.46 8.24-5.75z" fill="#dbdcdc"/><path d="M182.32 326a11.84 11.84 0 0 1-3.22 5.19c-1.32 1.12-.95 1.66.34 1.84 3.93.58 8.28-1.64 9.76-4.92l-.34-.75-5.86-1.72z" fill="#0f141b"/><path d="M183.17 326.83l4.71 1.42a10 10 0 0 1-7.69 4.29 2.29 2.29 0 0 1-1.15-.26 11.63 11.63 0 0 0 4.13-5.45z" fill="#dbdcdc"/><path d="M183.17 326.83l1.65.5c-1.62 4-5.51 5.1-5.78 4.95a11.63 11.63 0 0 0 4.13-5.45zM170.21 316.63a13.75 13.75 0 0 1 1.08 2.05c-.36.59-4.78 4.49-6.53 3.9a12.46 12.46 0 0 0 5.45-5.95zM173.21 325.61l1.37 1.37c-2 3.14-8.65 4.86-9.61 4.38 3.27-.6 7.14-3.46 8.24-5.75z" fill="#fff"/><path d="M191.54 299.16l-1.54 3.68c-3.12 7.07-8.61 19.33-6.8 23.73 1.38 3.34 7.88 3.92 10.92 2.76 2.5-1 4.54-4.37 6-10.12 1.43-5.44.34-11.27-.71-16.9l-.6-3.29h-.44l-6.68-.2z" fill="#0f141b"/><path d="M184.42 325.73a5.17 5.17 0 0 1-.3-1.91c0-5.07 4.34-14.92 6.83-20.54l1.45-3.37 5.49.17c.12.63.45 2.43.45 2.43a60.58 60.58 0 0 1 1 11 21.1 21.1 0 0 1-.56 5.43c-1.4 5.32-3.87 8.28-6 9.1-2.58 1.02-7.25.37-8.36-2.31z" fill="#308097"/><path d="M184.42 325.73c1.11 2.68 5.78 3.33 8.37 2.34 2.09-.8 4.51-3.68 5.92-8.82-3.35 3.28-9.49 2.72-9.49 2.72l-4.81-.81a14.93 14.93 0 0 0-.29 2.66 5.17 5.17 0 0 0 .3 1.91z" fill="#1f6579"/><path d="M183.94 299.27c-1.8 3-8.33 15.83-9.72 19l-.73 1.09c-1.1 2.37-2.92 5.2-2.16 7.51a5.29 5.29 0 0 0 2.9 2.62c2.75 1.1 7.25.11 9.3-1 9.26-5 11.21-19.69 6.71-29l-.14-.29-6-.22z" fill="#0f141b"/><path d="M174.63 328.49a2.64 2.64 0 0 1-1.66-1.65 3.37 3.37 0 0 1-.15-1c0-1.87 1.14-4.34 1.94-6.07l.46-1c1.34-3.07 7.52-15.25 9.49-18.61l4.67.17a24.17 24.17 0 0 1 2.11 10.09c0 7-3.75 13.84-9.49 16.93-1.9.97-5 2.08-7.37 1.14z" fill="#308097"/><path d="M173 326.84a2.64 2.64 0 0 0 1.66 1.65c2.36.94 5.47-.17 7.37-1.2a17.68 17.68 0 0 0 7.05-7.29c-5.74 4.34-10.77 2-11.56.58l-2.77-.77c-.8 1.73-1.9 4.14-1.9 6a3.57 3.57 0 0 0 .15 1.03z" fill="#1f6579"/><path d="M180.38 295.53c-9.65 9.73-14.46 16.12-13.26 20.76.92 3.6 3.3 4.77 6.6 5.6 4.68 1.17 8.65-5.86 9.84-8.17 2.18-4.24 2.13-8.87 2.42-13.35l.13-2.08-.3-.17-5.13-2.88z" fill="#0f141b"/><path d="M173.33 320.52c-2.9-.73-4-1.75-4.51-3.66a5.64 5.64 0 0 1-.18-1.42c0-3.23 2.48-8.95 12.23-18.84l4.11 2.3-.09 1.4c-.29 4.57-.57 8.89-2.65 12.93-2.92 5.68-6.36 7.93-8.91 7.29z" fill="#308097"/><path d="M168.7 314.6a5.93 5.93 0 0 0-.06.84 5.64 5.64 0 0 0 .18 1.42c.53 1.91 1.61 2.93 4.51 3.66 2.36.59 5.5-1.3 8.27-6.12-5.45 3.47-10.45 2.21-12.9.2z" fill="#1f6579"/><path d="M138.16 261.54c0 15.71 7.82 25.37 19.45 27.55 1.94.36 5.73-1.09 8.73-3.58a30.21 30.21 0 0 0 10.4-22.51c0-22.68-15.32-28.68-23.43-28.68-11.17-.03-15.15 14.05-15.15 27.22z" fill="#0f141b"/><path d="M157.37 287.62c-10.32-1.93-17.84-12.6-17.84-25.43 0-12.36 4.05-25.59 14-25.59 7.53 0 21.76 5.65 21.76 27 0 8.68-5.41 17-10.76 21.5-2.53 2.1-5.76 2.79-7.16 2.52z" fill="#fff"/><path d="M157.37 287.62c-10.32-1.93-17.84-12.6-17.84-25.43 0-12.36 4.05-25.59 14-25.59-17.76 40.33 1.33 50.4 3.84 51.02z" fill="#dbdcdc"/><path d="M180 279.49l-.52.11-.12.52c-3.64 15.14-1.3 23.95 10.45 25 14.38 1.24 33.44-21 36.68-34.11l-1-1z" fill="#0f141b"/><path d="M224.2 272.51c-4.3 13.35-24.89 32.28-34.25 31-4.29-.57-7.2-2.06-8.91-4.55a12.74 12.74 0 0 1-1.86-7.3 46.17 46.17 0 0 1 1.45-10.05z" fill="#fff"/><path d="M200.29 277.53c-9.06 3.1-18.15 13.12-19.25 21.47a12.74 12.74 0 0 1-1.86-7.3 46.17 46.17 0 0 1 1.45-10.05z" fill="#dbdcdc"/><path d="M150 258.81c-1.69-3.9-1.79-.63-1.27 1.27 3.75 13.49 20.18 26.51 39.68 26.51 22.16 0 46.15-19.12 46.15-36.51 0-8.07-6-15.58-16.95-21.14a76.08 76.08 0 0 0-32.89-7.7c-21.72 0-34.26 20.23-34.72 37.57z" fill="#0f141b"/><path d="M148.32 251.67c0-16.66 15.3-28.75 36.38-28.75 20.12 0 48.17 10.33 48.17 27.16 0 16.26-23.88 34.8-44.82 34.8-20.43 0-39.73-16.14-39.73-33.21z" fill="#fff"/><path d="M150.36 261.36c5.47 13 21.21 23.52 37.69 23.52 7.89 0 16.2-2.64 23.49-6.79-19.11 6.28-39.25 6.08-61.18-16.73z" fill="#dbdcdc"/><path d="M19.15 4a7.73 7.73 0 0 0-2.25 5.16c0 1.08.88 2.47 1.42 3.53 7.9 15.31 21.53 37.7 34.54 56.74-10-7.91-15.31-12.12-24.18-22.21C23.9 41.78 12.48 31.37 8.66 33c-3.25 1.43-6.84 5.11-6.84 8.66a12.91 12.91 0 0 0 2.54 7.07l5.93 9.06c9.35 14.55 23.83 37.08 36.76 48.55-12.79-6.8-31.88-20.45-35.32-23.2-2.15-1.72-3.82-1.51-5.59 1.25S0 95.34 0 98.54v.14c.13 3.95 32.4 32.82 56.79 47.65-3.92-1-25.78-5.75-35.15-9.13 0 0-5.09-1.86-5.72 4.91-.6 6.37 2.51 10 6.16 12 8.31 4.56 17.93 7.83 27.24 11a224.9 224.9 0 0 1 21.17 8c-11.16-.69-25.21-2.7-27.91-3-2.95-.37-5.22 1.17-3.34 7.25 1.61 5.2 3.18 10.6 6.19 13.29 2.4 2.13 20 5.79 42.82 8.58-7.93.85-26.58 1.3-29 1.64s2.41 11.23 5.82 12.94c4.93 2.48 13.86 2.59 22 2.16-3.47.65-8.26 1.57-11.28 2.31a1.76 1.76 0 0 0-1 2.27c1.85 3.47 6.71 11.4 12.66 11.78 3.9.25 20.86-5.09 27.16-5.25-7.54 3.41-13.84 4.36-13.45 6.73 1.65 9.8 17.28 9.36 28.67 7.09-2.88 1-8.07 2.45-9.07 3.34s1.4 6.39 11.67 6.08c0 0 30-.3 33.59-2.38l.63-.37-70.2-179v-.06C87.57 54 77.51 42.73 65.22 30.81c0 0-28.06-29-37.37-30.75-2.29-.42-6.47 1.46-8.7 3.94z" fill="#0f141b"/><path d="M57.66 73c-3.09-3.7-29-44.35-37.55-61a5.67 5.67 0 0 1 1.18-6.64c1.9-2.07 4.75-3.23 6.12-3C36 4 61.12 30.87 61.12 30.87c12.19 11.83 24.8 24.06 33.53 38.48l71.52 181.84c-1.74.67-12 .06-17.85.48-.41 0 4.89-3 .34-3-4.69.31-7.6.36-14.66.52h-1.26c-7.2.17-9.47-2.85-10.59-4.46 8.59-3.38 15.78-4.8 23.82-6.57a54.65 54.65 0 0 0-10.38.73c-11.87 2.44-25.39 3.19-31.85-5.74 5.66-2.19 9.64-4.32 14.51-6.07 2-.7 2.2-1.48-1-1.31a72 72 0 0 0-12.92 1.63c-6.16 1.63-12.53 3.31-16.08 3.1-3-.17-8.16-5-10.59-11 8.09-1.7 18.61-4.86 28.09-5.59 3.14-.76 1.17-1.2-.28-1.12-2.46.13-5.21.36-8.06.6-10.58.89-23.76 2-30.27-1.27-2.14-1.07-4.93-6.1-6-9.86 13.3-.4 25.73-.68 30.79-1.89 0 0 3.51-1-1.71-2.19-2.57-.58-9.3-2.11-16.26-3.22-11.33-1.82-24.18-3.87-26.32-5.77-2.65-2.36 3-11.71 1.58-16.48 9.09 1.63 13.28 1.63 25.65 2.32 0 0 3.65-.26.56-1.6s-16.76-7.09-25.41-10c-9.22-3.13-18.75-6.37-26.9-10.84-3-1.65-4.39-4.82-4.39-10.51 0-1.22 3.94-1.32 4.06-2.79 9 3.17 13.71 3.92 22 5.85 5.6 1.31 14.42 3.54 17.35 4.38s7.41 1 .84-1.54c-15.35-5.79-59.72-46.3-60.43-49.65v-.07c0-2.75 6.1-13 7.57-12.94s25.48 19.12 40.39 24.81c1.81.69 2.6.08.66-1.46C37.9 98.15 22 72.47 12 57l-5.59-8.6c-2.09-3.09-2.74-5.87-1.94-8.26a8.56 8.56 0 0 1 4.64-4.7c2.62-1.15 12.1 6.09 18 12.83 9.67 11 26.45 24 28.66 25.95s4.98 2.44 1.89-1.22z" fill="#fff"/><path d="M61.14 202.31c-1 .35 3.64 9 5.77 10.1 4.82 2.42 13.53 2.2 21.89 1.69-3.8-4.06-7.5-8.21-11.34-12.33-4.92.23-15.29.23-16.32.54zM41.43 173.13c-.89 2.52 3.56 13.75 6.21 16.11 1.92 1.7 12.48 3.53 22.82 5.21A83.44 83.44 0 0 1 57.91 174c-5.99-.66-15.76-2.92-16.48-.87zM23 139.12c-3.61-1.41-4.26 1.76-4.26 3 0 5.69 1.38 8.86 4.39 10.51 8.15 4.47 17.68 7.71 26.9 10.84l4.27 1.46a142 142 0 0 1-4.71-18.61C48 145.91 32 142.28 23 139.12zM102.78 234.42c1.74 4.7 9.07 7.23 18.7 6.15-4.51-3.1-8.89-5.87-13.7-9.08-1.72.89-5.45 1.72-5 2.93zM122.15 244.75c-.69.74 3.63 5 10.59 4.46h.48a504.72 504.72 0 0 0-8-5.61c-.98.4-2.52.57-3.07 1.15zM91 216.44c-4.76 1.08-12.88 2.39-13.34 3.11s5.15 11.11 10.59 11.21c3.28.06 9-1.46 14.65-3A161.07 161.07 0 0 1 91 216.44zM9.84 84.81c-.95.12-7.68 10.83-7.3 13.45v.07c.54 2.56 26.72 27 45.82 40.83-1.6-10.44-2.55-21.28-3.75-31.8C33.7 101.87 10.8 84.7 9.84 84.81zM40.44 80.67a108.79 108.79 0 0 1 .36-19.1 137.35 137.35 0 0 1-13.67-13.3c-5.92-6.74-15.4-14-18-12.83a8.56 8.56 0 0 0-4.64 4.7c-.8 2.39-.15 5.17 1.94 8.26L12 57c8.19 12.75 20.45 32.41 31.92 44.83l-.12-1c-.8-6.75-3.36-13.45-3.36-20.16zM27.41 2.37c-1.37-.26-4.22.9-6.12 3A5.68 5.68 0 0 0 20.11 12C25.48 22.42 34 36.34 42.83 50.36a136 136 0 0 1 9.51-28.46C44.25 13.91 32.71 3.35 27.41 2.37z" fill="#8cc457"/><path d="M396.47 39c-7.13 4.26-28.59 31.08-36.47 40l-3.46 3.89c-8.09 8.9-12.41 23.36-17.42 40.11-5.58 18.67-11.91 39.83-25 56.24-21.7 27.1-53 22.94-53.34 22.89h-.35l-.26.24c-9.73 9.3-14 19-12.68 29 1.59 12 11.1 20.91 16.72 23.69 3.19 1.57 33.64 11.54 35.49 5.85.68-2.1-7.34-8.33-11.08-14 10.14 6.28 30.92 14 33.67 13.75s6.94-4.05 6.9-4.48a23 23 0 0 0 3.81.82c5.06.77 9.94-5.93 9.7-7.85-.47-3.78-13.17-4.47-31.08-19.53 13 6.18 31.71 11.58 43.07 13.62 5.32 1 9.08-1.24 11.88-5.4 1.57-2.34 2-4.32-.62-6.16-6.15-4.27-25.3-9.78-33.13-15.35 3.85.09 36.29 2.42 47.87-2 8.37-3.17 12.11-12.89 11.48-16.4-.49-2.75-2.55-1.19-18.64-2.48-9.69-.78-15.29-.94-24.51-2.76 12.66-1 36.17-7.1 50.83-15.78 8.23-4.87 9-8.86 10.36-17.71s-1.09-8.94-4.26-7.85c-11.58 4-30 10.38-43 11.25 18-8.38 54.47-33.68 55.73-42 .69-4.58-2.47-11.51-3.85-12.53-1.88-1.39-21 9.75-40.78 19.28 13.74-11.82 42.25-44 43.74-45.65s2.87-3 1.38-6-2.36-5.15-4.35-7.19-3.34-.43-4.76.65c-5.72 4.31-32.1 26.63-36.85 29.73 1.82-3.39 31-47.5 32.47-49.78s2.77-4.43 1.09-6.45c-3.45-4.08-7.77-5.17-10.3-3.66z" fill="#0f141b"/><path d="M315.18 180.34c13.34-16.67 19.72-38 25.34-56.82 5-16.55 9.22-30.84 17.06-39.46l3.47-3.9c7.81-8.85 29.35-33.9 35.21-39.2 1.12-1 7.59-.73 9.5 4.61-9.2 13.87-23.7 35.72-28.38 42.14-5.22 7.15-8.1 11.09-10 15.45l1 1c5.14-3 12.1-8.57 18.84-14 6.35-5.11 20.64-17.76 25.48-20.67 1.39 1.07 5.65 7.36 5.57 8.69-10.61 12.7-40 44.25-54.17 54.44l.75 1.39c9.68-5.32 27.2-13.87 38.79-19.53 4.8-2.34 8.42-4.11 10.19-5 1.26 2.25 3.05 8.17 2.88 11v.1c-.18 1.68-9.91 10.34-24.56 21.68A162 162 0 0 1 357.08 163c-2.18.89-.6 1.42.3 1.47 10.68.6 42.63-8.49 49.22-10.6-.59 2.77 1.8 3.94 1.53 6.06-.83 6.56-1.29 10.16-8.67 15-16 10.48-45.65 15.86-54.88 16.36-5.85-.7-2 .88-2 .88 8.55 3.16 20.32 4 32 4.79 5.78.38 9.24 1.32 13.9 2-2.64 10.11-5.2 12.24-9.63 13.59-11.85 3.63-23.36 3.1-35.85 2.45-4.89-.27-9.94-.55-14.83-.56l-.39 1.51c6.44 4.06 12.84 6.4 19 8.67 6.67 2.44 5.76 2.35 11.91 6.62.11.2 5.28 2.38 5.26 2.78 0 .64-3.55 8.56-8.12 7.74-13.29-2.39-38-9.62-49.81-17 0 0-2.91-2.17-.89 1.31s24.18 17.71 35.81 23.51c-2.35 3.36-5 6.36-9 5.77-2.89-.44-11.64-5-19.37-8.93-4.57-2.42-10.7-5.42-13.08-7.09s-3.49-1.57-1.94-.09S308 246.19 328 255.73c-1.42 1-5.42 3.52-6.06 3.4-7.08-1.72-25.2-7.88-34.22-14.17-1.35-.94-2.3 0-1.15 1.4s11.15 12.92 10.91 13.71c-.88 2.9-25.3-2.46-32.66-6.52-4.4-2.43-14.31-10.64-15.87-22.45a24.93 24.93 0 0 1-.17-4.73c.47-7.66 4.53-15.22 12.12-22.54 3.46.38 33.26 2.75 54.28-23.49z" fill="#fff"/><path d="M321.89 259.13c.64.12 4.64-2.44 6.06-3.4-5.62-2.68-10.36-5-14.31-7.08a35.31 35.31 0 0 1-8.48 5 146.63 146.63 0 0 0 16.73 5.48zM297.43 260.07c.09-.3-1.26-2.12-3.05-4.34a60.36 60.36 0 0 1-7.93 4.25c5.86 1.02 10.6 1.33 10.98.09zM405.76 45.57c-.35-3.51-7-6.79-9.5-4.61-2.68 2.33-8.43 8.75-14.72 15.84a126.06 126.06 0 0 1 5.84 16.34c5.95-8.83 18.62-25.42 18.38-27.57zM384.37 197.67c-2.57-.18-15-1-17.57-1.23a81.21 81.21 0 0 1-10.47 19.07c8.15.1 16.25-.43 23.92-2.78 4.43-1.35 10.08-9.41 9.68-13.28-.12-1.16.22-1.4-5.56-1.78zM331.48 255.32c5 1.08 9.36-4 9.44-5.75s-8.91-4.89-13.81-7.84q-5.72 3.35-11.74 6.1c6.94 3.57 13.63 6.95 16.11 7.49zM395.29 140.41c14.64-11.35 20.94-16.07 21.48-19.85s-2-11-2.88-11-5.76 2.48-10.56 4.83c-3.51 1.71-7.19 3.87-11.41 6a152.92 152.92 0 0 1-4 25.16c1.45-1.06 5.96-4.05 7.37-5.14zM399.46 175c7.38-4.84 7.84-8.44 8.67-15 .27-2.12 1.15-7.45-1.63-6.75-2.08.52-12.1 4.35-22.91 7a167.88 167.88 0 0 1-11.58 26c9.75-2.7 19.99-6.39 27.45-11.25zM412.76 69.56c-1.4 0-15.11 12-22.2 18a137.29 137.29 0 0 1 1.74 19.21c10.54-10.83 25.84-26.95 26-28.44s-4.14-8.75-5.54-8.77zM348.15 225.1a102.22 102.22 0 0 1-13.36 11.4 199.43 199.43 0 0 0 21 5.23c4.57.82 8.51-3.18 9.8-5.66s.1-3-2-4.27a129 129 0 0 0-15.44-6.7z" fill="#8cc457"/><path d="M74.31 45a7 7 0 0 0-1.13 4.48c.17 6.09 5 32.55 15.71 50-7.49-4-14.67-11.17-19.77-21.42-.9-1.81-2.38-2.45-3.52-1.8s-7.13 5.65-6.67 11.53c.81 10.28 22.31 38 33.1 45 2.06 1.34 2.92 1.6 3.77 2.94-3.29-.6-11-4.39-16.67-7.41s-13-7.72-16-7.19-3.4 15.59-2.19 17.28c2.93 4.09 26.48 19.19 36.06 23.72-4.24.67-8.75-.81-13.55-2.23-11-3.24-14-2.62-13.74.08 1.3 11.36 3 17.24 8.68 19.39 7.21 2.69 20 5.08 29.19 6-3.17.73-12.2-.17-15.13.08s-4 1.74-3 4 5.55 12.16 8.49 13.35c3.85 1.52 15.28 1.12 21.5.48a66.45 66.45 0 0 1-10.82 2.9c-3.25.49-4.28 1.43-3 3.38s6.83 8 9.68 8.95 11.25-.75 16.06-2c-1.62 1.34-10.76 5.06-11.09 6.6s8.18 10.29 10.73 10.49 12.16-2.61 13.46-2.89c-2.29 2.36-5.24 4.52-5.08 6.31s4.24 5 7.33 3.91 7.28-1.6 9.05-.06c1.23 1.08 2.29 1.64 2.51 1.46s.17-1.24-1.41-2.72c-2.06-1.92 1.21-6.71 2.21-5.28 5.37 7.71 15.14 23.95 31.33 26.5 11.08 1.74 38.2-5.68 57.63-17 1.87-1.09 3.49-2 3.76-2.14 1.06-.4 2.91.43 4.4 1.09a11.47 11.47 0 0 0 2.65 1 16.73 16.73 0 0 0 10.07-1.42c1.93-.89 3.8-1.82 3.89-2.59s-1.27-1.83-2.22-2.73c3.66 2.16 7.74 4 10.72 4.44 4 .53 13.92-5.81 13.85-6.93s-6.8-2.76-12.09-9.49c.88.37 3.35 1.8 4.2 2.21 21.34 10.21 34.59-3.38 34.46-6.79 0-1.2-12.74-5.53-13.53-5.79 8.34 1.64 19.61 4.53 24.61 1.33 9-5.75 13.56-16.37 12.33-17.33-1.87-1.45-19.59-3.22-22.95-4.16 1.63-.18 29.35-2.87 35.33-7 5.31-3.69 8.42-13.8 8.51-19.14a2.81 2.81 0 0 0-3.52-2.69c-6.59 2.19-19.09 4.18-20.39 3.57 11.43-6.69 31.7-19.84 35.22-24.88 1.16-1.67 2.2-5 .4-12.57-1.05-4.41-3.49-6.5-4.93-6.5s-17.4 11.12-18.3 11.75a257.49 257.49 0 0 0 26.33-36.83 10.45 10.45 0 0 0 1.55-5.24c0-5.28-7-9.94-8.22-10.56A2.28 2.28 0 0 0 371 85c-.73 1.1-10.43 17.45-18.08 22.75 3.61-7.17 15.36-45.86 15.49-47.47.21-2.4-1.07-3.18-1.07-3.18-2.42-2-5.72-4.83-8.74-4.41a4.68 4.68 0 0 0-3.28 2.22c-2.9 4.29-6.23 8.38-9.46 12.32-7.6 9.3-15.2 18.08-17.49 29.77-.73 3.71-.86 7.39-1.44 11.28-2.75 18.44-5.86 39.33-30.28 70.47-9.84 12.56-27.4 23.36-47 31.72l-.79.34c-6.37 2.72-9.57 5.77-15.64 3.49-4.15-1.56-7.82-4.31-11.38-7-3.34-2.5-6.56-4.7-9.59-5.78-14.19-5-26.61-5.09-35.61 4.61-1.83-1.89-3.37-4-6.15-6.54-5.88-5.24-14.07-11.78-19.83-19.27-11.19-14.58-25.13-32.71-29.22-53.08-1-4.75-1-10.47-1.22-15.34-.4-7.82.7-17.41-3.36-24.3-1-1.62-5.51-5.92-7.91-8.31s-6.77-9.1-9-14.89l1.4 3.6C88.92 36.34 86 33.61 84.07 33.74c-1.53.11-8.8 9.91-9.76 11.26z" fill="#0f141b"/><path d="M85 37.35C88.13 38 99.89 68.9 99.89 68.9c3.45 8 12.7 16.45 14.86 20.17 3.85 6.66 3.17 16 3.57 23.63a102.33 102.33 0 0 0 1.49 14.92c4.18 20.75 18.24 39.06 29.54 53.77 5.86 7.62 13.23 14.2 19.16 19.49 3.21 2.87 5.37 4 6.38 6 1.49 2.81 2.26 2 2.82 1.17 5.06-7.51 18-9.6 34.08-4.82 2.8.83 5.85 3.1 9.07 5.51 3.48 2.6 7.42 5.55 11.79 7.2 6.7 2.52 10.32 1 16.89-1.85l.78-.33c19.82-8.46 37.62-21.14 47.63-33.91 24.69-31.48 27.84-52.61 30.62-71.25.58-3.88 1.12-7.53 1.84-11.21 2.22-11.27 9.26-19.9 16.73-29 3.25-4 7-9 10.15-13.34a3.16 3.16 0 0 1 3.28-.64 34.84 34.84 0 0 1 5.66 4.07c.72.73.65 2 .1 4.37-.7 3.08-14.4 44.76-14.9 45.52-1.64 2.54-1.06 2.95 1.45 1 4.73-3.61 13.53-12.58 17.57-20.94 1.09-2.25 2.54-3 3.85-2.13s6.42 5.36 6.42 8.68a8.77 8.77 0 0 1-1.35 4.39c-9.09 15.62-24.78 35.89-26.56 37.74s-4.05 4.67 1.71 1.44 15-9.81 17.65-11.26c1.62-.89 3.25 3 3.92 4.91 1.57 4.57.79 9.87-.14 11.21-3.28 4.69-26 19.86-37.36 26.35-1.52.86-2.4 1.82.35 1.55a147.66 147.66 0 0 0 23.62-4.06c1.36-.37 1.77 1.29 1.77 1.34-.06 4.93-3.36 14.47-7.79 17.55-5.61 3.9-25.47 6-35.38 6.93-3.56.35-6.26.7-3.64 1.51 10.43 3.23 24.44 4.19 25.4 5.15s-7.19 13.27-11.12 15.19c-5.27 2.63-20.46-1.2-28.84-2.88-2.85-.57-3.85-.13-1.92.89 7.28 3.85 18.11 6.69 18.71 7.84 1.61 3-14.66 14.48-33.47 4.38-2.5-1.33-5.65-3.24-6.43-2.65s3.37 5 5.81 7.05 6.38 4.19 6.93 5.08-8.22 5.91-11.33 5.49c-4.85-.65-15.71-7.6-16.61-8.79s-3-1.7-1.41.32a76.85 76.85 0 0 0 7.11 7.1c1 .75-.14 1.17-1.58 2s-7.06 2.79-10.23 1.58-5.64-2.85-7.34-2.21c-.35.13-1.31.68-4 2.26-11.06 6.45-44.74 26.05-56.52 24.2-15.49-2.44-20.83-10.11-26-17.54-2.28-3.27-4.57-6.74-7.8-9.44-4.37-3.64-9.7.51-12.33-.23a10.42 10.42 0 0 1-3-2.45c-.43-1.4 4.6-6.36 5.26-6.93s0-.89-1.8-.47-11.93 2.19-12.58 2.43l.1-.11c-3 .47-9.76-7.85-9.63-8.57s7.1-4 10.66-6.7c1.16-.89 2.27-2.14-.56-1.52s-13.19 3.17-16.62 1.88c-2.26-.86-9.41-8.42-8.61-9s10.14-2.12 15.62-4.5c1.77-.78 1.94-1.68-.62-1.33s-18.86 1.13-23-.52c-2.36-.94-9-13.35-8.36-14.53.57-1 11.37.14 18.46-1 2.53-.41 2.7-1.15.14-1.5S87.5 181 79.4 178c-6.15-2.3-7.77-17.61-7.13-18.54s6.38.84 10.76 2.07c3.87 1.08 10.55 2.55 15.34 1.91 1.86-.25 2.44-.69.32-1.75s-34.2-20.4-35.44-23.5-.46-14.06 1-15 9.07 3.64 14.06 6.63 17.18 7.88 19 8.14 1.68-1.05.62-2.73-2.06-2.21-4.07-3.52C77.26 120.93 61.16 91.22 61 88.66s5-11.18 6-10.73 6.42 17 25.1 25.56c1.67.76 2.9 1.2 1-1.26C82.53 89 74.83 51.34 75.42 48.91S83.31 37 85 37.35z" fill="#e95532"/><path d="M179.91 231.77c-7 4.14-12.44 16.51-5.11 28.86 6 10.19 16.11 11.69 34.67 9.46 2-.25 3-.43 3.78-1.58 1.49-2.21.9-5.24-.5-10-.6-2.05-1.28-4.38-1.83-6.88-.64-2.89 0-5.1.76-7.46 1.33-4.34 2.29-5.16-4.84-13.43-3.24-3.74-17.58-4.52-26.93 1.03z" fill="#0f141b"/><path d="M176.37 260.05c-6.66-13.81-2.08-27.52 4.35-31.34 8.79-5.21 25-2.73 27.52.21 6.53 7.56 3.09 10.65 1.84 14.74-.75 2.46-1.53 5-.79 8.31.56 2.56 1.25 4.92 1.86 7 1.22 4.17 2.18 7.47 1.13 9-.48.71-1.45 1.12-3 1.27-12.2 1.18-27.96 1.09-32.91-9.19z" fill="#e95532"/><path d="M183.08 261.37c-1.47-.84-5.92-3.25-8.64-6.28a32.9 32.9 0 0 0 1.93 5c2.28 4.74 6.87 7.31 12.35 8.6l-.61-3.09z" fill="#ca492a"/><path d="M194.62 230.74a45 45 0 0 1-7.81 9.54c-5.19 5.1-10.55 10.25-7.43 19.17 4.42 12.67 15.73 11.72 19.5 11.5 16.13-.93 14.1-11.9 12.76-18s-1.58-7.21-7.65-12.68c-2.13-1.92-7.78-8.85-8.48-9.63s-.89.1-.89.1z" fill="#0f141b"/><path d="M181.24 258.73a14.66 14.66 0 0 1-.91-4.9c0-5.31 3.6-8.84 7.63-12.79a43.26 43.26 0 0 0 7.19-8.49c2.95 3.39 5.19 6 7.18 7.83 5.53 5.2 6.35 6.64 7.65 12.55a6.8 6.8 0 0 1 .14 1.35c0 5.39-1.36 13.08-8.33 15.06-4.14 1.17-16.58.77-20.55-10.61z" fill="#8cc457"/><path d="M192.78 262.48c-2-.54-8.3-1.54-11.09-2.62 4.37 10.27 16.1 10.61 20.1 9.48a10.55 10.55 0 0 0 1.33-.48l.14-.93s-8.17-4.82-10.48-5.45z" fill="#79aa4b"/><path d="M230.62 234.1c-14.19 1.59-17.37 6.37-19.69 9.86-1.33 2-2.29 3.44-4.88 3.94a4.9 4.9 0 0 1-3-.81c-1.22-.62-2.57-3.38-4.11-2.83-1.75.64-6.81 6.63-7.64 11.52-.63 3.68 1.18 10.9 5.94 13a35.8 35.8 0 0 0 11 3.12c3.31.49 5.47 3.71 8.31 6.52a30.47 30.47 0 0 0 6.46 5.35 13.58 13.58 0 0 0 11.92.71c14.58-5.89 24.07-34.5 24.47-35.71l.13-.4-.24-.34c-7.04-10.1-17.48-15.18-28.67-13.93z" fill="#0f141b"/><path d="M206.36 249.54c3.29-.63 4.59-2.58 6-4.65 2.26-3.4 5.07-7.62 18.49-9.12 10.43-1.17 20.18 3.54 26.84 12.89-1.22 3.54-10.67 29.87-23.62 35.1-3.51 1.42-6.78.36-10.25-1.48a28.53 28.53 0 0 1-6.06-5c-3-3-6.16-6.1-10-6.66-5.87-.86-10.31-2.46-11.51-3.79-2.41-2.67-3.35-7.35-3.38-10.16 0-3.27 5-10.64 6.51-11.18.86-.31 1.87 1.63 2.8 2.6a5.11 5.11 0 0 0 4.18 1.45z" fill="#e95532"/><path d="M204.86 267a57.55 57.55 0 0 1-11.06-4.61 12.35 12.35 0 0 0 2.39 4.44c1.2 1.33 5.64 2.93 11.51 3.79 2.78.4 5.18 2.13 7.44 4.18a18.7 18.7 0 0 0-10.28-7.8z" fill="#ca492a"/><path d="M221.05 241.45c-5.11 2.13-6.14 13.68-1.59 20.56 3.21 4.87 8.84 8.2 14 8.51 6.47.38 10.06-7.42 11.24-10l.07-.15-.35-.6c-.08 0-7.94-2.3-15.25-13.64-3.1-4.73-5.82-5.64-8.12-4.68z" fill="#0f141b"/><path d="M233.47 269.68c-4.87-.29-10-3.48-13.08-8.13-1.68-2.54-3.21-10.48-1.56-15.34 1.07-3.13 5.26-6 9.29.87 5.69 9.78 12.27 12 15.61 13.47-1.25 2.7-4.6 9.45-10.26 9.13z" fill="#092a4d"/><path d="M228.24 265.1c-4.39-2.66-5.51-9.51-3.2-14.24.28-.57 2.42-.47 2.83 0 2.69 3.47 9.4 10.1 13.83 10.69-1.38 2.77-2.68 4.5-6.08 5.08a11.18 11.18 0 0 1-7.38-1.53z" fill="#fff"/><path d="M225.58 267.16c-5.84-.39-1 9 2.77 13.49a15.85 15.85 0 0 1 2.35 3.8c2.82 6.51 5.75 15 6.36 22 .59 6.74 1.6 9.32 5.51 11.31 10.09 5.14 14.72 9.68 17.81 13.11 1.92 2.13 4 4.9 5.95 3.88 1.74-.89.38-8.78-1.49-12.79-2.63-5.63-4.55-10.08-5.25-16.18-.61-5.23.38-12.3 1.25-18.54l.83-6.46c.58-5.52-15-9.29-20.76-10a17.58 17.58 0 0 1-2.21-.78 56.71 56.71 0 0 0-13.12-2.84z" fill="#0f141b"/><path d="M261.31 330.06a56.88 56.88 0 0 0-18.21-14c-2.47-1.26-3.83-3.11-4.4-9.76-.63-7.22-4-15.72-6.84-22.32a31.63 31.63 0 0 0-2.47-4c-1.78-2.61-7.22-10.71-3.3-10.8a40.86 40.86 0 0 1 12.16 2 14.47 14.47 0 0 0 2.5.86c7.95 1 19.68 4.92 19.68 8.49v.17l-.82 6.42a116 116 0 0 0-1.45 15.11 31.4 31.4 0 0 0 .19 3.75c.73 6.28 2.68 10.83 5.36 16.56a23.3 23.3 0 0 1 1.85 8.94 4.81 4.81 0 0 1-.29 2.09c-1.19-.46-2.36-1.74-3.96-3.51z" fill="#f9be00"/><path d="M239.22 300.47c-.42-3.93-4.19-14-5.87-17.6-1.5-3.25-6.36-9.63-8.56-12.93-.73 2.11 3.15 7.88 4.6 10a31.63 31.63 0 0 1 2.47 4c2.85 6.6 6.21 15.1 6.84 22.32.57 6.65 1.93 8.5 4.4 9.76.92.47 1.77.93 2.6 1.39-3.1-2.33-5.42-6.86-6.48-16.94z" fill="#d7a400"/><path d="M236.75 275.5a32.65 32.65 0 0 0 2.06 4.74 36.23 36.23 0 0 1 1.84 4.07c.67 1.92 3.19 21.55 3.79 24 .84 3.33 2.32 4.19 3.93 5.5.69.57 13.94 13.24 14.78 14.39s1.21 1.4 1-1-1.08-3.45-2.56-7.08c-1.68-4.09-3.57-8.74-3.86-12.48a79.77 79.77 0 0 1 0-16.35l.12-1c.46-3.6 1-7.68-.22-11.24l-.08-.25h-.26c-4.09-.58-19.86-3.82-20-3.85z" fill="#0f141b"/><path d="M257.72 321.5c-2.05-1.92-4.38-4.1-6.33-6.12a25.38 25.38 0 0 0-2.49-2.26 7.54 7.54 0 0 1-3.22-5.06c-.6-2.36-3-17.21-3.14-18.39a23.09 23.09 0 0 0-1.1-5.64 37.16 37.16 0 0 0-1.88-4.17 35.14 35.14 0 0 1-1.74-3.92c3.13.64 15.13 3.08 19 3.66a15.71 15.71 0 0 1 .63 4.62 48.23 48.23 0 0 1-.5 6l-.12 1a58.64 58.64 0 0 0-.42 7.25c0 3.07.2 6.09.44 9.27.29 3.87 2.21 8.57 3.91 12.73a40.19 40.19 0 0 1 2.2 6.21 70 70 0 0 0-5.24-5.18z" fill="#923000"/><path d="M238 277.41c5.32 10.63 7.87 10.28 15 14.08a24.47 24.47 0 0 1 7 5.51c.64.75 1.72 2.3 3.08 4.22 6.23 8.78 8.35 12.3 10.92 12.78.66.12 1.5 0 1.65-.53.84-2.78-4.15-19.76-5.52-22.81-2.58-5.75-4.36-5.93-7.35-7.89a41.36 41.36 0 0 1-5.17-3.86l-.1-.09-19.13-2z" fill="#0f141b"/><path d="M263.79 300.18c-1.43-2-2.56-3.6-3.21-4.38-1.79-2.14-4.31-3.48-7.23-5-4.81-2.58-10.24-5.53-14.24-13l18.07 1.89a41 41 0 0 0 5.15 3.84c3 1.94 4.92 3.22 6.72 8.3 2.35 6.6 5.44 16.53 5.44 19.89a2 2 0 0 1-.16 1 .06.06 0 0 1-.06.06c-1.44.15-7.54-8.46-10.48-12.6z" fill="#ed8599"/><path d="M256.85 244.91c-5.62 0-10.65 5.71-14.39 14.52-2 3.57-3.84 6.95-7.22 9.16a4.92 4.92 0 0 1-2.16-.08c-2.23-.33-7.1-2-8.24.72-.14.33 1.45 1.37 1.62 1.74 1 2.19 8 5.34 13.06 7.1l.73.26h.09c3.9 1.46 7.58 3.26 11.76 3.56a64.33 64.33 0 0 0 12.64-.19s4.46-.72 5.75-.7c6.57.12 14 3.46 19.28 7.48 6.39 4.84 8.47 8.77 10.75 12.11 3.37 4.94 5.05 7.29 5.63 6 3.64-8.36 2.22-26.76.82-30.55-2.56-7-10.85-10.74-17.34-12.9l-3.27-.89c-7.48-2.48-12.25-3.63-18.59-8.48-2.52-1.92-6.69-8.86-10.92-8.86z" fill="#0f141b"/><path d="M236 269.3c3.56-2.33 5.57-6 7.51-9.47 4-7.88 8.58-13.54 12.43-13.48 3.65.06 8.52 6.7 11.26 8.8 6.45 4.94 13 6.4 20.56 8.9l.62.21c6.32 2.1 14.37 6 16.82 12.64.73 2 1.26 7.83 1.26 13.68 0 5.33-.45 10.65-1.58 13.13a30.69 30.69 0 0 1-2.76-3.85 42.91 42.91 0 0 0-11.44-12.71c-4.69-3.55-14.72-8.21-22.36-7.44l-3.42.37a65 65 0 0 1-12.78.59c-4.06-.3-7.68-1.66-11.52-3.09h-.09l-.76-.26c-16-7-.07 2.5-5.47.7-9.78-3.26-9.66-8.23-9.63-8.3.89-2.14 6.2-.64 8.27-.34 1.25.14 2.56.28 3.08-.08z" fill="#f9be00"/><path d="M253.15 264.49s-2.38 1.12-.52 1.08 4.12-1.21 6.32 0c.69.36.95.4 1 .27.07-.31-.35-.94-1-1.32-2.25-1.03-3.76-.52-5.8-.03zM226.38 175.79a11.66 11.66 0 0 0-9.22 3.33 19 19 0 0 0-4.73 13.7c.82 7.61 5.81 14 9.9 19.83 5.33 7.55 9.69 13.95 7.87 24.18v.17a2.49 2.49 0 0 0 .89 1.84c1.07.94 2.91 1.21 5.48.81 1.81-.29 2.94-3.56 3.57-6.26a39.58 39.58 0 0 0 .75-4.33c1.32-10.87-.76-25.86-9.81-33 3-1.38 6-3.54 6.39-6.5a17.06 17.06 0 0 0 .09-3.5c-.76-5.45-6.56-9.96-11.18-10.27z" fill="#0f141b"/><path d="M232 234c1.09-9-3.77-15.92-8.49-22.62-4-5.67-8.14-11.55-8.93-18.83a15.93 15.93 0 0 1 0-3.52 15 15 0 0 1 3.78-8.55 9.51 9.51 0 0 1 7.82-3c4 .28 8.12 4.7 8.78 9.46.31 2.29 0 6.4-5.33 8.32l-.15 1.11c11.62 8.22 11.32 28.27 9.36 36.69-.82 3.49-1.89 5.19-2.55 5.3-2.68.42-3.88 0-4.42-.49a1.23 1.23 0 0 1-.49-.88A23.33 23.33 0 0 0 232 234z" fill="#f9be00"/><path d="M224.58 193a10.1 10.1 0 0 0 7.17 5.79l.7.13a17.28 17.28 0 0 0-2.91-2.56l.1-.78c-2.31-.45-4.64-1.35-5.06-2.58z" fill="#d7a400"/><path d="M241.54 163a12.27 12.27 0 0 0-9 3.81c-4.45 5-5.57 14-5.08 18.47.64 6 2.86 11.19 4.91 16.83 3.67 10.15 7.94 20.7 3.67 36.75v.14a2.5 2.5 0 0 0 .9 1.85c1.07.94 2.91 1.21 5.47.8s6.63-10.72 8.8-20a94 94 0 0 0 1.79-9.85c1.13-9.33.89-20.94-5.72-26.51a10.48 10.48 0 0 0 6.17-8.48 14.91 14.91 0 0 0 .3-4 12 12 0 0 0-12.21-9.81z" fill="#0f141b"/><path d="M238.82 231.13c1.46-12.06-1.72-20.84-4.81-29.38-2-5.46-3.85-10.62-4.48-16.49a26 26 0 0 1 .1-5.78c.47-3.88 1.77-8.26 4.43-11.28a9.78 9.78 0 0 1 7.44-3.46 10.26 10.26 0 0 1 10.5 8.64c.75 4.17-.88 9.23-6.23 11.14l-.15 1.11c10 7.12 5.83 29.14 4.3 35.72-2.6 11.13-6.28 19-7.65 19.19-2.68.43-4-.15-4.55-.6a1.26 1.26 0 0 1-.48-.87 58.09 58.09 0 0 0 1.58-7.94z" fill="#f9be00"/><path d="M243.07 185.57c-.8-.38-4.51-4.62-4.51-4.62s-.57 4.71 5.26 7.67a3.45 3.45 0 0 0 4.38-.5 11.42 11.42 0 0 0-2.25-2.25 11.15 11.15 0 0 1-2.88-.3z" fill="#d7a400"/><path d="M258.65 162.81c-3.06 0-7.65 1.5-10 4.18-5.14 5.82-6.18 14.18-5.68 21.46.28 4.17 1.53 9.06 2.28 12.89 2.37 12.2 5.14 23.31-2.93 39.3l-.07.12v.14a2.49 2.49 0 0 0 .89 1.85c1.07.94 2.91 1.21 5.48.8 2.33-.37 6-7.94 7.48-11.18 3.27-7.19 7.67-19.43 9-30.21.76-6.28.45-12-1.73-16.06 5.16-1.93 7.7-5.15 8.13-8.71a20.72 20.72 0 0 0 .2-4.38 12.91 12.91 0 0 0-13.05-10.2z" fill="#0f141b"/><path d="M248.89 223.91c1-8.29-.43-15.63-1.9-23.22-.74-3.81-1.43-7.76-2-11.85-.78-6.07-.08-14.45 4.93-20.3a12.85 12.85 0 0 1 8.64-4 11.1 11.1 0 0 1 11.21 9.3c.68 4.07-.95 9.19-7.57 11.34l-.34.93c5.88 9.38-1 32.49-7 45.74-3.39 7.45-5.77 10.34-6.54 10.46-2.68.43-3.88 0-4.42-.48a1.24 1.24 0 0 1-.48-.81 51.85 51.85 0 0 0 5.47-17.11z" fill="#f9be00"/><path d="M262 186a8.6 8.6 0 0 1-3.24-.66c-.77-.66-3.58-3-3.57-5.36a8.38 8.38 0 0 0 5.21 9.21 7.69 7.69 0 0 0 3 .49 13 13 0 0 0-1.49-3.59z" fill="#d7a400"/><path d="M279.1 171.82c-13.68-.16-19 13.69-20 20.25-.6 4.35-.52 9.91-.69 13.93-.49 11.81-1 23-12.48 36.27l-15.79-5.37c-.32.87-.32 1.66 1.25 2.63 6.11 3.82 16 6.87 21 6.59 4.66-.26 22.88-13.49 26-39.48a67.93 67.93 0 0 0 .17-9.78c6.78 3.21 11.21.65 13.07-1 3.5-3 4.55-9.25 2.73-14.41-2-5.73-7.47-9.54-15.26-9.63z" fill="#0f141b"/><path d="M259 216.44c.42-3.45.56-6.89.71-10.38s.3-7.28.76-11.09a9.93 9.93 0 0 1 .17-1.32c.84-6 6.34-20.28 19.22-20.24 6.16 0 10.75 3.36 12.61 8.62 1.65 4.69.63 9.85-2.49 12.54-2.93 2.53-7.27 2.49-12.22-.12l-.93.57c1.32 33.81-20.88 49.64-24.5 49.84-3.87.22-4.94-1.64-5.2-2.27 8.06-7.91 10.87-17.8 11.87-26.15z" fill="#f9be00"/><path d="M273.07 187.52s-2.07 7.19 3.81 11v-3l-.85-.75z" fill="#d7a400"/><path d="M230.29 253.76c-1.73 1.12-2.68 3.43-2.68 6 0 3.68 2.9 6.85 5.66 6.85 2.53 0 5-2.71 5.42-6 .02-.21-8.17-7.01-8.4-6.85z" fill="#0f141b"/><path d="M228.9 259.72a6.79 6.79 0 0 1 2.07-5.14c.3-.25 6.69 5.14 6.65 5.66-.19 3.09-2.07 5.52-4.35 5.52s-4.37-2.71-4.37-6.04z" fill="#e9545d"/><path d="M235.67 261.73a1.6 1.6 0 1 1-1.56-1.94 1.79 1.79 0 0 1 1.56 1.94z" fill="#0f141b"/><path d="M232.27 258.55a1.07 1.07 0 1 1-1.07-1.14 1.11 1.11 0 0 1 1.07 1.14z" fill="#fff"/><path d="M250.45 244.81c-8.25-1.13-18.74-6.43-19-7s0-.53.1-1 16.18 5.73 17.63 6.05 3.44 2.25 1.27 1.95z" fill="#f9be00"/><path d="M273.87 185.7c-2.12 3.53-.82 7.5 3.17 10.06l.56.35c.29.19.56-1.4.27-1.59l-.1-.07c-2-1.27-4.54-4.73-2.57-8a4 4 0 0 1 4.83-1.88c.33.1 1.21.56 1.33.39.3-.4-.44-1-1.27-1.32a5.44 5.44 0 0 0-6.22 2.06zM244 184.8a5.14 5.14 0 0 1-3.47-1.87 4.44 4.44 0 0 1-.19-5.24c.21-.27 1-1.09.73-1.3s-1.31.48-1.69 1.08a5.34 5.34 0 0 0 .17 6.42 7 7 0 0 0 4.36 2.46c.19-.52.51-1.35.09-1.55zM256.66 182a4 4 0 0 1 1.09-5.06c.27-.22.93-.63.72-.9s-1.32.2-1.58.42a5.08 5.08 0 0 0-1.41 6.53 6.15 6.15 0 0 0 6.34 3.52c.06-.44.07-1.14.12-1.51a4.89 4.89 0 0 1-5.28-3zM230.44 195.19c-2.15-.15-4.84-1-5.39-4.42a4.09 4.09 0 0 1 2.66-4.53c.32-.13 1-.25.88-.57s-1.17-.55-1.49-.42a5 5 0 0 0-3.29 5.72c.59 3.71 3.36 6 7.38 5.84.27-.5-.79-1.15-.75-1.62zM236.53 236.82c.18-.55 1.37-.72 1.28 0-.31 2.44-1.17 3.11-1.46 3.05s-.35-1.44.18-3.05zM247.56 240.42c.41-.41 1.41 0 1 .62a4.37 4.37 0 0 1-2.61 2c-.3-.04-.22-.78 1.61-2.62zM243.12 239c.31-.49 1.31-.24 1.08.44-.73 2.13-1.63 2.64-1.91 2.51s-.24-1.25.83-2.95zM212.52 240.93c-.13.56-1.64 1-1.21-.34.56-1.75.48-3.31.78-3.26s.91 1.59.43 3.6zM172 243.17c-.1.57 1.23-.15 1.62-2.15.34-1.81 1.51-4.29 1.22-4.37s-2 1.91-2.84 6.52zM242.06 261.7c-3.14 6.83-9.22 6.86-13.95 4-5-3.07-5.94-9.76-3.91-14.39.93-2.14 3.11-1.8 4.9.13 3.07 3.31 8.84 8.4 12.58 9.67a.47.47 0 0 1 .39.54s-.01.03-.01.05zm-1 .37a36.81 36.81 0 0 1-13.1-10.2c-1-1.23-2.38-1-2.78 0-1.94 4.54-.64 10.45 3.47 12.94 5 3 10.1 1.92 12.42-2.74zM112.57 103.45c0 37.35 14 69.76 44.85 101.33 3.22 3.3 6.46 9.14 6.09 12.83-.17 1.75.69 1.84 1 .1.68-4.39-1.68-9.69-5.87-14-29.75-30.46-45.17-64.07-45.17-100.33-.04-1.87-.9-1.83-.9.07zM333.74 99.46c-3 46.6-21.34 81.77-55.7 104.81-.27.18-.29 2.58 0 2.39q52.33-35.08 56.44-107.09c.08-1.75-.62-1.87-.74-.11z" fill="#0f141b"/></svg>