<?xml version="1.0" encoding="utf-8"?>
<!-- Generator: Adobe Illustrator 22.0.1, SVG Export Plug-In . SVG Version: 6.00 Build 0)  -->
<svg version="1.1" id="Livello_1" xmlns="http://www.w3.org/2000/svg" xmlns:xlink="http://www.w3.org/1999/xlink" x="0px" y="0px"
	 viewBox="0 0 219.5 311.3" style="enable-background:new 0 0 219.5 311.3;" xml:space="preserve">
<style type="text/css">
	.st0{fill:#F2BFD8;}
	.st1{fill:none;}
	.st2{fill:#F1655D;}
	.st3{fill:#EB3726;}
	.st4{fill:#C0749B;}
	.st5{fill:#EA99C2;}
	.st6{fill:#F4A2C6;}
	.st7{fill:#EE508E;}
	.st8{fill:#847E57;}
	.st9{fill:#FFFFFF;}
</style>
<title>Risorsa 3</title>
		<path class="st0" d="M187.9,181.5L187.9,181.5c4.8-2,9.5-4.2,14.1-6.6c0.3,0.2,0.6,0.4,1,0.6c4,2.4,9.8,4.4,14,3.9
			c1.5-0.2,2.6-1.6,2.5-3.1c0.1-1.6-0.9-3-2.5-3.4l-3-0.4l-3.3-0.4c-0.7-0.1-1.4-0.4-2.1-0.6c3.6-2.1,6.9-4.7,9.8-7.7
			c1.2-1.2,1.2-3.2,0-4.4c-1.2-1.3-3.2-1.3-4.5-0.1l-1.3,1.1l-5,4.2c0.4-1.2,0.7-2.3,1-3.5c0.4-1.7-0.6-3.4-2.3-3.8
			c-1.4-0.5-2.9,0.1-3.4,1.5c-0.5,1.3-1,2.7-1.4,4.1l-1.2,3.7l-0.6,1l-0.1,0.2c-0.1,0-0.1,0-0.2,0.1l-14.3,6.6l0,0l0,0l-1.2,0.5
			l-7.4,3c-2.1,0.8-4.2,1.7-6.3,2.6c-1.9,0.8-3.9,1.7-5.7,2.7c-1.1,0.5-1.7,1.8-1.2,2.9c0.4,1.3,1.8,2.2,3.2,1.9l0,0l0.3-0.1
			C174.1,186.5,181.1,184.4,187.9,181.5L187.9,181.5z"/>
		<path class="st1" d="M28,235.6c1.8,0,3.6-0.2,5.3-0.8c0.2-1.4,0.5-2.8,0.7-4.2c-1.4,0.1-2.8,0.2-4.2,0.3
			C29.5,232.5,28.9,234.1,28,235.6z"/>
		<path class="st1" d="M18.8,231.2c0.5,1,1.3,1.8,2.2,2.3c0.7-0.6,1.2-1.3,1.7-2c0.1-0.1,0.1-0.2,0.1-0.4
			C21.5,231.2,20.2,231.2,18.8,231.2z"/>
		<path class="st1" d="M6.9,232c1.5,3.6,4.7,4.6,7.6,4.4l-0.3-0.3c-1.2-1.4-2.1-3.1-2.4-4.9c-1.8,0-3.6-0.1-5.4-0.1
			C6.6,231.3,6.8,231.7,6.9,232z"/>
		<path class="st0" d="M28,235.6c0.9-1.5,1.5-3.1,1.8-4.8c0.1-0.6,0.2-1.3,0.2-1.9c0-0.6-0.1-1.2-0.2-1.8c-0.2-0.8-0.4-1.7-0.8-2.4
			c-0.8-1.6-2.1-2.9-3.6-3.9c-4.6-3.1-8.7-1.3-11,1.4c-0.7,0.9-1.3,1.9-1.8,2.9c-0.6,1.4-0.9,2.9-0.9,4.5c0,0.6,0,1.2,0.1,1.7
			c0.3,1.8,1.1,3.5,2.4,4.9l0.3,0.3c-2.9,0.2-6.1-0.8-7.6-4.4c-0.1-0.3-0.3-0.7-0.5-0.9c-0.6-0.8-1.4-1.3-2.4-1.5
			c-1.2-0.1-2.3,0.3-3.1,1.2c-0.1,0.1-0.2,0.2-0.2,0.3c-0.8,1.1-0.9,2.5-0.2,3.7c1.8,4,5.2,7,9.4,8.2c4.4,1.2,9.1,0.5,12.9-2
			c3.2,0.8,6.4,0.8,9.6,0c0.3-2.1,0.7-4.2,1-6.4C31.6,235.3,29.8,235.6,28,235.6z M21,233.6c-1-0.5-1.8-1.3-2.2-2.3
			c-0.1-0.2-0.1-0.4-0.2-0.6c0-0.1,0-0.2,0-0.3c0.1-1.1,0.4-2.1,1.1-2.9c0.3-0.4,0.7-0.7,1.1-0.9c0.8,0,1.5,0.4,1.9,1.1
			c0.4,0.6,0.6,1.2,0.6,1.9c0,0.5-0.1,1.1-0.4,1.5c0,0.1-0.1,0.3-0.1,0.4C22.3,232.3,21.7,233,21,233.6L21,233.6z"/>
		<path class="st0" d="M136.2,275.3c0,0,0,0.1,0,0.1c-0.3,7.3-0.4,14.6-0.5,21.6v0.1c0.2-0.1,0.4-0.1,0.6-0.1c2.4-0.3,4.7-0.7,7.1-1
			c0-4.9,0.2-9.9,0.5-14.7c0,0,0.2-4.8,0.2-5.7c0,0,0-0.1,0-0.1c0.1-2.3,0.2-4.6,0.2-6.9h-7.8C136.4,270.7,136.3,272.9,136.2,275.3z
			"/>
		<path d="M135.7,297.2c-2.9,1-1.7,5.7,0.6,6.1c6.4,1,13,1.2,19.8,1.5c5.1,0.2,12.6,1,17.1-1.7c2.1-1.3,2.8-4,1.5-6.1
			c-0.4-0.6-0.9-1.1-1.5-1.5c-4.6-2.7-12.3-1.5-17.4-1c-4.2,0.4-8.4,0.9-12.5,1.5c-2.3,0.3-4.7,0.7-7.1,1
			C136.1,297,135.9,297.1,135.7,297.2z"/>
		<path class="st0" d="M67.3,275.3c0,0,0,0.1,0,0.1c-0.3,7.2-0.4,14.5-0.5,21.5v0.2c0.2-0.1,0.4-0.1,0.6-0.1c2.4-0.3,4.7-0.7,7.1-1
			c0-4.9,0.2-9.9,0.5-14.7c0,0,0.2-4.8,0.2-5.7c0,0,0-0.1,0-0.1c0.1-2.4,0.2-4.9,0.2-7.4l-7.7-0.2C67.5,270.3,67.4,272.7,67.3,275.3
			z"/>
		<path d="M66.8,297.2c-2.9,1-1.7,5.7,0.6,6.1c6.4,1,13,1.2,19.8,1.5c5.1,0.2,12.6,1,17.1-1.7c2.1-1.3,2.8-4,1.5-6.1
			c-0.4-0.6-0.9-1.1-1.5-1.5c-4.6-2.7-12.3-1.5-17.4-1c-4.2,0.4-8.3,0.9-12.5,1.5c-2.4,0.3-4.7,0.7-7.1,1
			C67.2,297,67,297.1,66.8,297.2z"/>
		<path class="st2" d="M145.4,162.4c-4,1.8-8.1,3.3-12.3,4.5c-0.8,0.2-1.6,0.4-2.4,0.6c-6.2,1.5-12.5,2.3-18.8,2.5
			c-8.5,0.2-17.1-0.9-25.3-3.3c-6.2-1.8-12.1-4.5-17.5-7.9c-1.5-1-3-2-4.4-3.1c-2,2.6-3.9,5.4-5.6,8.2
			c-15.4,25.9-19.2,68.7-23.3,98.2c50.5,1,101.3,3.3,151.9,0.4c-4.1-29.9-8.3-72-23.3-98.6c-1.8-3.2-3.9-6.3-6.3-9.1
			c-0.9,0.6-1.7,1.3-2.6,1.9C152.4,158.8,149,160.7,145.4,162.4z"/>
		<path class="st3" d="M194.5,263.3c-3.5-25.2-6.7-63.2-16.9-87.4c-1.1-2.6-2.3-5.2-3.6-7.7c-1-2-2.1-4-3.2-5.9
			c-0.6-1.1-1.3-2.2-2-3.3c-0.4-0.7-0.9-1.3-1.4-2c-1.4-2.1-3-4.2-4.6-6.2c-1.5,1.4-3,2.7-4.6,3.9c2.3,2.9,4.4,5.9,6.3,9.1
			c15,26.6,19.2,68.7,23.3,98.6c-50.5,2.9-101.3,0.6-151.9-0.4c4-29.5,7.9-72.3,23.3-98.2c1.7-2.8,3.6-5.6,5.6-8.2
			c-1.6-1.2-3.2-2.6-4.7-4c-0.6,0.7-1.2,1.4-1.8,2.2c-1.2,1.7-2.4,3.4-3.5,5.1c-1.8,2.9-3.4,6-5,9.1c0,0.1-0.1,0.3-0.2,0.4
			c-1.4,3-3.3,7.1-3.5,7.7c-5,12.1-8.4,34.9-10.9,47.9c-0.4,2.1-0.8,4.2-1.2,6.3c-0.2,1.4-0.5,2.8-0.7,4.2c-0.4,2.1-0.7,4.2-1,6.4
			c-1.2,7.5-2.2,14.9-3.2,22.2c-0.2,2,1.3,3.9,3.3,4.1c0.4,0,0.8,0,1.3-0.1c0.4,0.2,0.8,0.3,1.3,0.3c10.9-0.1,21.8,0,32.7,0.3
			l7.7,0.2c10,0.3,20,0.5,30,0.6c3.6,0,7.2,0,10.9,0c2.2,0,4.3,0,6.5,0c4.6,0,9.2,0,13.9,0h7.8c15.3,0,30.6-0.1,45.8-1.2
			c2,0.4,4-0.9,4.3-3C194.5,264,194.5,263.7,194.5,263.3z"/>
		<path class="st0" d="M86.9,201.3L86.9,201.3c4.7,2.2,9.5,4.2,14.4,6c0.1,0.4,0.1,0.8,0.2,1.2c0.9,4.5,3.3,10.3,6.5,12.9
			c1.2,1,2.9,0.8,4-0.2c1.3-1,1.6-2.7,0.8-4.1l-1.8-2.4l-1.9-2.7c-0.4-0.6-0.7-1.3-1-1.9c4,1.3,8.1,1.9,12.3,2
			c1.7,0.1,3.2-1.3,3.2-3c0.1-1.8-1.2-3.3-2.9-3.4l-1.7-0.2l-6.5-0.9c1.1-0.5,2.2-1,3.3-1.6c0.2-0.1,0.4-0.2,0.6-0.4
			c1-1,1.3-2.6,0.7-3.9c-0.5-1.4-2-2.1-3.4-1.5c0,0,0,0,0,0c-1.4,0.5-2.7,1.1-4,1.7l-3.5,1.6l-1.1,0.3H105l-0.2-0.1l-14.5-6.1l0,0
			l-1.2-0.5l-7.2-3.4c-2-1-4.1-2-6.2-2.9c-1.9-0.9-3.9-1.7-5.8-2.4c-1.1-0.5-2.4,0-3,1.1c-0.7,1.2-0.4,2.8,0.7,3.7l0,0L68,190
			C73.9,194.4,80.3,198.2,86.9,201.3L86.9,201.3z"/>
		<path class="st0" d="M180.1,28.6c-10,5.7-4.2,24.1,0.1,31.6c5.6,10,17.7,16.7,28,7.9c7.6-6.5,6.1-18,1.3-25.8
			c-6.6-10.8-16.7-14.2-28.7-14.2C180.5,28.3,180.3,28.5,180.1,28.6z M200.9,43.4c6.5-0.2,5.5,12-1.6,9.4
			C194.7,51.2,196.2,43.5,200.9,43.4z M187,45.7c6.5-0.2,5.5,12-1.6,9.5C180.8,53.5,182.2,45.8,187,45.7z"/>
		<path class="st0" d="M168.8,143.8c1.9-4.1,3.2-8.4,3.7-12.9c0.5-5,0.3-10-0.7-14.9c-1.1-5-2.7-9.9-4.8-14.6
			c-1.5,0.3-3.1,0.5-4.6,0.6c-1.1,0.1-2.1-0.8-2.1-1.9c-0.1-0.9,0.5-1.8,1.4-2c1-0.3,2.1-0.6,3.1-1c-0.6-1.2,0-2.6,1.2-3.2
			c1-0.5,2.1-0.2,2.8,0.6c0.2,0.3,0.5,0.5,0.6,0.8c10.6-4.3,20.3-10.6,29.4-17.8c-10.8,0.8-20-6.2-24.8-17.4c-3.7-8.6-7.4-24-0.3-32
			c-14.9,0.2-29.8,1.9-44.4,5c-1.9,0.4-3.8,0.9-5.7,1.3h-0.1c-1.8,0.5-3.7,1-5.5,1.5l-0.3,0.1c-0.8,0.2-1.6,0.5-2.5,0.8
			c-0.3,0.8-0.7,1.6-1.1,2.4c-1.1,1.9-4,1.3-4.8-0.5c-2.5,0.9-4.9,1.8-7.3,2.8c0.8,2-2.3,3.9-3.6,2l-0.2-0.3l-1.2,0.5l-1.5,0.7
			c-1.2,0.6-2.5,1.2-3.7,1.9c-0.5,0.3-1,0.5-1.5,0.8c-1.6,0.8-3.1,1.7-4.6,2.6c0.1,0.5,0.1,1.1,0.1,1.6c0.1,2.5-3.7,3.3-5,1.5
			c-3.4,2.3-6.6,4.8-9.7,7.5l0.2,0.1c2,1.8-0.2,5.1-2.4,3.4c-0.3-0.2-0.6-0.4-0.9-0.7c-0.5,0.5-1,1-1.5,1.5L66,64.8
			c-0.8,0.9-1.6,1.7-2.4,2.7l-0.1,0.2c-0.9,1-1.7,2-2.5,3l0,0c-2.9,3.7-5.3,7.7-7.2,11.9c-3.8,8.2-5.9,17-6.3,26
			c-0.2,4.7,0,9.4,0.6,14.1c0.7,5.4,2,10.8,4,15.9c2.2,5.6,5.3,10.7,9.1,15.3c3.6,4.2,7.8,7.7,12.5,10.6c4.1,2.5,8.5,4.5,13,5.9
			c8.1,2.6,16.6,3.9,25.1,3.7c5.9-0.1,11.8-0.9,17.5-2.2c0.9-0.2,1.7-0.4,2.5-0.7c3.8-1.1,7.6-2.4,11.2-4c2.9-1.3,5.8-2.8,8.5-4.6
			c3.1-2,6-4.2,8.6-6.8c2.6-2.5,4.9-5.4,6.8-8.5C167.6,146.1,168.3,145,168.8,143.8z M60.9,118.5c-3-4.9-4.2-12.6-2.3-18.9
			c1-3.6,3.3-6.7,6.5-8.6c6.8-3.8,16.2-1.3,22.1,3.1c7.8,5.9,9.5,15.5,5.5,24.2c-2.1,4.7-5.8,8.9-10.9,10.2
			C73.6,130.6,65.2,125.2,60.9,118.5z M103,129.5c-1.2-2.8,2.9-5.1,4.6-2.6c6.4,9.5,15.5,13.5,27,11.9c11.2-1.6,19.6-9.7,20.4-21.1
			c0.2-2.2,3.9-2.2,3.9,0.1C160.1,146.1,113.9,155.1,103,129.5L103,129.5z"/>
		<path class="st4" d="M185.4,55.1c7.1,2.5,8.1-9.7,1.6-9.5C182.2,45.8,180.8,53.5,185.4,55.1z"/>
		<path class="st4" d="M199.3,52.8c7.1,2.5,8.1-9.6,1.6-9.4C196.2,43.5,194.7,51.2,199.3,52.8z"/>
		<path class="st5" d="M171.8,149.8c3.3-5.4,5.3-11.5,6-17.8c0.5-5.4,0.2-10.8-0.9-16.1c-1.1-5.4-2.9-10.6-5.3-15.6
			c16-4.4,31.3-17,41.8-28.4c0.4-0.4,0.6-0.9,0.6-1.4c6.5-7.2,6.1-18.7,2.3-27.6c-5.7-13.3-21.3-23.5-36-20.4
			c-0.3,0.1-0.6,0.2-0.8,0.3c-21,0.5-42.5,2.5-62.9,8.2c0.2-1.3,0.4-2.6,0.5-3.9c0.3-3.3,0.2-6.7-0.5-9.9c-1-5.3-3.9-10.2-8-13.7
			c-6.9-5.7-17.8-5-21.2,4.1c-1.7,4.5-1,9.6,0.1,14.1c1.7,6,4.2,11.8,7.6,17l-0.3,0.1c-0.8,0.4-1.6,0.8-2.4,1.1l-0.6,0.3l-2.2,1.1
			L89,41.9l-2,1l-1,0.5l-1.6,0.9c-0.9-2.9-1.9-5.7-3.2-8.4c-1.6-3.7-3.9-7.1-6.7-10c-4.1-4.2-9.8-7.2-15.8-6.3
			c-5,0.8-9.1,4.6-10.2,9.6c-1.7,7,1.3,13.9,5.2,19.7c2.8,4.1,6.2,7.8,10.1,11c-6.7,6.9-12,14.9-15.8,23.7c-3.3,7.8-5.4,16-6,24.5
			c-0.4,5.2-0.3,10.5,0.3,15.8c0.7,6.2,2.2,12.2,4.5,17.9c2.5,6.2,6,11.9,10.5,16.9c0.9,1,1.9,2,2.9,3c1.5,1.4,3,2.8,4.7,4
			c1.4,1.1,2.8,2.1,4.4,3.1c5.4,3.4,11.3,6.1,17.5,7.9c8.2,2.4,16.7,3.5,25.3,3.3c6.3-0.1,12.6-1,18.8-2.5c0.8-0.2,1.6-0.4,2.4-0.6
			c4.2-1.2,8.3-2.6,12.3-4.5c3.5-1.6,6.9-3.5,10.1-5.7c0.9-0.6,1.7-1.2,2.6-1.9c1.6-1.2,3.2-2.5,4.6-3.9c0.6-0.6,1.2-1.1,1.8-1.7
			C167.4,156.3,169.8,153.2,171.8,149.8z M151.5,162.4c-2.7,1.7-5.6,3.3-8.5,4.6c-3.6,1.6-7.4,3-11.2,4c-0.8,0.2-1.7,0.4-2.5,0.7
			c-5.7,1.4-11.6,2.1-17.5,2.2c-8.5,0.2-17-1-25.1-3.7c-4.5-1.5-8.9-3.5-13-5.9c-4.7-2.8-8.9-6.4-12.5-10.6c-3.9-4.5-7-9.7-9.2-15.2
			c-2-5.1-3.4-10.4-4.1-15.8c-0.6-4.7-0.8-9.4-0.6-14.1c0.4-9,2.5-17.8,6.3-26c2-4.2,4.4-8.2,7.3-11.9l0,0c0.8-1,1.6-2.1,2.5-3
			l0.1-0.2c0.8-0.9,1.6-1.8,2.4-2.7l0.3-0.3c0.5-0.5,1-1,1.5-1.5c0.3,0.2,0.6,0.5,0.9,0.7c2.2,1.7,4.4-1.7,2.4-3.4L71,60.1
			c3.1-2.7,6.3-5.2,9.7-7.4c1.3,1.8,5.1,1.1,5-1.5c0-0.5-0.1-1.1-0.1-1.6c1.5-0.9,3-1.8,4.6-2.6c0.5-0.3,1-0.5,1.5-0.8
			c1.2-0.6,2.4-1.3,3.7-1.9l1.5-0.7l1.2-0.5l0.2,0.3c1.3,1.9,4.4,0,3.6-2c2.4-1,4.8-1.9,7.3-2.8c0.8,1.7,3.8,2.4,4.8,0.5
			c0.4-0.8,0.8-1.6,1.1-2.4c0.8-0.2,1.6-0.5,2.5-0.8L118,36c1.8-0.5,3.6-1,5.5-1.5h0.1c1.9-0.5,3.8-0.9,5.7-1.3
			c14.6-3.1,29.5-4.8,44.4-5c-7,8-3.4,23.4,0.3,32c4.8,11.1,14,18.2,24.8,17.4c-9,7.3-18.7,13.6-29.4,17.8c-0.2-0.3-0.4-0.6-0.6-0.8
			c-0.8-1-2.4-1.1-3.4-0.3c-0.8,0.7-1.1,1.9-0.6,2.8c-1,0.3-2.1,0.7-3.1,1c-1.1,0.3-1.7,1.4-1.3,2.5c0.3,0.9,1.1,1.5,2,1.4
			c1.5-0.1,3.1-0.3,4.6-0.6c2.1,4.7,3.7,9.6,4.8,14.6c1,4.9,1.3,9.9,0.7,14.9c-0.5,4.5-1.8,8.8-3.7,12.9c-0.6,1.2-1.2,2.3-1.9,3.4
			c-1.9,3.1-4.2,5.9-6.8,8.5C157.5,158.2,154.6,160.5,151.5,162.4L151.5,162.4z M54.1,30.3c0.5-1.7,1.5-3.1,2.9-4.1
			c1.6-1,3.5-1.4,5.3-1c2.4,0.5,4.6,1.5,6.4,3.1c5.9,4.6,8.5,12.1,10.4,19.2c-4.3,2.7-8.3,5.8-12,9.2c-5.6-5.3-11-11.6-13-19
			C53.5,35.3,53.4,32.8,54.1,30.3z M92.7,10C93,8.5,94,7.2,95.2,6.4h0.1l0.5-0.3C96,6.1,96.2,6,96.4,5.9h0.1l0,0
			c-0.6,0.2,0.4-0.2,0,0c0.4-0.1,0.8-0.2,1.2-0.2c0.2,0,0.4-0.1,0.6-0.1l0,0c-0.2,0,0.4,0,0,0h0.3c0.4,0,0.8,0,1.3,0.1l0.4,0.1l0,0
			c0.1,0,0.2,0.1,0.3,0.1c0.4,0.1,0.9,0.3,1.3,0.4c0.2,0.1,1.1,0.5,1.2,0.5l-0.1-0.1c0.1,0,0.1,0.1,0.1,0.1l0,0
			c3.7,2.1,6.4,5.6,7.5,9.7c0.9,3,1.2,6,1,9.1c-0.2,2.6-0.7,5.1-1.5,7.6c-3.5,1.2-7,2.4-10.5,3.9c-3.4-6.4-6.5-13.2-7.4-20.4
			C91.8,14.4,92,12.2,92.7,10z M95.2,6.4L95.2,6.4C94.9,6.6,95.8,6,95.2,6.4L95.2,6.4z M209.4,42.3c4.8,7.8,6.4,19.2-1.3,25.8
			c-10.3,8.8-22.4,2.1-28-7.9c-4.3-7.5-10-25.9-0.1-31.6c0.2-0.1,0.4-0.3,0.6-0.5C192.8,28.1,202.8,31.5,209.4,42.3L209.4,42.3z"/>
		<path class="st6" d="M81.8,128.5c5.2-1.3,8.8-5.5,10.9-10.2c4-8.7,2.3-18.3-5.5-24.2C81.3,89.6,72,87.1,65.2,91
			c-3.2,1.9-5.5,5-6.5,8.6c-1.9,6.3-0.8,14,2.3,18.9C65.2,125.2,73.6,130.6,81.8,128.5z"/>
		<path class="st7" d="M159,117.8c-0.1-2.2-3.8-2.3-3.9-0.1c-0.9,11.3-9.2,19.5-20.4,21.1c-11.4,1.6-20.6-2.4-27-11.9
			c-1.7-2.5-5.8-0.2-4.6,2.6C113.9,155.1,160.1,146.1,159,117.8z"/>
		<path class="st0" d="M99.5,37c3.5-1.4,7-2.7,10.5-3.9c0.7-2.5,1.2-5.1,1.5-7.7c0.2-3.1-0.1-6.1-1-9.1c-1.1-4.1-3.8-7.6-7.5-9.7
			l0,0c0,0-0.9-0.4-1.2-0.5c-0.4-0.2-0.8-0.3-1.3-0.4c-0.1,0-0.2-0.1-0.3-0.1l0,0l-0.4-0.1c-0.4-0.1-0.8-0.1-1.3-0.1h-0.3
			c-0.2,0-0.4,0-0.6,0.1c-0.4,0.1-0.8,0.1-1.2,0.2l0,0h-0.1c-0.2,0.1-0.4,0.1-0.6,0.2l-0.5,0.3h-0.1C93.9,7.2,93,8.5,92.7,10
			c-0.6,2.2-0.8,4.4-0.5,6.6C93,23.9,96.1,30.6,99.5,37z"/>
		<path class="st8" d="M103,6.7C103,6.7,103,6.7,103,6.7L103,6.7z"/>
		<path class="st1" d="M100.2,5.7L100.2,5.7"/>
		<path class="st8" d="M95.2,6.4L95.2,6.4C95.8,6,94.9,6.6,95.2,6.4z"/>
		<path class="st8" d="M98.3,5.5C98.7,5.5,98,5.5,98.3,5.5z"/>
		<path class="st8" d="M96.5,5.8C96.9,5.7,95.8,6,96.5,5.8L96.5,5.8z"/>
		<path class="st0" d="M67.2,56.7c3.7-3.4,7.7-6.5,12-9.2c-1.9-7.1-4.5-14.5-10.4-19.2c-1.8-1.6-4.1-2.6-6.4-3.1
			c-1.8-0.4-3.8,0-5.3,1c-1.4,1-2.4,2.4-2.9,4.1c-0.6,2.4-0.5,5,0.2,7.3C56.2,45.1,61.6,51.4,67.2,56.7z"/>
		<path class="st9" d="M137.9,57.9c5.2,1.2,12.4-2.5,12.4-8.3c0-5.1-3.9-7.9-8.6-8.7c-2.4-0.6-4.9,0.1-6.5,1.9
			c-1.7,1.7-2.6,4-2.7,6.4C132.4,52.8,134,56.9,137.9,57.9z"/>
		<path class="st9" d="M111.3,71.9c5.2-1.5,8.2-6.8,6.7-12c-0.1-0.4-0.2-0.8-0.4-1.2c-1-2.7-2.8-5.5-5.7-6.4c-2.9-0.7-5.9,0-8.1,1.9
			c-1.1,1-2,2.1-2.7,3.3c-1.5,2.5-1.9,5.5-1.1,8.2c1.2,4.7,6,7.5,10.7,6.2C110.9,72,111.1,71.9,111.3,71.9z"/>
		<path class="st5" d="M115.4,47.5c-3.6-2-7.3-1.4-10.5,0.4c-3.7,2.1-6.6,5.2-8.5,9.1c-1.7,3.4-1.9,7.4-0.7,11
			c2.6,7.7,10.7,11,18.2,8.3c7.2-2.6,10.3-10.1,9-17.3C122,54.5,119.6,49.8,115.4,47.5z M101.1,57.5c0.7-1.2,1.6-2.4,2.7-3.3
			c2.3-1.9,5.3-2.6,8.1-1.9c2.8,0.9,4.7,3.7,5.7,6.4c2.1,5-0.2,10.7-5.2,12.8c-0.4,0.2-0.8,0.3-1.2,0.4c-4.6,1.6-9.6-0.9-11.1-5.5
			c-0.1-0.2-0.1-0.4-0.2-0.6C99.2,63,99.6,60,101.1,57.5L101.1,57.5z"/>
		<path class="st5" d="M138,63.3c8.3,1.4,17.2-4.9,17.9-13.3c0.3-5.5-2.6-10.7-7.5-13.3c-2.8-1.5-5.9-2-9-1.3
			c-2.6,0.5-5.1,1.8-7.1,3.6C124.4,46.1,126.8,61.4,138,63.3z M141.7,40.8c4.6,0.8,8.6,3.6,8.6,8.7c0,5.8-7.2,9.6-12.4,8.3
			c-3.9-0.9-5.4-5.1-5.3-8.7c0-2.4,1-4.7,2.7-6.4C136.9,40.9,139.4,40.2,141.7,40.8z"/>
		<path d="M109.7,68c3.8-0.3,5.1-4.1,3-7c-1.9-2.7-7-2.4-7.9,1C104.1,64.7,106.8,68.2,109.7,68z"/>
		<path d="M142.4,55.6c3.8-0.3,5.1-4.1,3.1-7c-1.9-2.7-7-2.4-7.9,1C136.7,52.3,139.4,55.8,142.4,55.6z"/>
</svg>
