<?xml version="1.0" encoding="UTF-8" standalone="no"?><svg xmlns="http://www.w3.org/2000/svg" width="1000" height="652.8"><path d="M922.7 616.2c28.6-10 52.5-31.3 65.8-58.3 17.4-35.3 3.4-73.3-9.8-105.4-11-27-14.2-51.8-5.3-78 8.6-25.4 32.8-55.7 24.3-86.5-9.3-33.8-56.7-59.2-89.8-53.8-28.5 4.8-62 11.6-88.2-12.4-43.7-40.2-81.6-68.7-137.7-41.6-27.3 13.2-55 25-85.4 26.3-37.3 1.5-63.4-17.3-96-31.5-37.7-16.5-89.3-7.5-114.3 11-26 19-20.6 15.5-44 32.3C313 239.5 286.5 236 253 220c-26-12.4-50.3-23.5-80-29-57.3-10.6-129.4 22.6-139 81.1-5 31.6 4.3 50 11.7 82.9 7.3 32.8-13.6 60.7-31.8 85.6-31.6 43-5 122.1 56.6 111.3 41-7.2 93.6-30.8 115.5 21.4 19.7 47 65.3 82.1 117.6 74.7 32.3-4.6 63.2-19.3 92.7-28.8 31.2-10 63.1.6 91.3 16.5a122.7 122.7 0 0 0 80.6 14.9c31.7-5.7 55.6-34.3 81-49.8 58.9-36 120.2-22.5 182 10 28 14.7 61.7 15.6 91.5 5.3" fill="#007cc2"/><path d="M132 357.2a66 66 0 0 0 21.7-3.5c30.6-10.7 47-29 49.4-54.8 2.3-26.4-9.6-50.4-34-60.4-17.4-7-32-9.7-45.2-8.5a60.6 60.6 0 0 0-42 20.7 50.6 50.6 0 0 0-13.7 31.5c-.8 8-1.4 15.7-1.8 23-.4 9.2-1.4 98.7-1.4 104.2a384 384 0 0 0 2.6 44.2c2.5 6 7 8.9 13.6 8.9 6.5 0 12.1-2.7 16.8-8 2.1-2.5 3.5-6.8 4.1-13a1171.2 1171.2 0 0 1 2.2-89.6 78.8 78.8 0 0 0 27.8 5.3zm-26.3-75.8c2.1-10.2 8.8-15.3 20-15.3 13.8 0 25.4 3 35 12 4.2 3.8 6.3 11 6.3 17.9 0 9-6.2 22.2-24.4 27.6-3 .9-23 7.5-36.6-9.2-1.6-2-2.5-6-2.5-12 0-6.2.7-13.2 2.2-21" fill="#db87b9"/><path d="M194.8 372.2a86 86 0 0 0-43.5 12c-18.3 11.3-25.2 30.4-25.2 53a56 56 0 0 0 20.7 45 62 62 0 0 0 40.6 14.1c17.4 0 30.5-6 39.5-18.1 2.2-3.2 3.3-6.3 3.3-9.3 0-7.4-4.6-12.5-14.4-11.4-1.8.2-6.6 1.8-14.6 6-5.4 2.8-14.5 8.3-32.3 1.3-8.8-3.5-14-8.4-14-22 0-3.6.5-6.7 1.5-9.5 12.5 3 25 4.6 37.3 4.6 29 0 43.5-8.7 43.5-26 0-2-.2-4-.6-6-3.8-20.4-18.1-33.7-41.8-33.7zm6 43.3c-2 .5-12.2-.7-30.7-3.6l-3.6-.4c2.6-4.4 10-11 15.8-12.6a24 24 0 0 1 6.6-.8c4.8 0 8.9 1.3 12.2 4 3.4 2.6 5.1 5.2 5.1 7.9 0 2.9-1.8 4.7-5.4 5.5M337 440a79.4 79.4 0 0 0-46.4-14.3c-18 0-29.4 5-34.4 15.2-4 7.9-6 23.6-6 47 0 0-.2 22.1-.5 25.5-.2 23.8-2 61.4-2 64.1a42 42 0 0 0 2.7 15.3c3.6 9 8.8 13.7 15.7 13.7 3.6 0 6.7-2 9.3-6 2-3.2 3-8.3 3-15.3 0 .6-.7-7-1.7-23.1-.7-10.7 0-25.8 0-25.8 4.4.4 8.7.7 13.9.7 13.9 0 24.7-1.3 32.6-3.9a52.9 52.9 0 0 0 26.7-19.7c7-9.5 10.4-20.2 10.4-32 0-17-7.8-30.8-23.2-41.4zm-15.5 58.4a40.4 40.4 0 0 1-19 7.9c-4.4.6-12.5.2-24.1-1.3-.6-14.8-.7-21.5.6-35.5.5-7.1 4.3-11.1 8.6-11.2 4-.3 3.5-.3 6.5 0 19.3 1.6 30.1 5.8 34.3 17.3.8 2.5 1.2 5 1.2 7.3 0 6.2-2.7 11.4-8.1 15.5M419 418.8l-.4-.2c-15.6.7-25.7 5.8-30.3 15.1-4 7.9-6 23.6-6 47.1 0 0-.2 22-.5 25.4-.2 23.8-2 61.4-2 64.1a42 42 0 0 0 2.7 15.3c3.7 9 8.9 13.7 15.7 13.7 3.6 0 6.7-2 9.3-6 2-3.2 3-8.3 3-15.3l-1.7-23.1c-.7-10.7 0-25.8 0-25.8 4.4.4 8.7.7 14 .7a110 110 0 0 0 32.5-3.9 53 53 0 0 0 26.7-19.7c7-9.5 10.4-20.2 10.4-32 0-17-7.7-30.8-23.2-41.4a86.2 86.2 0 0 0-5.8-3.7c-6 0-12.6-1.9-17.7-3-9.2-2.3-18.1-4.2-26.6-7.3zm41.5 49.6c.8 2.5 1.2 5 1.2 7.3 0 6.2-2.7 11.4-8 15.5a40.3 40.3 0 0 1-19 7.9c-4.5.6-12.5.2-24.2-1.3-.6-14.8-.7-21.5.6-35.5.5-7.1 4.3-11.1 8.6-11.2 4-.3 3.5-.3 6.5 0 19.4 1.6 30.1 5.8 34.3 17.3M537 421.4a3 3 0 0 1-1.9-.7 42.3 42.3 0 0 0-17.5 16.5c-5.3 8.9-8 19-8 30.2 0 17.9 5.5 32.7 16.4 44.5a56 56 0 0 0 43.1 17.7c15 0 26.8-4.1 35-12.3 3.2 4.3 7 7.3 11.2 9 3.3 1.5 6.8 2.2 10.5 2.2 10.6 0 15.5-4.8 14.9-14.6-.2-6.2-2.3-10.8-6.2-13.9l-12-9.2c-4-3-6.6-8.6-7.9-16.7-.8-7.4-1.8-14.8-2.8-22-2.2-8.9-6.4-16-12.8-21.3a67.8 67.8 0 0 0-23.4-13c-3.9.6-7.8 1-11 1.3-9.5 1-18.5 2.3-27.6 2.3zm49.6 45.3c3.2 11 3.4 20.1-1 26-4.1 5.8-12.5 12.5-30.7 6.6a29 29 0 0 1-9.9-5.5c-7-6.2-8.9-13-8.9-23.3 0-7.4 2.1-14 6.4-19.8 4.2-5.7 9.7-8.6 16.5-8.6 4.9 0 10 1.5 15.4 4.6 5.4 3.1 9.5 9.8 12.2 20M775.6 237.5c-17.4-7-31.9-8.5-45.3-8.5a55.7 55.7 0 0 0-42 16.8 50.6 50.6 0 0 0-13.6 31.5c-.9 8.1-1.5 15.7-1.8 23-.5 9.2-1.4 98.7-1.4 104.2a380.7 380.7 0 0 0 2.5 44.2c2.5 6 7 9 13.6 9s12.2-2.7 16.9-8c2-2.6 3.4-7 4-13a1172 1172 0 0 1 2.3-89.7 78.8 78.8 0 0 0 27.7 5.3c7.7 0 14.9-1.2 21.7-3.5 30.6-10.6 47-29 49.4-54.8a52.1 52.1 0 0 0-34-56.5zM749 318.7c-2.9.9-22.9 7.5-36.5-9.2-1.6-2-2.5-6-2.5-12 0-6.2.7-13.2 2.2-21 2-10.2 8.8-15.2 20-15.2 13.8 0 25.4 2.8 35 12 4.2 3.8 6.3 10.8 6.3 17.8 0 9.1-6.2 22.2-24.5 27.6" fill="#db87b9"/><path d="M768.8 366.2c-10.5 1-21.6 5-21.6 20.3 0 17 14.4 20 20 20.4 3.2.2 6.3-.4 9.4-1.2 18.4-5.2 15.5-23 11.5-29.5a19.9 19.9 0 0 0-19.3-10M769.8 425.4c-4.8-.4-10.2.1-16.5 7.3-4.7 5.5-7.6 14.7-8.6 27.5-.5 6-.5 18.5 0 37.5.7 11 2.4 20.1 7.1 26.9 3.3 4.5 8.3 5.4 11.7 5.7 6.1.4 12.2-2.2 16.5-12 2.3-5 2.5-10 3-16.3.2-2.4-.3-57.6-1-62.6-1.4-10.8-5.6-13.5-12.2-14M938.2 523a43 43 0 0 0-17.2-6.3c19.1-24 22.4-66.3 22.4-84a98 98 0 0 0-9.2-44.6 69.2 69.2 0 0 0-23.3-26.6 63 63 0 0 0-34.6-9.6 69.6 69.6 0 0 0-36 9.6 52.3 52.3 0 0 0-23.8 27.3 57.9 57.9 0 0 0-3.8 21c0 14.9 4.6 27.5 14 37.9a49.3 49.3 0 0 0 39.7 16.2 74 74 0 0 0 44.2-16.4c-.4 28-9.4 43.6-22.9 53.4-11 8.1-19-3.5-21-5.4a27.6 27.6 0 0 0-19.7-8.2c-9.7 0-13.9 5-12.4 15.2 1.7 10 6.6 18 14.6 24.4 8 6.3 20.4 11.3 28.9 11.3 11.6 0 20.3-2.6 33.3-12 5.2-.3 10.5.6 15.2 2.7-9.9 7.5-15.6 20.2-6.3 32C935 579.3 960 557 951.4 538a27 27 0 0 0-1.8-3.4c8.5 1 16 6.3 16.9 16.1.8 9.2 13.6 8.1 12.5-1a31.9 31.9 0 0 0-40.8-26.6zM904 412.6c-1.2 10.3-13 23-35.5 20.3-7.4-1-12.9-3.5-17.6-8.3a24.2 24.2 0 0 1-6-18.6c.8-9.9 4.6-15.6 16.2-20.6 11-4.9 21.3-3 26.3-1.7 14 3.6 18 16.4 16.6 28.9zM941.5 546c-.6 3.4-5.5 8.8-9 8.1-4.4-.8-7.1-8.8-1.5-14 1.9-1.6 4-2.9 6.3-3.8 2.7 2.7 4.8 6.1 4.2 9.7" fill="#db87b9"/><path d="M367.7 326.7c1.8-3 2.8-6.2 2.8-9.3A13.7 13.7 0 0 0 364 306a11 11 0 0 0-15.4 2 16 16 0 0 0-3.8 10.3 13.7 13.7 0 0 0 4 9.7c-4.1.2-8.6-1.2-10.7-6.2-.8-1.9-2.3-3.1-4.1-3.3-1.8-.2-3.6.5-4.7 2-1 1.4-1.1 3.3-.3 5.2 2.6 5.6 7.2 9.6 13.1 11.4 6 1.7 12.6.7 18-2.7 4.5 1.1 9.2 1 13.5 0l1.4-8.8a21 21 0 0 1-7.4 1.1zm-7.4-5.6c-.6 1-1.4 1.9-2.4 2.8-2-1.2-3.2-2.5-3.4-4v-.4c0-1 .5-2.8 1.5-4 .5-.8 1-1.2 1.6-1.3.9-.1 2 .5 2.7 1.6.5.8.8 1.7.8 2.6 0 .9-.3 1.8-.8 2.7M584 260.6l10.3 4.2 1 .4a45.4 45.4 0 0 0 .7.3l20 9.2.2.1.2.3.7 1.3 1.7 5.2c.5 1.8 1.1 3.8 2 5.7.8 2 2.7 2.7 4.7 2 1.8-.5 3.4-2.2 3.4-4.3 0-.3 0-.6-.2-1a47 47 0 0 0-1.4-4.9l7 5.9 1.9 1.5c2.3 2 4.9 1.3 6.3-.2 1.4-1.4 2-4 0-6.1a61 61 0 0 0-13.6-10.8l2.9-.8 4.6-.6 4-.5c2.5-.4 3.6-2.7 3.6-4.7 0-2.4-1.5-4.1-3.5-4.4a34.7 34.7 0 0 0-21 6.3c-6.3-3.4-12.9-6.5-19.6-9.2a150.9 150.9 0 0 0-28.6-8.8c1.8 3.5 3.5 7 5 10.7l7.8 3.2" fill="#f4bfd9"/><path d="M534.8 413.2c-3 1.6-1.9 5.9.3 7.5a3 3 0 0 0 1.9.7c9 0 18.1-1.2 27.5-2.3 3.3-.3 7.2-.7 11-1.4 4.7-.8 9.2-2.2 12.2-4.8 3.6-3 2.7-8.7-1.6-10.4-7-2.7-17.2.7-24.2 2.5a488.2 488.2 0 0 0-27 8.2" fill="#231f20"/><path d="M530.6 383v.1c1.3 10 2.8 20.2 4.2 29.9v.2a788 788 0 0 1 10.2-3.3c-1-6.7-1.8-13.6-2.5-20.4l-1-8a542 542 0 0 0-1.1-8.8h-10.9l1.1 10.2" fill="#f4bfd9"/><path d="M419.9 410.3c-4 .6-4 6.7-1.3 8.3l.5.2c8.5 3 17.4 5 26.6 7.2 5 1.2 11.7 3.1 17.7 3 2.2 0 4.4-.2 6.3-.9a6.2 6.2 0 0 0 2-10.4c-5.6-5-16.5-5.2-23.6-5.8a462.2 462.2 0 0 0-28.2-1.6" fill="#231f20"/><path d="M426.2 380.4v.2c-2.3 9.8-4.3 19.8-6.3 29.4v.3h.8c3.3 0 6.6.2 10 .4 1.2-6.7 2.8-13.5 4.4-20l1.8-7.8v-.2l2.3-10.4-11-.3-2 8.4" fill="#f4bfd9"/><path d="M374.6 366.4c73.2 1.4 146.9 4.7 220 .6-5.9-43.4-12-90-33.7-128.5a94.7 94.7 0 0 0-10.8-15.3 102.1 102.1 0 0 1-30 16.8 121 121 0 0 1-30.3 7.2c-12.3 1.4-24.9 1-37-1.5-9-1.8-18-4.8-26.3-9.2a83.5 83.5 0 0 1-11.9-7.5c-2.2 3-4.4 6.2-6.3 9.5-22.3 37.5-27.9 85.1-33.7 127.9" fill="#f1635d"/><path d="M547.6 226c4 4.5 7.5 9.4 10.4 14.7 21 37.1 26.8 81.8 32.6 123.6-70.5 4-141.4.8-212-.6 5.7-41.1 11-87 32.5-123 2-3.2 4-6.2 6.1-9.2a76 76 0 0 1-6.3-5.3l-.3-.3-.6.8a162.8 162.8 0 0 0-11.7 19.8h.4a4 4 0 0 1 4.4 2.7c.6 1.6 0 3.2-1.7 4-2.6 1.4-5.3 2.6-8 3.8a308.2 308.2 0 0 0-18.3 68.6l-1.4 8.8c-1.7 10.5-3 20.9-4.5 31-.5 4 3.6 6.5 6.4 5.7.5.2 1 .4 1.8.4 17-.3 33.9 0 50.8.5l11 .3c17.2.4 34.3.8 51.5.6l38.8-.1h10.9c17.8-.1 35.6-.5 53.4-1.7 2.8.7 6.7-1.7 6.2-5.7-5-35.1-9.4-74.2-23.7-108A168 168 0 0 0 564 234c-3-4.8-6.4-9.3-10-13.5a88.8 88.8 0 0 1-5.4 4.8l-1 .8" fill="#ee3424"/><path d="M609.5 81.8c9.9-10 6.3-25.7-1.4-36-10.5-14.2-24.9-17.7-41.6-16.2l-.8.8c-13.2 9.2-3 34 4 43.9 9 13.2 26.6 21 39.8 7.5zm-13-33.5c9-1.1 9 16-1.1 13.3-6.6-1.7-5.5-12.5 1-13.3zm-19.2 5c9-1.2 9.2 15.9-1 13.2-6.6-1.7-5.5-12.5 1-13.3" fill="#f4bfd9"/><path d="M444 188c8.7-3.2 14.4-11 17.4-19.5 5.5-15.8 1.1-32.2-13.3-41.3-11-6.9-27.6-9.7-38.9-2a24.9 24.9 0 0 0-10 16 43.1 43.1 0 0 0 7 32.4c8.3 11.1 23.9 19.2 37.8 14.3" fill="#f5a2c6"/><path d="M417.2 225c5.3 5.2 12.6 8.6 19.7 12 6 3 15.9 6.3 22.4 7.8 11.5 2.7 21 1.5 32.9.2 8.2-.9 13.8-3.7 21.5-6.3l10.2-3c5.1-2 7-2.9 12-5.6 3.8-2.2 6.9-6.5 10.5-9.2 4-3.1 7.8-7 11.1-10.8 3.4-3.8 5.1-5.5 7.4-10.1.8-1.6 2.2-6.9 2.9-8.6A71.6 71.6 0 0 0 572 171c.2-7-2.6-13.2-4.6-20l-9-22.4c14.2-7.3 34-22.2 45.7-33.4a39 39 0 0 1-39.4-20.7c-6.1-11.5-10.3-34.6-1.5-46.5a452.2 452.2 0 0 0-72.6 13.8l10-2.9-26.3 8c-19 8.8-32.2 16.6-45.5 26.2-4.5 3.6-18.7 16.6-18.7 16.6s-10.3 17.4-15.3 29.5a106.3 106.3 0 0 0-6.6 38.3A203 203 0 0 0 391 184c1.7 7.5 6.3 13.7 9.7 20.4a85 85 0 0 0 16.4 20.5zm83.3-174.3c2.7-2.9 6-4.9 9.4-5.9a19.5 19.5 0 0 1 24.7 18.3c.2 11.7-11.4 21.7-23.1 20.7-15.9-1.3-21.1-22.3-11-33.1zM452.8 80a28.8 28.8 0 0 1 10.7-13.6c4.3-3 9.3-4.2 14.6-2 6 2.7 10 8.9 11.7 15 2.7 10-.6 20.7-10.3 25.3-10.1 4.6-21.8 1-26.3-9.3a20.2 20.2 0 0 1-.4-15.4zM411.1 170c-4.8-6.4-7.3-17-5.5-26 1.1-5.2 3.6-9.8 8-12.8 9-6.1 22.3-3.8 31 1.6 11.6 7.3 15.1 20.4 10.7 33-2.4 6.9-6.9 13.1-13.9 15.6-11.1 4-23.6-2.5-30.3-11.4" fill="#f4bfd9"/><path d="M576.3 66.5c10.2 2.7 10-14.4 1-13.3-6.5.8-7.6 11.6-1 13.3M595.4 61.6c10.2 2.7 10-14.4 1-13.3-6.5.8-7.6 11.6-1 13.3" fill="#c0739c"/><path d="M410.6 226l.3.2a76 76 0 0 0 17.8 12.6c8 4.1 16.5 7 25.3 8.8 11.7 2.4 23.7 2.8 35.6 1.5a124 124 0 0 0 45.6-14.7c4.4-2.5 8.5-5.3 12.4-8.4l1-.8a88.8 88.8 0 0 0 11.6-11.6 73.4 73.4 0 0 0 11.5-19.8 60.2 60.2 0 0 0 3.6-19.4c.1-7.5-1-15-3.2-22.3a96.4 96.4 0 0 0-9.3-21c21.7-8.2 41.4-27.5 54.5-44.7a3 3 0 0 0 .7-2c8.1-10.7 6.2-26.7-.2-38.6-9.6-17.7-32.6-30-52.6-23.9l-1 .6A390.5 390.5 0 0 0 495 35.9l-3.3 1-5.5 1.8-2.9 1-5.5 2 .2-5.5c0-4.6-.6-9.3-1.9-13.7a33.4 33.4 0 0 0-12.8-18c-10.2-7.2-25.3-4.8-28.9 8.3a33.4 33.4 0 0 0 1.9 19.6c3 8.2 7.4 15.7 12.6 22.7l-4.4 2.5-.5.4-7.2 4.5-.2.1-1.8 1.3c-1.6-4-3.6-7.8-5.5-11.3a49.8 49.8 0 0 0-10.5-13c-6.3-5.4-14.5-8.8-22.8-6.9-6.9 1.7-12 7.7-13 14.6-1.4 10 3.6 19.2 9.7 26.8 4.3 5.3 9.7 10 15.4 14a106.6 106.6 0 0 0-22.2 91.5 96.8 96.8 0 0 0 8.4 24.4 80.6 80.6 0 0 0 16.3 22zm155-195.6l.9-.8c16.7-1.5 31.1 2 41.6 16.2 7.7 10.3 11.3 26 1.4 36-13.2 13.5-30.8 5.7-39.9-7.5-6.8-10-17.1-34.7-4-44zM446.7 9c-.8.3.6-.3 0 0zm-1.6 1c-.4.3.7-.7 0 0zm-3 14.5c-.7-3.1-.7-6.7-.1-9.3A8.3 8.3 0 0 1 445 10h.1l.7-.5.8-.4a13.3 13.3 0 0 1 2.5-.7h.4a14.8 14.8 0 0 1 2.8 0l1.9.5 1.6.6h-.1.1c5.6 2.4 9.4 7 11.7 12.5 1.6 4 2.3 8.3 2.4 12.6.2 3.7-.5 7.3-1 10.8-4.9 2-9.6 4.3-14.2 6.7A82 82 0 0 1 442 24.5zm-50.1 34a19.6 19.6 0 0 1-1.2-10.3 9.9 9.9 0 0 1 10.9-8.1c2.9.1 6.4 1.6 9.3 3.5 8.7 5.7 13.4 15.7 16.8 25.4-5.6 4.3-10.8 9-15.5 14.2A59.5 59.5 0 0 1 392 58.4zm1.7 118.8a98 98 0 0 1 3-56.4 96 96 0 0 1 11.7-22l.2-.2 3-4 .5-.5 1.9-2.2 1.3.8c3.3 2 6-3 3-5.1l-.3-.2c4-4 8.2-8 12.6-11.5 2.1 2.4 7.2.9 6.8-2.7 0-.7-.2-1.4-.4-2.2l6-4.1 1.9-1.1 5-3.2 1.9-1 1.8-1c0 .2.2.3.3.4 2 2.5 6-.5 4.8-3.2l9.8-4.7c1.4 2.3 5.6 2.9 6.8 0 .5-1 .9-2.3 1.2-3.4l3.4-1.4.2-.1a323.1 323.1 0 0 1 76.8-17.8c-8.8 12-1.8 32.9 4.4 44.3 8 15 21.6 23.6 36.5 21.1a164.3 164.3 0 0 1-38.6 28.4l-1-1c-3-2.6-6.7.5-5.2 4l-4.2 1.7c-3.4 1.4-2 6 1.5 5.4 2-.3 4.2-.8 6.3-1.4 3.5 6.4 6.4 13 8.4 19.8 2 6.7 3 13.7 2.8 20.7a57 57 0 0 1-14.1 35.9 75.5 75.5 0 0 1-11.2 10.4 95.6 95.6 0 0 1-26.3 14.4 115 115 0 0 1-27.5 6.5 105 105 0 0 1-35.4-2 89.3 89.3 0 0 1-18.8-6.6 71 71 0 0 1-33.2-33.3c-3.4-6.7-6-14-7.6-21.5" fill="#eb99c2"/><path d="M510.6 76.2c7.4 1 17-5 16.3-13.1-.6-7.1-6.4-10.6-13-11-3.7-.3-6.4.4-8.9 3.4-2.1 2.5-3 6-2.9 9.2.3 5.1 3 10.7 8.5 11.5zm-5.4-13.8c1-4.8 8-5.8 11-2.3 3.2 3.8 1.7 9.2-3.5 10.1-4 .7-8.2-3.9-7.5-7.8M475.4 99a13.6 13.6 0 0 0 7.2-19.1c-1.8-3.6-4.6-7.3-8.7-8.2-3.5-.8-8.7 1-11 3.6a20.6 20.6 0 0 0-3.4 5c-1.7 3.6-2 7.8-.6 11.6 2.6 6.8 9.7 9.8 16.5 7zM462 84.2c.9-4.8 7.9-5.8 10.9-2.3 3.2 3.8 1.8 9.2-3.4 10.1-4 .7-8.2-3.9-7.5-7.8" fill="#fff"/><path d="M469.5 92.1c5.2-.9 6.6-6.3 3.4-10.1-3-3.5-10-2.5-10.9 2.3-.7 4 3.5 8.5 7.5 7.8M512.7 70.2c5.2-.9 6.7-6.3 3.4-10.1-3-3.5-10-2.5-10.9 2.3-.7 4 3.5 8.5 7.5 7.8" fill="#231f20"/><path d="M479.5 104.8c9.7-4.6 13-15.3 10.3-25.2a22.4 22.4 0 0 0-11.7-15c-5.3-2.3-10.3-1-14.6 1.9A29 29 0 0 0 452.8 80c-1.9 5-1.8 10.5.4 15.4 4.5 10.4 16.2 14 26.3 9.3zm-20-24.5c.8-1.8 2-3.5 3.3-5 2.4-2.6 7.6-4.4 11.1-3.6 4 .9 7 4.6 8.7 8.2 3.7 7.5.5 16-7.2 19a12.3 12.3 0 0 1-16.5-7c-1.5-3.8-1.1-8 .6-11.6M511.5 83.8c11.7 1 23.3-9 23.2-20.7a19.5 19.5 0 0 0-34.2-12.4c-10.1 10.8-4.9 31.8 11 33zM505 55.5c2.5-3 5.2-3.7 8.9-3.5 6.6.5 12.4 4 13 11 .7 8.1-8.9 14.2-16.3 13.2-5.5-.8-8.2-6.4-8.5-11.5-.1-3.3.8-6.7 3-9.2" fill="#eb99c2"/><path d="M516 189a36.3 36.3 0 0 1-39-13.2c-2.6-3.2-8 .5-6 4.2 18.2 34.2 81.3 16.1 76.3-23.1-.4-3.1-5.5-2.8-5.5.3A31.8 31.8 0 0 1 516 189" fill="#ef5091"/><path d="M468.8 45.3c.6-3.5 1.3-7 1.1-10.8 0-4.3-.8-8.5-2.4-12.6-2.3-5.5-6.1-10-11.7-12.5l-1.6-.6a18.7 18.7 0 0 0-3-.5 14.8 14.8 0 0 0-2 0 17.3 17.3 0 0 0-2.5.7h-.1l-.8.4-.7.5a8.3 8.3 0 0 0-3.2 5.3c-.6 2.6-.6 6.2 0 9.3 2.1 10 7.3 19 12.8 27.5 4.6-2.4 9.3-4.6 14.1-6.7" fill="#f4bfd9"/><path d="M455.8 9.4h-.1.1M445 10c.7-.7-.4.3 0 0M449.1 8.3h.2-.2M446.7 9c.5-.3-.9.3 0 0" fill="#908e73"/><path d="M427.7 69c-3.4-9.7-8-19.7-16.8-25.4-3-2-6.4-3.4-9.3-3.5-3 0-4.8.2-7.3 2.1-1.5 1-3 3.4-3.6 6-.6 3-.1 6.8 1.2 10.2a59.5 59.5 0 0 0 20.3 24.8c4.7-5.2 10-10 15.5-14.2M403.1 249.2a4 4 0 0 0-4.4-2.8l-.5.1c-9 1.6-18.8 4.6-29.4 9-6.8 2.7-13.5 5.9-19.7 9.2a34.7 34.7 0 0 0-20.9-6.3c-2 .3-3.5 2-3.5 4.4 0 2 1 4.3 3.5 4.7l4.1.5 4.6.6 2.9.8c-5.3 3.3-10 6.5-13.7 10.8a4.4 4.4 0 0 0 0 6.1c1.5 1.5 4 2.2 6.4.2l1.8-1.5 7-5.9a46.9 46.9 0 0 0-1.5 6c0 2 1.6 3.7 3.3 4.2 2 .7 4 0 4.8-2 .8-1.9 1.4-3.8 2-5.7l1.6-5.2.8-1.3.1-.3h.3l20-9.3 1.6-.7 10.3-4.2a370 370 0 0 0 16.8-7.4 3.3 3.3 0 0 0 1.7-4" fill="#f4bfd9"/></svg> 
