<?xml version="1.0" encoding="UTF-8" standalone="no"?>
<svg xmlns:rdf="http://www.w3.org/1999/02/22-rdf-syntax-ns#" xmlns="http://www.w3.org/2000/svg" height="690" viewBox="0 0 879 690" width="879" version="1.1" xmlns:cc="http://creativecommons.org/ns#" xmlns:dc="http://purl.org/dc/elements/1.1/">
<path d="m217.03 689.34c0.12255-3.0769 4.1328-5.3655 11.119-6.3452 25.762-3.6129 42.826-14.077 42.843-26.272 0.005-3.9778 3.5553-6.9193 5.2398-4.3419 4.8364 7.3998-4.3896 21.487-18.679 28.522-10.46 5.1492-40.642 11.434-40.522 8.4373zm-18.202-9.2953c-28.02-5.1076-41.012-19.66-29.749-33.323 4.4931-5.4509 6.4078-6.2275 8.9893-3.646l2.1168 2.1168-3.4459 2.3415c-22.98 15.616 29.184 36.348 60.379 23.997 2.0228-0.80088 3.2391 1.9318 1.9402 4.3589-1.9424 3.6294-28.222 6.3431-40.23 4.1543zm1.5579-9.5284c-24.657-5.3638-25.917-23.565-2.0473-29.576 5.6303-1.4177 4.4582 5.1701 10.213-57.403 2.5276-27.482 4.7663-50.243 4.975-50.581 0.20869-0.33768 0.84127-12.053 1.4057-26.033 1.4676-36.35-1.6549-30.557 30.198-56.026 21.356-17.076 23.891-19.423 26.306-24.36 6.8558-14.013 55.835-46.51 85.472-56.71 27.218-9.3674 28.145-11.626 9.4126-22.918-4.8536-2.9258-22.844-14.564-39.978-25.862s-36.259-23.809-42.5-27.8c-6.23-3.99-13.14-8.55-15.34-10.14l-4-2.8864-13.5 0.94251c-30.449 2.1258-48.822-2.0688-52.975-12.094-0.69733-1.6835-1.5508-3.0608-1.8965-3.0607-0.34577 0.0001-4.1558 0.6751-8.4666 1.5-19.13 3.66-35.66 0.57-35.66-6.67 0-2.4841-0.26213-2.4013-7.1051 2.2457-16.85 11.43-27.89 9.92-27.89-3.82 0-14.641 37.774-51.499 68.851-67.181 3.4932-1.7627 6.1932-3.3403 6-3.5057-0.19315-0.16541-4.4032-3.654-9.3556-7.7524-16.549-13.695-25.947-27.706-21.218-31.631 2.7405-2.2744 29.801-4.6018 53.989-4.6436l23.767-0.041-2.7574-2c-17.95-13.02-9.7208-16.556 42.379-18.214l18.155-0.57772-4.7257-3.7354c-10.05-7.95-15.94-17.27-18-28.444-1.76-9.565-38.97-22.84-81.26-28.991-13.38-1.947-41.21-6.44-61.83-9.984-63.084-10.842-78.871-13.426-101.1-16.551-28.718-4.037-27.726-3.827-28.959-6.13-5.552-10.374 22.492-16.837 73.227-16.875 19.139-0.015 20.047-0.11 33.782-3.5381 60.366-15.064 122.74-11.292 189.43 11.457 8.3182 2.8373 9.5303 2.9925 19 2.4317 23.866-1.4133 53.38 8.6145 89.278 30.334 12.12 7.3328 13.348 7.8605 15.5 6.658 1.2853-0.71832 5.937-2.6944 10.337-4.3914 4.4-1.6969 9.9076-3.9585 12.239-5.0257 2.33-1.068 4.72-1.941 5.31-1.941 0.58712 0 4.9795-1.6367 9.7609-3.637 77.221-32.307 172.17-44.346 216-27.387 44.751 17.315 47.998 58.112 6.5685 82.522-35.844 21.119-41.72 26.902-58.912 57.989-20.913 37.813-26.337 59.254-18.597 73.517l3.8676 7.1277 3.2786-5.8155c30.97-54.95 91.36-94.38 121.48-79.32l5 2.5 9.5-7.8494c20.198-16.689 50.142-34.649 72.594-43.541 18.099-7.1684 29.641-10.135 56.906-14.624 3.5425-0.58335 6.1469-2.2114-27.944 17.469-36.987 21.353-79.15 47.949-88.056 55.545l-3 2.5589 4-1.6202c23.786-9.635 36.917-13.288 50.5-14.051l9.5-0.53331-5.5 3.2326c-3.025 1.7779-15.625 9.0648-28 16.193-38.405 22.122-47.849 28.495-52.5 35.428-6.0262 8.9834-10.094 13.348-20.208 21.681-25.736 21.204-28.125 36.726-11.63 75.565 30.948 72.872 14.073 119.32-49.486 136.21-11.54 3.0662-132.29 6.0452-151.56 3.739-5.01-0.61-11.92-1.42-15.36-1.81l-6.25-0.7053-0.006 3.5519c0 1.95-0.88 12.33-1.95 23.05-4.95 49.38-12.04 123.18-12.04 125.25 0 1.8437 0.98341 2.6338 5.0972 4.0948 25.029 8.8896 10.963 29.624-20.097 29.624-30.816 0-45.152-20.638-20.43-29.412 8.2196-2.917 9.3431-3.5778 4.9299-2.8997-5.6227 0.86397-13.309 3.8394-18.622 7.2088-4.0944 2.5966-5.3078 4.3345-7.253 10.388-0.85479 2.66-4.475 2.1963-5.1932-0.66525-1.382-5.5062 5.5212-13.858 15.022-18.175 7.3886-3.357 18.571-5.9862 19.445-4.5719 0.38456 0.62224 2.8888-21.924 5.565-50.103 6.4945-68.385 6.3404-66.473 6.5078-80.735 0.0807-6.875 0.48794-14.568 0.90504-17.095l0.75836-4.5952-11.068-1.1772c-6.09-0.65-15.57-1.67-21.07-2.27-27.43-2.9823-99.792 3.9752-116.29 11.181-4.1452 1.8105-56.258 41.025-59.348 44.659-1.1031 1.2972-2.1194 8.1359-3.6845 24.791-4.0254 42.838-11.127 115.98-11.558 119.05-0.42352 3.0127-0.33967 3.076 6.3548 4.8005 12.95 3.3361 22.638 11.335 23.748 19.609 0.82256 6.1326-4.1628 5.766-6.2842-0.46211-2.0044-5.8845-12.123-12.503-21.438-14.023-2.9941-0.4885-2.6327-0.15096 2.5 2.3351 27.595 13.366-0.20043 35.294-35.111 27.7zm26.543-6.0572c13.676-3.2236 17.863-9.3929 9.719-14.32-6.6494-4.0228-7.2294-3.8321-8.646 2.8432-0.91304 4.3024-1.7388 6.0365-2.8914 6.0714-0.88735 0.0269-6.5826 0.59756-12.656 1.2682l-11.043 1.2193 0.25487-2.5182c1.47-14.524 1.5242-14.461-8.4363-9.8141-18.293 8.5345 9.2704 21.008 33.699 15.25zm-7.798-15.337c0.35-0.33 3.84-34.13 7.75-75.11 8.4817-88.884 8.2594-87.096 11.423-91.876 1.4288-2.159 10.685-10.005 22.029-18.674l19.56-14.95-3.197-1.3417c-1.7584-0.73796-3.9761-2.0376-4.9283-2.888-1.1983-1.0703-2.1218-1.2391-3-0.54837-7.6621 6.0264-38.621 30.907-39.743 31.94-1.3857 1.276-18.33 173.7-17.182 174.85 0.52612 0.52612 6.4901-0.61349 7.2897-1.3929zm245.8-31.663c14.785-3.485 18.23-10.293 7.7694-15.357-6.0445-2.9261-6.4067-2.7725-7.7638 3.2916l-1.206 5.389-4.6157 0.57932c-2.5386 0.31863-8.1427 0.88424-12.453 1.2569l-7.8378 0.67757 0.33778-6.9989 0.33778-6.9989-3.5 0.9502c-26.533 7.2033 1.2562 23.734 28.932 17.21zm-9.1902-16.003c0.68291-0.21004 1.2091-1.41 1.1694-2.6665-0.0398-1.2565 2.8633-31.76 6.4513-67.785s6.9956-70.966 7.5726-77.647c0.57696-6.681 1.3152-12.841 1.6406-13.689 0.57485-1.4981-7.0267-4.546-8.2605-3.3122-0.64976 0.64976-15.981 165.65-15.442 166.19 0.38891 0.38891 3.8464-0.15906 6.8687-1.0886zm-160.72-166.46c24.138-8.1314 65.104-13.311 105.48-13.337 27.748-0.018 28.77 0.0809 71.5 6.9234 48.389 7.7487 146.39 8.2562 173.87 0.90047 61.289-16.402 78.129-53.467 52.057-114.58-19.803-46.418-16.83-81.756 7.8636-93.474 24.295-11.529 40.221-55.572 21.883-60.516-37.129-10.009-103.49 49.819-125.51 113.15-7.2462 20.843-7.3078 22.585-0.34266 9.6896 11.777-21.804 42.819-62.669 50.252-66.154 6.1587-2.887 7.2169 4.4575 1.5734 10.921-18.785 21.514-13.158 48.456 17.75 84.983 32.344 38.225 2.9958 90.446-39.944 71.074-17.9-8.07-21.85-19.57-21.55-62.82 0.13-19.46-0.15-30.75-0.77-30.75-2.694 0-14.25 28.862-18.618 46.5-3.4054 13.751-5.4548 16.283-10.074 12.45-5.7556-4.7767 6.5375-64.285 19.394-93.885l2.7952-6.4351-3.9444-7.5649c-2.1694-4.1607-4.56-8.2743-5.3125-9.1413-0.75245-0.86706-2.3937-3.6023-3.6472-6.0783-11.446-22.608-42.323-52.103-70.944-67.767l-7.7194-4.2249 3.8418 8.3236c18.94 41.02 35.21 177.83 21.16 177.83-3.1009 0-5.0545-2.1921-5.0658-5.6843-0.005-1.6438-1.1183-1.8277-11.75-1.9415-14.162-0.15169-27.071-3.1828-39.807-9.3475-21.002-10.166-23.336 4.1349-3.8533 23.606 11.253 11.246 24.335 16.398 47.158 18.573 14.293 1.3621 19.479 4.8735 13.133 8.8931-5.224 3.309-35.775-2.0578-49.69-8.729-5.6898-2.7278-7.6225-3.2514-8.7003-2.357-2.8929 2.4009-28.913-5.3606-46.999-14.019-34.73-16.62-58.49-43.42-58.49-65.97 0-4.5015-0.17725-4.7649-6.9649-10.349-14.234-11.71-23.984-28.843-24.023-42.216-0.01-3.4082-0.65278-4.671-4.0721-8-13.879-13.513-20.061-33.83-12.471-40.988 2.8997-2.7347 3.2364-3.4644 2.0525-4.447-6.8944-5.7218-15.029-23.876-16.163-36.067-0.4338-4.6675-1.1056-7.0228-2.1134-7.4095-5.8415-2.2416-55.887-1.0915-62.723 1.4414-1.7002 0.63002-0.39476 1.8062 8.1889 7.3777 18.755 12.174 17.054 16.447-5.0427 12.669-20.49-3.5029-56.895-3.5934-73.57-0.18295l-3.3308 0.68122 4.0362 5.1062c11.429 14.459 44.491 36.295 65.855 43.496 16.704 5.6294 19.918 8.4809 13.959 12.385-2.2182 1.4534-2.8845 1.3613-9.75-1.3483-11.489-4.5343-34.917-9.4507-36.672-7.6956-5.2345 5.2345 57.076 41.902 74.127 43.621 11.084 1.1174 13.544 1.7939 14.756 4.0578 1.7003 3.177-1.4387 7.2546-4.9178 6.3882-4.3043-1.0719-33.163-1.8626-33.144-0.90813 0.0279 1.3507 5.8918 5.8995 26.482 20.543 30.61 21.769 45.969 31.965 63 41.82 49.96 28.911 52.213 38.313 12.805 53.429-26.545 10.182-62.355 31.656-77.055 46.207-11.31 11.196-6.4656 16.834 9.7661 11.366zm183.98-27.68c-22.209-2.3788-60.074-12.6-59.985-16.192 0.0811-3.2509 1.9933-3.2113 10.607 0.21984 32.584 12.98 77.237 15.989 123.22 8.3031 13.88-2.32 14.16-2.32 14.16 0.36 0 4.8484-62.492 10.033-88 7.3009zm94.594-140.7c-8.61-22.89-19.7-42.42-30.03-52.92-5.16-5.24-6.45-8.69-3.25-8.69 9.4092 0 47.125 69.084 38.891 71.238-1.4855 0.38848-2.4664-1.2973-5.6053-9.6334zm-272.86-27.07c-28.95-12.71-39.92-31.86-30.09-52.54 4.1715-8.7804 11.221-17.363 13.028-15.863 1.9883 1.6502 1.683 2.6385-2.2252 7.2041-19.065 22.271-9.5477 44.89 24.682 58.659 4.5062 1.8127 5.5251 2.6326 5.1334 4.1306-0.65411 2.5013-1.4798 2.3764-10.524-1.5927zm393.27-31.611c-8.7998-3.6891-12.268-13.339-8.0951-22.527 4.6055-10.141 17.878-12.455 25.544-4.454 10.14 10.584-4.0865 32.582-17.449 26.981zm9.5584-5.3659c1.795-1.3299 1.8159-1.537 0.27741-2.75-3.93-3.09-6.84-9.04-6.84-13.95 0-5.7783-0.78932-6.0034-4.8471-1.3818-8.6545 9.8569 1.2707 25.592 11.406 18.083zm6.4079-8.9611c1.4361-4.3515 0.47602-8.1072-2.714-10.617-7.4277-5.8426-9.0565 3.9674-1.9535 11.766 2.7362 3.0041 3.3463 2.8539 4.6675-1.1493zm-54.651 184.81c25.779-8.7838 28.259-36.281 5.674-62.908-20.836-24.565-26.315-36.116-26.436-55.737-0.0632-10.242 0.85887-10.805-11.124 6.7894-7.5234 11.047-7.5268 11.055-6.5688 15.5 2.0034 9.2977 2.2494 17.134 1.145 36.481-2.6646 46.679 11.119 68.799 37.31 59.875zm-190.22-27.95c-10.631-12.108-13.9-30.533-6.4572-36.387l2.5907-2.0378-5.1173-5.5991c-12.317-13.477-16.514-31.667-9.6425-41.793l2.4169-3.5614-3.8899-3.0809c-12.791-10.13-21.587-29.748-19.207-42.839l0.94245-5.1853-4.8456-3.557c-11.083-8.1353-20.316-20.967-24.884-34.584-2.6432-7.8779-2.8529-8.1666-7.1127-9.7928-18.853-7.1974-25.389-19.019-21.344-38.604 1.7845-8.6392 1.6769-8.9835-3.0853-9.8769-7.312-1.3718-42.042-11.733-61.904-18.468-23.286-7.8961-23.024-7.9343-18.098 2.6468 7.0746 15.196 24.601 26.204 60.865 38.23 16.128 5.3483 17.367 6.1507 16.266 10.535-0.94006 3.7455-3.8216 3.3094-24.309-3.6795-20.827-7.1047-19.865-7.2211-18.274 2.2096 4.1199 24.426 18.913 37.214 57.385 49.604 9.8177 3.1621 12.619 5.6086 10.646 9.2962-2.0091 3.754-26.29-3.1533-43.868-12.479-26.41-14.012-13.08 20.428 14.909 38.518 11.026 7.1265 33.942 15.146 50.141 17.547 7.0728 1.0482 9.558 7.496 3.4775 9.0221-7.6846 1.9287-42.858-9.3052-56.911-18.177-6.2269-3.9309-6.3502-2.7209-0.84238 8.2706 10.165 20.286 40.178 39.831 68.059 44.321 11.672 1.8797 11.829 1.9304 12.501 4.0472 3.0247 9.5301-18.968 7.0466-44.251-4.9969-5.6375-2.6854-10.25-4.5077-10.25-4.0494 0 21.511 33.023 49.969 74.5 64.2 13.524 4.6403 13.404 4.6365 9.5961 0.30018zm66.172-38.705c-1.19-78.46-16.47-144.11-38.7-166.33-10.08-10.08-16.74-12.36-43.57-14.92-17.516-1.67-29.988-3.8167-52.048-8.9585-18.942-4.4149-17.578-4.5229-18.869 1.4955-4.7668 22.227 0.60259 26.518 47.427 37.905 25.501 6.2014 26.155 6.5427 23.883 12.464-0.84588 2.2043-1.993 2.0885-24.084-2.4322-22.671-4.6395-21.098-4.8868-17.965 2.823 7.1138 17.507 24.816 31.809 52.668 42.551 20.183 7.784 19.158 7.1898 18.8 10.904-0.55319 5.732-11.14 3.5633-33.708-6.9052-5.1678-2.3971-9.5553-4.3584-9.75-4.3584-1.2075 0-0.0209 11.813 1.6284 16.212 6.7025 17.877 34.804 37.092 63.201 43.214 5.729 1.2351 4.3022 8.5738-1.6669 8.5738-7.0159 0-27.165-7.7763-39.174-15.119l-3.158-1.9308-2.0657 2.6261c-14.712 18.703 25.34 52.849 64.667 55.132 5.6569 0.32833 10.521 0.97826 10.809 1.4443 1.5319 2.4786 1.8843-0.55336 1.6741-14.401zm-283.32-39.64 7.44-0.62-3.01-3.5c-8.5984-9.973-8.7555-15.909-0.42529-16.068 3.0891-0.0589 3.283-0.19735 1.4936-1.0664-1.6004-0.77726-6.314 0.33676-21.254 5.0231-10.558 3.312-20.793 6.3212-22.744 6.6871-4.8624 0.91219-4.1954 3.304 1.7429 6.2507 7.0382 3.4924 20.19 4.6704 36.757 3.2926zm-50.45-16.02c6.6-1.6808 18.682-5.2466 26.848-7.924l14.848-4.868-4.8481-2.7928c-2.6664-1.5361-6.9687-4.2918-9.5605-6.1238l-4.7124-3.331-12.788 4.0846c-14.637 4.6753-23.886 8.1798-37.038 14.033-22.189 9.876-3.2457 14.688 27.25 6.9218zm-53.959-3.169c14.682-9.3563 31.886-17.074 54.459-24.43 12.92-4.2101 14.06-4.8608 11.2-6.3912-3.36-1.8-14.2-16-14.2-18.61 0-3.0406 1.3365-3.8428 7.4672-4.4819l4.9672-0.51781-2.8347-1.8501c-9.1485-5.9707-59.628 31.317-73.256 54.112-5.2294 8.7471 0.32257 9.7329 12.197 2.1657zm449.32-48.47c8.3-45.06 39.99-88.81 78.99-109.07 26.34-13.675 35.11-29.714 26.2-47.89-14.2-28.935-97.84-40.826-92.65-13.172 1.3847 7.3811 5.5671 9.1757 36.851 15.812 20.46 4.341 21.75 4.835 21.75 8.36 0 5.6494-22.291 3.0958-49.997-5.7275-8.208-2.614-10.524-2.954-17.065-2.5057-32.042 2.1962-25.252 25.132 8.5621 28.919 12.676 1.4198 13.293 1.5865 13.989 3.7783 2.7047 8.5217-19.876 7.6472-38.989-1.51-14.01-6.7124-30.774 2.7618-27.955 15.799 3.32 15.357 28.82 32.747 48.01 32.747 5.4361 0 8.7028 7.5381 4.0418 9.3267-4.8426 1.8583-32.186-6.6565-41.445-12.906-3.8828-2.6208-5.6548-3.3124-6.45-2.5172-0.603 0.603-3.8189 1.0989-7.1464 1.1019-14.477 0.0133-24.403 9.3595-20.591 19.387 1.2797 3.3658 0.62195 6.1706-1.6516 7.043-1.1534 0.44262 1.3634 2.563 8.7881 7.4034 18.508 12.066 39.906 31.795 50.404 46.473 5.0063 6.9992 4.9104 7.012 6.359-0.84992zm187.43-35.936c11.326-6.586 20.478-12.089 20.339-12.228-0.71199-0.71199-19.499 5.1111-29.131 9.0293-21.727 8.8386-26.384 11.317-27.029 14.385-0.32251 1.5336-1.0104 4.6751-1.5287 6.9811-0.51825 2.306-0.94228 4.427-0.94228 4.7132 0 0.28623 3.9824-2.0505 8.8498-5.1928s18.116-11.102 29.442-17.688zm-27.133-5.0927c12.167-9.7436 38.636-27.012 71.779-46.83 16.19-9.68 28.96-17.6 28.38-17.6-19.39 0-78.38 31.31-109.26 57.99l-3.4429 2.9746 1.6929 3.5501c0.93109 1.9525 1.6929 4.2098 1.6929 5.0161 0 2.171 0.25567 2.0286 9.1588-5.1011zm-233.36-19.05c-2.9121-14.673 7.4282-26.143 25.273-28.034l5.5752-0.5908-2.524-4.7334-2.524-4.7334-15.551-0.58437c-16.735-0.62886-24.219-2.0931-32.873-6.4319-8.9246-4.4745-12.735 2.6905-6.3655 11.969 3.3728 4.9127 11.092 20.135 13.604 26.826 1.5545 4.1416 2.3771 4.8937 8.8982 8.1358 8.5051 4.2285 7.7314 4.4459 6.4871-1.8232zm-30.41-16.63c-18.23-35.541-58.2-57.131-94.64-51.108-5.3039 0.87668-4.9579 1.2008 8.0695 7.5586 29.189 14.245 46.219 28.033 39.239 31.768-2.5022 1.3392-1.7613 1.726-20.058-10.472-25.985-17.323-37.5-21.79-59.5-23.081-21.261-1.247-30.438 2.728-28.07 12.159 1.7838 7.1071 73.943 23.561 120.55 27.487 14.64 1.2334 26.554 3.8315 31.43 6.8539 4.3811 2.716 4.8713 2.5241 2.9793-1.1661zm54.637-34.5c0.0509-8.6958 8.51-18.739 18.412-21.861l5.1762-1.6316-0.41883-5.7902c-0.83-11.407 11.7-22.967 24.9-22.967 3.901 0 4.4095-0.85572 4.0696-6.8479-0.21307-3.7563 0.23623-7.1869 1.2631-9.6446 2.7611-6.6083-16.655-4.4429-66.432 7.409-25.519 6.0761-29 7.9577-29 15.676 0 9.4502 8.2773 11.895 37.812 11.167l20.312-0.50063 1.5094 2.3036c4.2283 6.4531-0.78643 7.6125-34.284 7.9265-26.205 0.2456-28.595 0.74144-32.849 6.8157-8.1642 11.656 10.169 20.901 42.751 21.559l6.75 0.136 0.022-3.75zm-59.14-7.0607c-0.49-1.275-0.89-3.366-0.89-4.646 0-2.3171-0.0521-2.3264-12.25-2.1849l-12.25 0.142 7.5 5.65c4.125 3.1076 8.5838 6.8126 9.9085 8.2332l2.4085 2.5829 3.2233-3.7288c2.623-3.0343 3.0591-4.1608 2.3415-6.0483zm-159.89 3.761c0-7.8506 10.746-15.207 25.401-17.389l4.9008-0.72959-8.4008-4.6017c-18.5-10.136-43.41-19.989-56.47-22.346-3.26-0.588-7.95-1.451-10.43-1.917-17.117-3.2249-37 1.1403-37 8.1229 0 7.3982 26.792 22.07 64 35.049 19.164 6.6847 18 6.4382 18 3.8112zm58.59-19.991c4.35-1.122 11.96-2.359 16.91-2.75l9-0.70969-11-6.6375c-34.56-20.855-62.59-28.834-87.24-24.835-13.047 2.1174-13.038 2.6078 0.12781 7.0197 14.072 4.7156 34.796 14.219 50.609 23.209 13.483 7.665 11.654 7.2665 21.59 4.7032zm58.483-0.5943c-1.1399-1.4492-2.0795-3.1367-2.0879-3.75-0.0483-3.5153-1.712-3.787-6.9466-1.1344-6.1886 3.136-6.2308 3.0468 2.5685 5.4432 9.0443 2.4631 8.8558 2.4794 6.466-0.55872zm47.003-1.9602c1.3334-1.4273 3.6618-3.2388 5.1743-4.0257 3.3311-1.733 3.3988-2.5827 0.51667-6.481-1.7213-2.3282-2.2333-4.3823-2.2333-8.9595 0-3.267-0.12-5.939-0.26-5.939-0.24 0-28.23 10.272-40.02 14.682-6.209 2.323-4.5562 8.535 3.1652 11.897 6.3275 2.755 30.787 1.9022 33.66-1.1736zm-255.76-12.644c-1.3807-4.0076-1.317-7.0093 0.23374-11.018 2.6166-6.7638-50.927-18.764-90.209-20.218l-14.84-0.548 6.5 2.374c3.575 1.3058 19.1 7.2098 34.5 13.12 39.669 15.224 48.747 18.379 55.792 19.391 10.359 1.4873 9.6845 1.7482 8.0141-3.1003zm-59.58-4.854c-2.9-1.684-35.08-13.687-50.96-19.004-26.219-8.778-33.659-10.167-50.654-9.454-8.039 0.338-19.116 0.631-24.616 0.652-9.4206 0.03604-20.521 1.191-25 2.6012-1.1111 0.34979 7.5561 2.0748 19.5 3.8811 18.26 2.7615 125.52 20.774 130 21.83 2.9021 0.68506 3.4822 0.51488 1.7272-0.50677zm76.27-15.845c5.8774-1.3227 18.928-1.3297 28.379-0.01517 6.8618 0.95438 17.662-2.3387 15.328-4.6734-3.62-3.621-56.67-15.48-82.71-18.489-20.038-2.3158-73.602-0.61451-76.652 2.4346-0.20951 0.20952 5.5366 0.69334 12.769 1.0752 35.104 1.8532 67.93 8.6449 88.883 18.39 3.575 1.6627 7.175 2.8584 8 2.657 0.825-0.20134 3.525-0.82179 6-1.3788zm191.5 599.37c-1.1-0.25914-4.6068-0.97805-7.7928-1.5976-3.6919-0.71788-6.1386-1.7726-6.7464-2.9082-1.3171-2.461-0.11994-5.2068 1.9183-4.3999 30.999 12.273 85.21-9.3657 60.311-24.074-3.1145-1.8398-3.3401-4.7978-0.45054-5.9067 5.9475-2.2823 13.971 11.74 11.318 19.779-4.122 12.49-38.723 23.78-58.558 19.107z"/>
</svg>
